<svg width="193" height="147" viewBox="0 0 193 147" fill="none" xmlns="http://www.w3.org/2000/svg">
<mask id="mask0_19_9" style="mask-type:luminance" maskUnits="userSpaceOnUse" x="0" y="0" width="193" height="149">
<path d="M193 0.152344H0V148.721H193V0.152344Z" fill="white"/>
</mask>
<g mask="url(#mask0_19_9)">
<mask id="mask1_19_9" style="mask-type:luminance" maskUnits="userSpaceOnUse" x="-84" y="-43" width="376" height="226">
<path d="M291.236 -42.543H-83.6562V182.392H291.236V-42.543Z" fill="black" fill-opacity="0.36"/>
</mask>
<g mask="url(#mask1_19_9)">
<mask id="mask2_19_9" style="mask-type:luminance" maskUnits="userSpaceOnUse" x="12" y="32" width="125" height="64">
<path d="M136.072 32.0879H12.4961V95.9584H136.072V32.0879Z" fill="white"/>
</mask>
<g mask="url(#mask2_19_9)">
<mask id="mask3_19_9" style="mask-type:luminance" maskUnits="userSpaceOnUse" x="24" y="63" width="15" height="18">
<path d="M24.9922 63.0586H38.5191V80.5774H24.9922V63.0586Z" fill="white"/>
</mask>
<g mask="url(#mask3_19_9)">
<path d="M132.182 74.3998C132.145 74.3401 132.079 74.3076 132.009 74.313C127.507 74.6059 122.946 76.1137 118.992 78.2507C115.819 79.97 113.009 82.3727 110.563 85.4535C110.542 85.4914 110.531 85.5294 110.547 85.5674C111.301 87.5525 112.445 89.261 113.98 90.6928C114.533 91.2135 115.228 91.642 115.879 92.0867C115.927 92.1193 115.922 92.1301 115.868 92.1301C110.482 91.9295 105.107 91.7234 99.7211 91.501C97.8824 91.4305 96.4994 91.3871 95.5719 91.3762C85.4132 91.2569 75.2327 91.1701 65.074 91.36C64.7106 91.3654 64.3634 91.5281 63.9729 91.5389C63.8807 91.5444 63.8699 91.5172 63.9458 91.4684C66.6414 89.6732 68.377 87.1891 69.1526 84.027C69.1526 84.0216 69.1526 84.0162 69.1526 84.0107C69.1526 83.9782 69.1255 83.9456 69.0876 83.9456L63.4414 84.027C63.36 84.027 63.2841 84.0758 63.2461 84.1409C61.6353 86.8202 59.3573 88.3118 56.0705 87.7694C53.1471 87.2867 51.1131 84.9924 50.663 82.1124C50.663 82.107 50.663 82.1016 50.663 82.0907C50.663 82.0256 50.7226 81.966 50.7877 81.966L54.1776 81.9551C54.2318 81.9551 54.2589 81.9822 54.2752 82.0256C55.1918 84.9219 59.2 85.0684 60.0081 82.0582C60.0244 82.0148 60.0515 81.9877 60.1058 81.9877C61.6027 81.9714 63.1431 82.0093 64.5912 81.9171C67.0645 81.7599 69.5432 81.5863 72.0218 81.4019C72.9927 81.3314 73.9527 81.2934 74.9019 81.2988C81.8389 81.3043 88.7813 81.3043 95.7184 81.288C97.0689 81.2826 98.018 81.2337 98.5767 81.1361C101.874 80.572 104.83 78.3212 106.647 75.5767C108.242 73.1686 109.495 70.538 111.371 68.3739C113.405 66.0309 115.927 64.4146 118.938 63.5197C118.981 63.5088 119.003 63.4817 119.003 63.4383C119.073 62.1963 118.867 61.1332 118.395 60.2491C118.054 59.6145 117.186 58.264 115.776 56.1867C114.203 53.8653 112.575 51.5819 111.019 49.2388C109.647 47.1724 108.247 45.133 106.81 43.1154C106.805 43.11 106.805 43.1045 106.805 43.0991C106.805 43.0828 106.815 43.072 106.832 43.072C108.291 43.1262 109.766 43.1642 111.247 43.1913C111.67 43.1967 111.979 43.1371 112.163 43.0015C112.429 42.8116 112.592 42.5133 112.662 42.1011C113.074 39.7743 113.123 37.5452 112.803 35.4082C112.662 34.4482 112.505 33.6129 111.399 33.6455C108.752 33.7268 106.36 34.6109 103.941 35.7878C103.925 35.7933 103.914 35.8041 103.908 35.815C103.881 35.8475 103.892 35.8963 103.93 35.9234C105.291 36.8129 105.986 37.9899 106.002 39.4435C106.034 41.6672 104.684 43.4788 102.531 44.1351C102.476 44.1459 102.449 44.1893 102.46 44.2435C102.498 44.4984 102.666 44.8293 102.72 44.9974C103.594 47.7419 104.489 50.4755 105.411 53.2036C106.311 55.8559 107.016 57.9657 107.461 60.3305C108.036 63.4112 107.244 66.6546 105.622 69.2743C103.724 72.3333 101.11 74.4811 97.5787 75.4628C96.7597 75.6961 96.0763 75.81 95.5231 75.8262C93.9719 75.8696 91.8349 75.8696 89.1068 75.8317C87.8539 75.8154 86.8993 75.7286 86.2376 75.5822C81.6545 74.5354 78.628 70.5218 78.9426 65.7977C79.0185 64.6153 79.3494 63.5088 79.9351 62.4674C81.4972 59.6959 83.8511 58.0796 87.0078 57.6132C87.0186 57.6132 87.0294 57.6077 87.0403 57.6023C87.0837 57.5806 87.0945 57.521 87.0728 57.483C86.5142 56.5338 85.9555 55.5955 85.3969 54.6518C85.2504 54.4077 85.0226 54.1094 84.7189 53.7677C84.6864 53.7297 84.6484 53.708 84.5942 53.7135C80.6511 53.7623 76.708 53.7731 72.7595 53.7406C69.7438 53.7189 67.173 52.6179 65.4428 50.0849C65.1716 49.6944 64.9167 49.2931 64.6672 48.8971C64.6401 48.8537 64.6075 48.8321 64.5587 48.8321C61.8143 48.8754 59.0644 48.8863 56.32 48.8592C54.3077 48.8375 53.3043 50.8334 54.0149 52.569C54.1667 52.927 54.4325 53.2958 54.823 53.6809C55.6908 54.5162 56.6671 55.1291 57.6 55.807C57.6108 55.8125 57.6163 55.8233 57.6217 55.8342C57.6271 55.8613 57.6108 55.8884 57.5891 55.8938C56.2712 56.2681 55.0074 56.7725 53.7925 57.4125C50.3267 59.2349 47.1755 61.8763 44.9409 65.0926C42.4568 68.6668 40.7754 72.6045 39.8913 76.911C39.8371 77.1551 39.8045 77.4046 39.772 77.6649C39.7666 77.7137 39.7883 77.7463 39.8425 77.7463C49.1497 77.7463 58.4624 77.7408 67.7696 77.7246C69.5703 77.7191 71.0347 77.09 72.1683 75.8262C74.9236 72.7618 73.6869 68.4716 71.1757 65.7651C69.6299 64.1 67.7153 62.9664 65.4428 62.359C60.5831 61.079 55.5064 62.7766 51.8128 66.0471C49.0738 68.4716 47.2568 71.5414 46.3619 75.2622C46.3456 75.3164 46.3185 75.3435 46.2589 75.3435L44.0785 75.3489C44.0731 75.3489 44.0731 75.3489 44.0676 75.3489C44.0459 75.3435 44.0297 75.3164 44.0351 75.2947C44.7131 72.4255 45.8955 69.7841 47.5823 67.3705C51.4331 61.8329 59.1946 58.302 65.9526 60.1189C69.7927 61.1549 73.0252 63.5034 74.8639 67.056C76.4476 70.1204 76.3771 74.0689 74.2781 76.873C72.4503 79.3029 69.8144 80.1327 66.8204 80.1381C59.5309 80.149 52.2413 80.1436 44.9517 80.1273C44.8975 80.1273 44.8758 80.149 44.8758 80.1978C44.8487 84.7267 46.709 88.865 50.3484 91.5769C50.3592 91.5823 50.3592 91.5878 50.3647 91.5986C50.3647 91.6203 50.3484 91.6366 50.3321 91.6366C48.168 91.7667 45.9985 91.8589 43.8181 91.9295C41.372 92.0054 39.0127 92.1735 36.6045 92.3254C33.0357 92.5532 29.4777 92.9112 25.9305 93.3993C25.643 93.4427 25.3719 93.4807 25.1115 93.5132C25.0952 93.5186 25.079 93.5349 25.079 93.5512C25.0735 93.5729 25.0952 93.5946 25.1169 93.5946C25.6919 93.6271 26.283 93.7085 26.8309 93.7247C29.7272 93.8224 32.6235 93.9308 35.5252 94.0502C36.4689 94.0935 37.4289 94.1152 38.4106 94.1207C41.2798 94.1478 44.1544 94.2291 47.029 94.2291C67.2381 94.2346 87.4471 94.2346 107.651 94.2237C117.489 94.2183 124.226 94.1098 132.318 93.5729C132.389 93.5674 132.437 93.5512 132.47 93.5186C132.481 93.5132 132.486 93.4969 132.486 93.4861C132.492 93.4644 132.47 93.4373 132.448 93.4373L127.198 92.743C127.024 92.7159 127.008 92.6617 127.16 92.5695C127.399 92.4284 127.659 92.2712 127.957 92.0976C130.067 90.8393 131.651 89.0494 132.779 86.8908C133.999 84.5531 134.417 81.8955 134.086 79.2812C133.864 77.551 133.094 75.8479 132.182 74.3998ZM111.22 35.3268C111.23 35.3051 111.252 35.2943 111.268 35.2889C111.312 35.2834 111.35 35.3051 111.355 35.3485C111.729 37.4367 111.719 39.5248 111.344 41.6076C111.344 41.6184 111.333 41.6347 111.317 41.6401C111.29 41.6618 111.257 41.651 111.236 41.6238C111.106 41.4449 110.992 41.2171 110.889 40.9404C110.173 39.0042 110.276 37.1329 111.22 35.3268ZM128.077 83.4575C126.184 88.4203 120.12 89.4291 116.795 85.2473C116.529 84.9111 116.204 84.3307 115.803 83.49C115.781 83.4521 115.792 83.4087 115.83 83.3816C116.714 82.5788 117.62 81.8195 118.563 81.0982C118.797 80.9192 118.981 80.7836 119.117 80.7022C119.133 80.6914 119.149 80.6914 119.165 80.6914C119.203 80.6968 119.236 80.7348 119.23 80.7727C119.117 81.6622 119.296 82.427 119.773 83.0724C120.874 84.5531 123.141 84.6236 124.302 83.1809C125.332 81.9063 124.936 80.2358 123.548 79.3734C123.184 79.1456 122.788 79.048 122.36 79.0859C122.349 79.0859 122.333 79.0805 122.327 79.0697C122.322 79.0534 122.327 79.0425 122.344 79.0317C123.944 78.2886 125.598 77.7083 127.312 77.2852C127.361 77.2744 127.415 77.2961 127.437 77.334C128.592 79.0968 128.825 81.4995 128.077 83.4575Z" fill="white"/>
</g>
<mask id="mask4_19_9" style="mask-type:luminance" maskUnits="userSpaceOnUse" x="13" y="64" width="25" height="6">
<path d="M13.2188 64.0254H37.4902V69.5793H13.2188V64.0254Z" fill="white"/>
</mask>
<g mask="url(#mask4_19_9)">
<path d="M33.9321 68.4503C34.5125 68.4829 34.9247 68.4503 35.1525 68.3527C36.2101 67.9296 36.3783 66.5845 35.7274 65.7167C35.4183 65.31 35.0494 65.1147 34.621 65.1364C32.9613 65.1961 29.566 65.3696 24.4514 65.6625C20.7578 65.874 17.075 66.2428 13.3923 66.7039C13.2946 66.7147 13.2946 66.7364 13.3868 66.769C13.6038 66.8395 13.9347 66.834 14.1028 66.8557C20.6981 67.5879 27.3043 68.1141 33.9321 68.4503Z" fill="white"/>
</g>
<path d="M33.1718 79.0466C34.2511 78.5422 34.3379 77.0995 33.4918 76.351C33.2152 76.1123 32.906 75.993 32.5589 76.0093C26.3324 76.2642 20.133 76.7578 13.9499 77.4954C13.939 77.4954 13.9336 77.5062 13.9336 77.5117C13.9336 77.5225 13.939 77.5334 13.9499 77.5334C20.0408 78.3957 26.1805 79.0466 32.3094 79.1659C32.689 79.1768 32.9765 79.1388 33.1718 79.0466Z" fill="white"/>
</g>
</g>
<mask id="mask5_19_9" style="mask-type:luminance" maskUnits="userSpaceOnUse" x="-84" y="-43" width="376" height="226">
<path d="M291.236 -42.543H-83.6562V182.392H291.236V-42.543Z" fill="black" fill-opacity="0.36"/>
</mask>
<g mask="url(#mask5_19_9)">
<mask id="mask6_19_9" style="mask-type:luminance" maskUnits="userSpaceOnUse" x="15" y="22" width="113" height="84">
<path d="M127.741 22.3691H15.2734V105.678H127.741V22.3691Z" fill="white"/>
</mask>
<g mask="url(#mask6_19_9)">
<mask id="mask7_19_9" style="mask-type:luminance" maskUnits="userSpaceOnUse" x="37" y="51" width="8" height="9">
<path d="M37.4863 51.7988H44.6511V59.5874H37.4863V51.7988Z" fill="white"/>
</mask>
<g mask="url(#mask7_19_9)">
<path d="M40.8385 49.4936C44.2121 50.7139 47.5911 51.9397 50.9701 53.16C52.082 53.5668 52.863 53.7675 53.324 53.7729C54.3925 53.7783 55.2983 53.3065 56.0468 52.3519C56.0739 52.3193 56.1064 52.3085 56.1552 52.3193L58.981 53.0136C59.0298 53.0299 59.0461 53.057 59.0298 53.1058C58.2597 55.3024 58.4224 57.3038 59.5234 59.1153C60.5648 60.8347 62.2624 61.9954 64.2801 62.0117C68.1743 62.0442 74.1514 61.9845 82.2165 61.8272C82.2653 61.8272 82.2925 61.8489 82.2979 61.8978C83.2904 67.5765 84.565 73.2443 85.6769 78.8742C85.704 79.0315 85.7854 79.0695 85.9318 79.0152L90.4281 77.106C90.5475 77.0518 90.618 76.9379 90.6125 76.8132C90.3847 71.3243 90.1081 65.83 89.7827 60.3303C89.723 59.316 89.6091 58.573 89.441 58.1065C88.8932 56.5879 87.7596 55.6712 86.0186 55.3404C84.2993 55.0204 82.005 54.9336 80.4972 54.7709C77.3948 54.4509 74.2924 54.1417 71.1737 53.8543C71.1249 53.8489 71.1032 53.8217 71.1249 53.7729L73.2998 48.2515C73.3161 48.2081 73.3107 48.1756 73.289 48.1376L70.9893 44.4603C70.9296 44.3681 70.8103 44.3355 70.7181 44.3952L60.9065 49.9275C60.8739 49.9491 60.836 49.9546 60.798 49.9491C59.6048 49.7322 58.4061 49.5152 57.2074 49.2766C57.1586 49.2658 57.1424 49.2441 57.1641 49.1898L62.577 35.6358C62.6095 35.5382 62.718 35.4839 62.8156 35.5165L64.8875 36.0914C64.9309 36.0968 64.9472 36.1293 64.9309 36.1727C64.714 36.8182 64.5513 37.2738 64.4374 37.545C63.1248 40.8263 61.72 44.2162 60.2393 47.7091C60.2339 47.72 60.2339 47.7308 60.2393 47.7362C60.2502 47.7525 60.261 47.7579 60.2773 47.7525L71.4395 41.6019C71.5154 41.564 71.6022 41.5911 71.6401 41.6562C73.0883 43.8691 74.4931 46.0874 75.849 48.3003C76.4456 49.2766 76.9121 49.9112 77.2483 50.2041C78.3873 51.1858 79.4829 51.2563 81.0016 51.2454C83.784 51.2129 86.561 51.1749 89.3434 51.1261C89.3976 51.1261 89.4247 51.0936 89.4247 51.0393C89.3325 49.5478 89.8912 48.36 90.6831 47.1505C90.6885 47.1396 90.6939 47.1288 90.6939 47.1179C90.6993 47.08 90.6722 47.0366 90.6288 47.0312L81.0396 45.5722C81.0016 45.5667 80.9745 45.5505 80.9582 45.5125C79.5643 42.4101 78.23 39.2643 76.9446 36.0968C76.5812 35.1965 76.2124 34.3883 75.8273 33.6832C73.7825 29.892 69.1886 30.1361 66.634 33.1788C66.6014 33.2113 66.5635 33.2276 66.5147 33.2113L63.9384 32.4954C63.8841 32.4846 63.8624 32.452 63.8733 32.3978C64.1173 31.1069 63.7811 30.071 62.8807 29.3171C62.6041 29.0784 62.1811 28.8615 61.6116 28.6554C58.1349 27.4025 54.6637 26.1496 51.1762 24.9075C49.4894 24.3001 48.3396 24.0994 46.9456 24.9943C46.2731 25.4228 45.9585 25.9218 45.6819 26.6594C45.4487 27.2831 45.0094 28.1672 44.711 28.8994C42.6609 33.9653 40.6215 39.0365 38.6093 44.124C38.273 44.9538 38.094 45.5559 38.0669 45.9247C37.9422 47.6657 39.2384 48.9132 40.8385 49.4936ZM47.2548 28.4384L47.9165 26.974C47.9436 26.9089 48.0141 26.8818 48.0792 26.9035L59.838 31.1232C59.8922 31.1395 59.9031 31.1774 59.8868 31.2262L59.2142 32.7232C59.1925 32.7666 59.16 32.7829 59.1112 32.7666C55.1301 31.4595 51.1925 30.0439 47.2819 28.5198H47.2765C47.2494 28.5089 47.2385 28.471 47.2548 28.4384Z" fill="white"/>
</g>
<mask id="mask8_19_9" style="mask-type:luminance" maskUnits="userSpaceOnUse" x="16" y="51" width="29" height="9">
<path d="M16.6602 51.7988H44.6523V59.5874H16.6602V51.7988Z" fill="white"/>
</mask>
<g mask="url(#mask8_19_9)">
<path d="M124.685 85.0521C124.653 84.987 124.582 84.9599 124.512 84.9653C120.015 85.2582 115.454 86.766 111.494 88.903C108.327 90.6223 105.517 93.0197 103.071 96.1058C103.044 96.1438 103.033 96.1763 103.055 96.2197C103.809 98.2048 104.953 99.9133 106.488 101.345C107.041 101.86 107.73 102.294 108.387 102.739C108.43 102.766 108.425 102.782 108.37 102.777C102.99 102.576 97.6095 102.376 92.2291 102.153C90.385 102.083 89.0074 102.039 88.0799 102.029C77.9212 101.909 67.7407 101.822 57.5766 102.012C57.2132 102.018 56.8715 102.18 56.4755 102.191C56.3833 102.197 56.3779 102.17 56.4538 102.121C59.1495 100.326 60.8851 97.8414 61.6607 94.6793C61.6607 94.6739 61.6607 94.6685 61.6607 94.6631C61.6607 94.6305 61.6281 94.598 61.5956 94.598L55.944 94.6793C55.8626 94.6793 55.7921 94.7282 55.7487 94.7932C54.1379 97.4726 51.8653 98.9641 48.5785 98.4218C45.6497 97.939 43.6212 95.6394 43.171 92.7593C43.171 92.7539 43.171 92.7485 43.171 92.7431C43.171 92.6725 43.2252 92.6183 43.2957 92.6183L46.6856 92.6075C46.7344 92.6075 46.767 92.6346 46.7832 92.678C47.6999 95.5743 51.7026 95.7207 52.5107 92.7105C52.527 92.6617 52.5596 92.64 52.6084 92.64C54.1108 92.6237 55.6511 92.6563 57.0993 92.5641C59.5725 92.4122 62.0512 92.2386 64.5244 92.0542C65.4953 91.9837 66.4607 91.9403 67.4045 91.9458C74.3415 91.9566 81.2839 91.9512 88.221 91.9349C89.5715 91.9349 90.5261 91.8861 91.0847 91.7885C94.377 91.219 97.3329 88.9681 99.1499 86.2291C100.75 83.8155 102.003 81.1904 103.879 79.0263C105.908 76.6832 108.43 75.0669 111.446 74.1666C111.489 74.1612 111.505 74.134 111.505 74.0852C111.581 72.8486 111.375 71.7855 110.903 70.9015C110.562 70.2669 109.688 68.9164 108.284 66.839C106.711 64.5122 105.084 62.2343 103.527 59.8912C102.155 57.8247 100.755 55.7799 99.3126 53.7677C99.3126 53.7623 99.3126 53.7569 99.3126 53.7515C99.3126 53.7352 99.318 53.7243 99.3343 53.7243C100.799 53.7786 102.274 53.8165 103.749 53.8437C104.178 53.8491 104.481 53.784 104.666 53.6538C104.932 53.464 105.094 53.1603 105.17 52.7535C105.582 50.4267 105.631 48.1921 105.311 46.0605C105.17 45.1005 105.008 44.2653 103.907 44.2978C101.26 44.3792 98.8624 45.2632 96.4434 46.4402C96.4271 46.4456 96.4217 46.4565 96.4163 46.4673C96.3892 46.4999 96.4 46.5487 96.4326 46.5704C97.7939 47.4653 98.4936 48.6368 98.5045 50.0904C98.537 52.3196 97.1919 54.1311 95.0387 54.782C94.9844 54.7982 94.9573 54.8416 94.9681 54.8959C95.0007 55.1508 95.1688 55.4816 95.2285 55.6498C96.0963 58.3888 96.9912 61.1278 97.9187 63.856C98.819 66.5028 99.5187 68.618 99.9634 70.9828C100.544 74.0635 99.7519 77.307 98.1302 79.9266C96.2319 82.9857 93.6176 85.1335 90.0867 86.1152C89.2677 86.343 88.5789 86.4623 88.0311 86.4786C86.4799 86.522 84.3429 86.522 81.6148 86.484C80.3619 86.4677 79.4019 86.3809 78.7456 86.2345C74.1571 85.1823 71.136 81.1741 71.4452 76.45C71.5265 75.2676 71.8574 74.1612 72.4377 73.1198C73.9998 70.3482 76.3591 68.7319 79.5158 68.2655C79.5266 68.2655 79.5375 68.2601 79.5483 68.2547C79.5863 68.2275 79.6026 68.1733 79.5754 68.1299C79.0168 67.1862 78.4636 66.2424 77.9049 65.3041C77.7585 65.0546 77.5307 64.7617 77.2215 64.42C77.1944 64.3821 77.151 64.3604 77.1022 64.3658C73.1537 64.4146 69.2106 64.42 65.2675 64.3929C62.2464 64.3712 59.681 63.2702 57.9454 60.7319C57.6796 60.3468 57.4247 59.9454 57.1752 59.5495C57.1481 59.5061 57.1101 59.4844 57.0667 59.4844C54.3169 59.5278 51.5724 59.5386 48.8226 59.5115C46.8158 59.4898 45.8124 61.4858 46.5229 63.2214C46.6693 63.5794 46.9351 63.9482 47.331 64.3333C48.1934 65.1685 49.1697 65.776 50.108 66.4594C50.1189 66.4648 50.1243 66.4757 50.1297 66.4865C50.1351 66.5082 50.1189 66.5407 50.0917 66.5462C48.7792 66.9204 47.5154 67.4248 46.2951 68.0648C42.8347 69.8872 39.6835 72.5286 37.4435 75.7449C34.9648 79.3138 33.2834 83.2568 32.3939 87.5633C32.3451 87.802 32.3071 88.0569 32.28 88.3172C32.2746 88.3661 32.2909 88.3986 32.3505 88.3986C41.6578 88.3986 50.965 88.3932 60.2722 88.3769C62.0729 88.3715 63.5373 87.7423 64.6763 86.4786C67.4316 83.4141 66.195 79.1239 63.6837 76.4175C62.138 74.7524 60.2234 73.6188 57.9454 73.0113C53.0911 71.7259 48.009 73.4289 44.3154 76.6941C41.5818 79.1239 39.7648 82.1938 38.8699 85.9091C38.8537 85.9687 38.8211 85.9904 38.7669 85.9904L36.5865 85.9959C36.5811 85.9959 36.5811 85.9959 36.5757 85.9959C36.5485 85.9904 36.5323 85.9687 36.5377 85.947C37.2211 83.0779 38.4035 80.4365 40.0849 78.0229C43.9357 72.4852 51.6972 68.9543 58.4552 70.7713C62.3007 71.8072 65.5333 74.1557 67.3719 77.7083C68.9502 80.7673 68.8852 84.7158 66.7807 87.5199C64.9529 89.9498 62.3224 90.7851 59.3284 90.7905C52.0389 90.8013 44.7439 90.7959 37.4543 90.7742C37.4055 90.7742 37.3838 90.8013 37.3838 90.8501C37.3513 95.3736 39.217 99.5119 42.851 102.224C42.8618 102.229 42.8618 102.24 42.8673 102.251C42.8673 102.273 42.851 102.289 42.8401 102.289C40.676 102.414 38.5065 102.511 36.3262 102.576C33.88 102.658 31.5207 102.826 29.1125 102.978C25.5383 103.206 21.9857 103.564 18.4331 104.052C18.1456 104.095 17.8744 104.128 17.6141 104.166C17.5978 104.171 17.587 104.187 17.587 104.204C17.5816 104.225 17.5978 104.247 17.6195 104.247C18.1999 104.279 18.7856 104.361 19.3334 104.377C22.2352 104.475 25.1315 104.583 28.0332 104.702C28.9715 104.746 29.937 104.762 30.9187 104.773C33.7878 104.8 36.6624 104.881 39.5316 104.881C59.7407 104.887 79.9497 104.887 100.153 104.876C109.997 104.871 116.728 104.757 124.826 104.22C124.897 104.214 124.94 104.204 124.978 104.171C124.989 104.166 124.994 104.149 124.994 104.138C125 104.111 124.978 104.09 124.951 104.09L119.701 103.39C119.527 103.368 119.516 103.309 119.668 103.216C119.901 103.081 120.162 102.923 120.46 102.75C122.575 101.492 124.154 99.6963 125.287 97.5377C126.507 95.2054 126.92 92.5478 126.589 89.9335C126.372 88.2033 125.596 86.5003 124.685 85.0521ZM103.728 45.9792C103.733 45.9575 103.755 45.9412 103.776 45.9358C103.82 45.9304 103.852 45.9575 103.863 46.0009C104.237 48.089 104.227 50.1718 103.847 52.2545C103.847 52.2708 103.836 52.287 103.825 52.2925C103.798 52.3142 103.76 52.3033 103.738 52.2762C103.614 52.0972 103.494 51.8694 103.391 51.5928C102.675 49.6565 102.784 47.7853 103.728 45.9792ZM120.585 94.1044C118.692 99.0672 112.628 100.081 109.303 95.8997C109.037 95.5634 108.707 94.9831 108.311 94.1424C108.289 94.099 108.3 94.061 108.338 94.0285C109.222 93.2312 110.128 92.4719 111.066 91.7505C111.305 91.5715 111.489 91.4359 111.625 91.3546C111.641 91.3437 111.657 91.3437 111.673 91.3437C111.711 91.3491 111.744 91.3871 111.738 91.4251C111.619 92.3091 111.804 93.0793 112.281 93.7248C113.382 95.2054 115.644 95.2705 116.81 93.8278C117.835 92.5586 117.444 90.8881 116.056 90.0257C115.692 89.7979 115.291 89.7003 114.863 89.7383C114.852 89.7383 114.835 89.7328 114.83 89.722C114.83 89.7057 114.83 89.6895 114.846 89.6786C116.452 88.941 118.101 88.3606 119.815 87.9376C119.869 87.9267 119.918 87.9484 119.945 87.9864C121.1 89.7491 121.328 92.1519 120.585 94.1044Z" fill="white"/>
</g>
<mask id="mask9_19_9" style="mask-type:luminance" maskUnits="userSpaceOnUse" x="15" y="52" width="30" height="7">
<path d="M15.3145 52.916H44.4293V58.47H15.3145V52.916Z" fill="white"/>
</mask>
<g mask="url(#mask9_19_9)">
<path d="M18.7763 55.8232C26.1961 56.7127 33.6375 57.2876 41.1006 57.5479C42.1095 57.5805 42.782 57.4232 43.1346 56.4577C43.3298 55.9262 43.3624 55.4381 43.2268 55.0042C42.8796 53.8814 41.9467 53.773 40.8294 53.8055C32.4931 54.0658 24.1025 54.4672 15.8421 55.4435C15.5709 55.476 15.5709 55.5031 15.8421 55.5357C16.8021 55.6387 17.8434 55.7093 18.7763 55.8232Z" fill="white"/>
</g>
</g>
</g>
<mask id="mask10_19_9" style="mask-type:luminance" maskUnits="userSpaceOnUse" x="23" y="66" width="115" height="82">
<path d="M23.6035 66.8008H137.46V147.339H23.6035V66.8008Z" fill="white"/>
</mask>
<g mask="url(#mask10_19_9)">
<mask id="mask11_19_9" style="mask-type:luminance" maskUnits="userSpaceOnUse" x="-84" y="-43" width="376" height="226">
<path d="M291.236 -42.543H-83.6562V182.392H291.236V-42.543Z" fill="black" fill-opacity="0.36"/>
</mask>
<g mask="url(#mask11_19_9)">
<mask id="mask12_19_9" style="mask-type:luminance" maskUnits="userSpaceOnUse" x="23" y="66" width="115" height="83">
<path d="M137.46 66.8008H23.6035V148.722H137.46V66.8008Z" fill="white"/>
</mask>
<g mask="url(#mask12_19_9)">
<mask id="mask13_19_9" style="mask-type:luminance" maskUnits="userSpaceOnUse" x="29" y="82" width="15" height="5">
<path d="M29.1582 82.0742H43.7916V86.2397H29.1582V82.0742Z" fill="white"/>
</mask>
<g mask="url(#mask13_19_9)">
<path d="M29.1946 84.1015C33.4577 84.6384 37.7154 85.056 41.9622 85.3598C43.7358 85.4845 44.2836 83.0764 42.4829 82.8594C42.1629 82.816 41.767 82.9299 41.409 82.9462C37.3141 83.1469 33.2625 83.5591 29.1946 84.0472C29.1838 84.0472 29.173 84.0581 29.173 84.0743C29.1675 84.0906 29.1838 84.1015 29.1946 84.1015Z" fill="white"/>
</g>
</g>
</g>
</g>
<mask id="mask14_19_9" style="mask-type:luminance" maskUnits="userSpaceOnUse" x="1" y="14" width="125" height="17">
<path d="M1.39844 14.5703H125.977V30.142H1.39844V14.5703Z" fill="white"/>
</mask>
<g mask="url(#mask14_19_9)">
<path d="M126.102 27.2559C118.286 26.7948 110.677 25.1623 103.387 22.2931C99.8456 20.9046 96.4449 19.1365 93.1689 17.2164C91.4821 16.2402 89.7356 15.3127 87.8265 14.8788C86.8285 14.6564 85.798 14.5696 84.7837 14.5859C83.7369 14.6184 82.7498 14.8408 81.7193 14.9981C77.4779 15.6544 73.2419 16.4734 69.0222 17.2761C64.77 18.0897 60.4852 18.8056 56.2112 19.5053C47.6796 20.9046 39.148 22.2768 30.6381 23.7521C26.375 24.4952 22.0902 25.2002 17.8434 26.0789C16.7966 26.2958 15.7606 26.5725 14.703 26.7569C13.6454 26.9413 12.5877 27.1257 11.5301 27.3209L5.0595 28.4871C4.00186 28.6715 2.95507 28.8667 1.90828 29.1162C1.50692 29.2138 1.58285 29.8972 2.00591 29.8593C6.269 29.3983 10.505 28.5684 14.741 27.8904C16.8725 27.5487 19.0257 27.3426 21.1573 27.0281C23.2888 26.7189 25.415 26.3772 27.5357 26.0301C36.0564 24.6362 44.5664 23.1555 53.0763 21.6802C57.3556 20.9371 61.6296 20.2104 65.9144 19.489C70.1992 18.7622 74.5111 18.1764 78.7959 17.5039C80.8406 17.1785 82.8257 16.8639 84.903 16.9073C86.8068 16.9452 88.5099 17.569 90.175 18.4693C93.5865 20.3188 96.933 22.3853 100.621 23.6653C102.438 24.289 104.223 24.9941 106.072 25.5257C107.916 26.0518 109.798 26.4803 111.697 26.8274C115.499 27.5108 119.371 27.9284 123.238 27.9013C124.198 27.8904 125.164 27.8525 126.124 27.7928C126.444 27.7657 126.444 27.2721 126.102 27.2559Z" fill="white"/>
</g>
<mask id="mask15_19_9" style="mask-type:luminance" maskUnits="userSpaceOnUse" x="23" y="95" width="161" height="46">
<path d="M183.28 95.959H23.6035V140.391H183.28V95.959Z" fill="white"/>
</mask>
<g mask="url(#mask15_19_9)">
<path d="M29.2887 107.334C29.6032 107.334 29.9395 107.421 30.2866 107.594C30.6446 107.768 30.9212 107.996 31.111 108.267L39.4637 121.132L37.7498 121.067L46.3193 108.267C46.7532 107.649 47.3173 107.334 48.0116 107.334C48.5594 107.334 49.0529 107.529 49.4868 107.92C49.9207 108.31 50.1377 108.82 50.1377 109.438V129.355C50.1377 129.951 49.9424 130.45 49.5519 130.852C49.1614 131.258 48.6461 131.459 48.0116 131.459C47.3607 131.459 46.8292 131.258 46.4278 130.852C46.0373 130.45 45.842 129.951 45.842 129.355V113.148L47.1871 113.474L40.1579 124.169C39.9518 124.419 39.6915 124.636 39.3769 124.82C39.0732 125.01 38.7586 125.091 38.444 125.059C38.1403 125.091 37.8257 125.01 37.5111 124.82C37.2074 124.636 36.9525 124.419 36.7518 124.169L30.1782 113.777L31.0677 111.955V129.355C31.0677 129.951 30.8832 130.45 30.5253 130.852C30.1619 131.258 29.6792 131.459 29.0717 131.459C28.5076 131.459 28.0358 131.258 27.6615 130.852C27.2981 130.45 27.1191 129.951 27.1191 129.355V109.438C27.1191 108.863 27.3252 108.37 27.7483 107.963C28.1822 107.546 28.692 107.334 29.2887 107.334Z" fill="white"/>
<path d="M63.6318 131.809C61.6792 131.809 59.987 131.407 58.5551 130.594C57.1233 129.769 56.0168 128.663 55.2358 127.274C54.4656 125.875 54.0859 124.291 54.0859 122.523C54.0859 120.457 54.5036 118.694 55.3443 117.229C56.1795 115.77 57.2751 114.659 58.6202 113.888C59.9762 113.107 61.4189 112.717 62.9376 112.717C64.1091 112.717 65.2155 112.955 66.2569 113.433C67.2983 113.91 68.2149 114.572 69.0122 115.407C69.8203 116.248 70.4549 117.219 70.9214 118.314C71.3987 119.415 71.6373 120.587 71.6373 121.829C71.621 122.382 71.4041 122.827 70.9865 123.174C70.5797 123.521 70.1024 123.695 69.5546 123.695H56.4073L55.366 120.245H67.9925L67.2332 120.939V120.006C67.1898 119.345 66.9512 118.748 66.5173 118.227C66.0942 117.696 65.5681 117.273 64.9335 116.969C64.3098 116.654 63.6426 116.492 62.9376 116.492C62.2433 116.492 61.5979 116.589 61.0067 116.774C60.4101 116.947 59.9002 117.262 59.4663 117.707C59.0324 118.141 58.6853 118.726 58.425 119.464C58.1755 120.191 58.0561 121.113 58.0561 122.241C58.0561 123.488 58.3056 124.541 58.8155 125.408C59.3362 126.265 59.9979 126.916 60.8114 127.361C61.6358 127.795 62.5037 128.012 63.4148 128.012C64.2664 128.012 64.9444 127.947 65.4542 127.817C65.9586 127.676 66.3654 127.507 66.6691 127.318C66.9837 127.117 67.2657 126.949 67.5152 126.819C67.9329 126.618 68.3234 126.515 68.6868 126.515C69.1912 126.515 69.6088 126.688 69.9451 127.036C70.2759 127.372 70.4441 127.768 70.4441 128.229C70.4441 128.853 70.1186 129.417 69.4678 129.921C68.8712 130.431 68.0359 130.87 66.9512 131.244C65.8772 131.619 64.7708 131.809 63.6318 131.809Z" fill="white"/>
<path d="M77.3169 131.461C76.7203 131.461 76.2321 131.261 75.8416 130.854C75.4511 130.453 75.2559 129.954 75.2559 129.357V115.147C75.2559 114.555 75.4511 114.056 75.8416 113.65C76.2321 113.248 76.7203 113.042 77.3169 113.042C77.9081 113.042 78.4017 113.248 78.7922 113.65C79.1827 114.056 79.3779 114.555 79.3779 115.147V118.379L79.1393 116.08C79.3996 115.532 79.7251 115.049 80.1156 114.626C80.5169 114.192 80.9725 113.84 81.4824 113.563C81.9868 113.275 82.5237 113.064 83.0878 112.934C83.6627 112.793 84.2431 112.717 84.8234 112.717C85.5177 112.717 86.0926 112.912 86.559 113.303C87.0363 113.693 87.275 114.149 87.275 114.669C87.275 115.423 87.0797 115.966 86.6892 116.296C86.2987 116.633 85.8702 116.795 85.4092 116.795C84.9753 116.795 84.5739 116.72 84.216 116.557C83.8688 116.4 83.462 116.318 83.001 116.318C82.578 116.318 82.1603 116.421 81.7427 116.622C81.3197 116.812 80.9291 117.115 80.5712 117.533C80.224 117.94 79.9312 118.444 79.7034 119.052C79.4864 119.659 79.3779 120.375 79.3779 121.2V129.357C79.3779 129.954 79.1827 130.453 78.7922 130.854C78.4017 131.261 77.9081 131.461 77.3169 131.461Z" fill="white"/>
<path d="M107.287 122.284C107.287 124.166 106.864 125.821 106.029 127.253C105.188 128.684 104.06 129.807 102.645 130.615C101.24 131.413 99.6724 131.809 97.9368 131.809C96.1849 131.809 94.6011 131.413 93.1855 130.615C91.7808 129.807 90.658 128.684 89.8228 127.253C88.9821 125.821 88.5645 124.166 88.5645 122.284C88.5645 120.391 88.9821 118.726 89.8228 117.294C90.658 115.863 91.7808 114.745 93.1855 113.932C94.6011 113.124 96.1849 112.717 97.9368 112.717C99.6724 112.717 101.24 113.124 102.645 113.932C104.06 114.745 105.188 115.863 106.029 117.294C106.864 118.726 107.287 120.391 107.287 122.284ZM103.165 122.284C103.165 121.113 102.927 120.104 102.449 119.247C101.983 118.379 101.354 117.707 100.562 117.229C99.7646 116.741 98.8913 116.492 97.9368 116.492C96.9659 116.492 96.0818 116.741 95.2899 117.229C94.5089 117.707 93.8798 118.379 93.4025 119.247C92.936 120.104 92.7082 121.113 92.7082 122.284C92.7082 123.429 92.936 124.432 93.4025 125.3C93.8798 126.157 94.5089 126.819 95.2899 127.296C96.0818 127.773 96.9659 128.012 97.9368 128.012C98.8913 128.012 99.7646 127.773 100.562 127.296C101.354 126.819 101.983 126.157 102.449 125.3C102.927 124.432 103.165 123.429 103.165 122.284Z" fill="white"/>
<path d="M113.727 131.461C113.087 131.461 112.518 131.26 112.013 130.853C111.503 130.452 111.254 129.953 111.254 129.356V109.483C111.254 108.876 111.449 108.377 111.84 107.986C112.241 107.585 112.751 107.379 113.358 107.379H123.251C124.45 107.379 125.573 107.699 126.614 108.333C127.655 108.957 128.491 109.825 129.131 110.937C129.782 112.054 130.107 113.334 130.107 114.777C130.107 115.645 129.923 116.491 129.565 117.315C129.217 118.14 128.74 118.888 128.133 119.55C127.525 120.217 126.842 120.738 126.093 121.112L126.115 120.309C126.766 120.656 127.297 121.069 127.721 121.546C128.138 122.012 128.464 122.511 128.697 123.043C128.941 123.58 129.093 124.16 129.152 124.778C129.239 125.359 129.293 125.863 129.326 126.297C129.369 126.731 129.44 127.1 129.543 127.404C129.641 127.696 129.847 127.924 130.15 128.098C130.655 128.391 130.964 128.814 131.083 129.378C131.213 129.942 131.083 130.441 130.693 130.875C130.443 131.178 130.129 131.374 129.738 131.461C129.348 131.531 128.957 131.531 128.567 131.461C128.176 131.374 127.851 131.26 127.59 131.113C127.2 130.886 126.809 130.544 126.419 130.094C126.028 129.649 125.708 129.047 125.464 128.293C125.231 127.545 125.117 126.568 125.117 125.364C125.117 124.974 125.041 124.616 124.9 124.279C124.77 123.949 124.575 123.667 124.314 123.433C124.065 123.189 123.75 123.01 123.36 122.891C122.969 122.761 122.514 122.696 121.993 122.696H115.029L115.55 121.893V129.356C115.55 129.953 115.387 130.452 115.072 130.853C114.752 131.26 114.302 131.461 113.727 131.461ZM115.072 119.138H123.099C123.501 119.138 123.902 118.953 124.293 118.574C124.683 118.199 124.998 117.684 125.247 117.033C125.508 116.372 125.638 115.656 125.638 114.885C125.638 113.877 125.361 113.03 124.813 112.347C124.276 111.669 123.707 111.327 123.099 111.327H115.137L115.55 110.221V119.962L115.072 119.138Z" fill="white"/>
<path d="M138.428 129.357C138.428 129.953 138.233 130.452 137.842 130.854C137.452 131.26 136.958 131.461 136.367 131.461C135.77 131.461 135.282 131.26 134.892 130.854C134.501 130.452 134.306 129.953 134.306 129.357V115.146C134.306 114.555 134.501 114.056 134.892 113.649C135.282 113.248 135.77 113.042 136.367 113.042C136.958 113.042 137.452 113.248 137.842 113.649C138.233 114.056 138.428 114.555 138.428 115.146V129.357ZM136.345 110.807C135.564 110.807 135.005 110.688 134.675 110.438C134.355 110.194 134.197 109.744 134.197 109.093V108.442C134.197 107.781 134.371 107.331 134.718 107.097C135.076 106.853 135.629 106.729 136.367 106.729C137.175 106.729 137.739 106.859 138.059 107.119C138.374 107.369 138.536 107.808 138.536 108.442V109.093C138.536 109.76 138.363 110.216 138.016 110.46C137.679 110.693 137.126 110.807 136.345 110.807Z" fill="white"/>
<path d="M157.745 105.99C158.336 105.99 158.83 106.185 159.22 106.576C159.611 106.967 159.806 107.476 159.806 108.095V129.356C159.806 129.953 159.611 130.452 159.22 130.853C158.83 131.26 158.336 131.46 157.745 131.46C157.148 131.46 156.66 131.26 156.269 130.853C155.879 130.452 155.684 129.953 155.684 129.356V127.685L156.421 127.989C156.421 128.282 156.259 128.64 155.944 129.074C155.624 129.497 155.19 129.915 154.642 130.332C154.089 130.739 153.438 131.086 152.69 131.374C151.952 131.661 151.149 131.807 150.282 131.807C148.687 131.807 147.25 131.406 145.964 130.593C144.69 129.768 143.675 128.64 142.927 127.208C142.173 125.776 141.799 124.138 141.799 122.283C141.799 120.39 142.173 118.725 142.927 117.293C143.675 115.862 144.684 114.744 145.943 113.931C147.201 113.123 148.595 112.716 150.13 112.716C151.111 112.716 152.017 112.868 152.842 113.171C153.677 113.464 154.404 113.838 155.011 114.299C155.619 114.75 156.085 115.211 156.421 115.688C156.752 116.154 156.92 116.55 156.92 116.881L155.684 117.315V108.095C155.684 107.503 155.879 107.004 156.269 106.598C156.66 106.196 157.148 105.99 157.745 105.99ZM150.781 128.011C151.789 128.011 152.674 127.767 153.427 127.273C154.192 126.769 154.783 126.08 155.206 125.212C155.64 124.333 155.857 123.357 155.857 122.283C155.857 121.171 155.64 120.179 155.206 119.311C154.783 118.443 154.192 117.76 153.427 117.25C152.674 116.746 151.789 116.491 150.781 116.491C149.793 116.491 148.926 116.746 148.177 117.25C147.423 117.76 146.832 118.443 146.398 119.311C145.975 120.179 145.769 121.171 145.769 122.283C145.769 123.357 145.975 124.333 146.398 125.212C146.832 126.08 147.423 126.769 148.177 127.273C148.926 127.767 149.793 128.011 150.781 128.011Z" fill="white"/>
<path d="M172.954 131.809C171.002 131.809 169.309 131.407 167.877 130.594C166.446 129.769 165.339 128.663 164.558 127.274C163.788 125.875 163.408 124.291 163.408 122.523C163.408 120.457 163.826 118.694 164.667 117.229C165.502 115.77 166.597 114.659 167.942 113.888C169.298 113.107 170.741 112.717 172.26 112.717C173.431 112.717 174.538 112.955 175.579 113.433C176.621 113.91 177.537 114.572 178.334 115.407C179.143 116.248 179.777 117.219 180.244 118.314C180.721 119.415 180.96 120.587 180.96 121.829C180.943 122.382 180.726 122.827 180.309 123.174C179.902 123.521 179.425 123.695 178.877 123.695H165.73L164.688 120.245H177.315L176.555 120.939V120.006C176.512 119.345 176.273 118.748 175.84 118.227C175.416 117.696 174.89 117.273 174.256 116.969C173.632 116.654 172.965 116.492 172.26 116.492C171.566 116.492 170.92 116.589 170.329 116.774C169.732 116.947 169.223 117.262 168.789 117.707C168.355 118.141 168.008 118.726 167.747 119.464C167.498 120.191 167.378 121.113 167.378 122.241C167.378 123.488 167.628 124.541 168.138 125.408C168.658 126.265 169.32 126.916 170.134 127.361C170.958 127.795 171.826 128.012 172.737 128.012C173.589 128.012 174.267 127.947 174.776 127.817C175.281 127.676 175.688 127.507 175.991 127.318C176.306 127.117 176.588 126.949 176.837 126.819C177.255 126.618 177.646 126.515 178.009 126.515C178.513 126.515 178.931 126.688 179.267 127.036C179.598 127.372 179.766 127.768 179.766 128.229C179.766 128.853 179.441 129.417 178.79 129.921C178.193 130.431 177.358 130.87 176.273 131.244C175.2 131.619 174.093 131.809 172.954 131.809Z" fill="white"/>
</g>
<mask id="mask16_19_9" style="mask-type:luminance" maskUnits="userSpaceOnUse" x="54" y="0" width="138" height="103">
<path d="M54.1504 0.445312H191.817V102.901H54.1504V0.445312Z" fill="white"/>
</mask>
<g mask="url(#mask16_19_9)">
<path d="M102.362 8.80472C103.062 9.41218 103.311 9.91659 103.729 9.05421C104.445 7.57352 103.924 4.46026 102.769 5.73485C102.709 5.80536 102.65 5.87587 102.563 5.92469C102.845 5.14366 103.176 4.95925 104.098 4.98637C110.08 5.18705 110.351 5.07315 117.37 5.15993C119.051 5.1762 118.259 3.87992 119.99 3.90161C123.406 3.94501 129.427 4.03721 133.083 3.59788C141.24 2.6216 144.283 0.452087 150.493 0.560563C157.598 0.690734 158.9 13.2414 151.578 15.0855C151.301 15.156 151.003 15.1017 150.726 15.1451C150.536 15.1777 150.352 15.2916 150.173 15.3675C150.216 15.6604 150.102 15.4922 151.122 15.9045C159.648 19.3703 159.442 19.0502 159.909 20.0536C160.245 20.7859 159.719 22.4672 159.062 22.8523C158.623 23.1127 157.918 23.0367 157.316 23.0367C158.987 27.0558 162.463 36.6776 163.895 40.7942C165.197 44.5366 164.676 44.862 166.043 44.9759C175.182 45.7082 174.097 46.6573 175.149 46.1312C176.939 45.2417 180.036 44.5692 181.701 45.8437C184.099 47.6824 184.928 50.6926 184.901 51.8967C184.885 52.7265 186.832 53.7354 188.817 56.8323C189.739 58.2805 190.602 59.772 191.426 61.2798C191.947 62.2236 191.67 63.1294 190.293 63.3572C183.882 64.4202 181.962 63.5144 183.036 64.6534C191.963 74.1396 190.211 93.1988 175.838 99.0348C174.726 99.4904 175.106 99.0511 173.913 99.8104C175.328 100.174 182.2 100.098 186.718 100.467L186.214 100.803C187.651 101.215 187.592 101.112 187.581 101.372C179.554 102.224 117.592 102.365 117.592 101.915C120.57 101.741 147.792 101.09 149.034 100.754C145.931 99.9406 108.789 100.027 131.884 99.3982C132.898 99.3711 140.171 99.1324 141.18 99.0077C140.86 98.6985 141.05 98.7528 135.171 98.7853C124.258 98.8396 112.033 98.8775 122.929 98.4057C122.929 97.809 92.5831 98.5684 92.5831 97.9067C99.07 97.7223 96.3635 97.8199 102.948 97.5704L102.959 97.3643C98.4733 97.1528 65.3177 97.4999 65.3015 96.8599C67.1727 96.567 66.5869 96.7677 68.3442 96.67C69.429 96.6104 69.6893 96.5073 72.3687 96.3609C76.328 96.1439 75.5958 96.2524 76.3226 96.0355C75.2867 95.3521 72.9599 95.39 69.7598 91.8103C65.73 87.2977 65.7842 82.5628 65.4371 78.6305C64.6777 78.3648 64.1625 77.741 63.8262 76.819C58.2397 77.3288 56.9597 78.1587 55.9454 78.1749C54.9692 78.2021 54.3725 77.3288 54.6817 76.4068C56.9434 69.8006 57.0573 70.2942 56.3305 69.6542C53.8464 67.463 54.2098 67.9131 56.0973 62.0771C56.5312 60.7483 57.6485 60.9436 58.9339 60.9436C57.9414 58.7795 58.538 56.9679 59.7746 55.2594C60.8648 53.7516 61.0547 53.5293 62.0309 53.3231C64.9815 52.694 65.9306 53.5184 66.9449 52.5259C71.4683 48.1109 72.8351 47.8126 76.0948 45.7082C76.0297 45.1007 75.0806 44.7481 74.8473 42.1122C74.7172 40.6532 74.1314 38.9176 74.1748 35.8911C74.2073 33.0816 79.2081 34.6491 92.6265 33.1575C92.8869 33.1358 93.1363 33.0653 93.3967 33.0653C95.0076 33.0545 96.575 32.7182 98.175 32.5284C102.698 31.986 107.26 29.8653 110.747 30.0551C113.101 30.1853 115.368 31.6063 115.851 34.0145C116.448 36.965 115.808 40.203 115.808 40.2464C115.867 41.163 115.423 41.7054 114.495 41.9549C114.766 43.1481 115.314 44.3522 113.893 45.6973C112.651 46.8688 108.572 48.4851 106.788 54.115C105.237 58.9964 107.358 64.7402 113.362 67.2406C116.117 68.3958 115.558 68.8514 116.524 68.8514C124.974 68.8894 124.925 69.5348 129.449 64.6643C129.676 64.4202 129.85 64.0839 129.931 63.7639C132.866 51.7936 132.003 49.6458 127.925 34.5731C127.599 33.3582 126.552 30.4348 126.693 27.788C126.715 27.2619 126.33 24.0456 128.505 20.8455C130.647 17.6726 132.866 17.3255 134.238 16.5662C134.531 15.1343 134.162 14.516 132.876 13.9465C128.293 11.918 123.477 12.2217 119.648 11.7986C118.568 11.6793 118.384 11.7878 113.568 13.5343C112.711 13.8434 112.065 12.7912 112.288 12.1241C112.543 11.4136 112.722 11.2563 116.274 10.2312C116.144 9.88405 115.895 9.95998 115.694 9.95998C102.373 9.97083 102.856 10.4264 102.373 8.78845L102.362 8.80472ZM119.707 78.2509C127.312 75.8319 131.211 65.8629 132.513 57.9442C133.126 54.2343 133.088 56.2683 133.066 48.4472C133.055 46.2397 128.857 32.1704 128.554 30.7385C127.398 25.2768 128.57 22.9337 129.405 20.9215C129.27 20.9594 129.199 20.9594 129.177 20.992C128.103 22.1364 127.485 24.5717 127.312 26.3398C126.569 34.0307 133.815 43.94 131.873 57.9008C130.837 65.3748 127.073 75.1051 120.109 77.8712C119.957 77.9309 119.854 78.1315 119.724 78.2617L119.143 78.1858C119.214 78.598 119.301 78.4678 119.707 78.2509ZM131.721 28.0537C130.994 28.0212 131.385 27.4788 131.2 26.7249C130.615 24.3656 131.238 21.0191 133.977 19.1533C136.901 17.1736 139.835 17.5153 145.975 17.4828C147 17.4719 146.973 18.2746 147.922 20.4116C155.667 37.7894 155.201 37.5237 155.993 37.6376C157.132 37.7894 158.254 38.0769 159.393 38.142C160.89 38.2396 160.934 39.6986 161.557 40.8159C163.825 44.8946 163.662 44.3359 164.258 44.8892L164.421 44.7753C163.895 42.2912 160.711 33.8138 159.789 31.308C156.134 21.4042 155.727 19.2672 146.241 16.9458C144.576 16.5445 139 16.4143 135.908 17.2604C132.893 18.0848 130.658 20.4984 129.975 23.2591C129.622 24.691 129.34 26.1229 129.573 27.5873C129.709 28.4334 129.72 29.2795 129.996 30.1256C129.996 30.131 134.33 45.079 134.536 47.9319C134.986 53.9523 134.487 56.5232 133.11 62.2832C132.09 66.5518 129.487 72.7783 125.967 76.0705C123.054 78.8041 122.924 78.8909 122.446 79.0536C119.398 80.1329 117.359 80.6644 114.137 80.415C111.04 80.1763 105.221 80.415 99.6557 80.0787C97.432 79.9431 95.1974 80.057 92.9628 80.057C93.9987 80.4367 122.094 80.979 122.105 80.979C123.466 81.0116 124.768 80.7458 126.07 80.3933C133.175 78.5004 137.953 73.0278 141.565 66.5843C146.718 57.4073 150.043 45.8709 147.526 35.7881C145.704 28.4931 141.164 21.1926 141.956 19.1533C142.921 20.4225 147.222 31.167 148.388 35.1155C150.715 43.0017 149.115 49.7706 148.801 52.6506C149.847 52.336 151.019 49.9333 155.027 47.2865C160.098 43.94 162.084 45.0627 163.288 44.7861C162.702 43.9292 162.653 43.94 161.818 44.1298C160.283 44.4715 158.683 43.9129 155.797 45.578C155.651 45.6648 155.466 45.6973 155.304 45.7515L155.233 45.5888C158.151 43.2837 160.576 43.5441 162.159 43.3163C162.029 42.8715 161.774 42.9203 161.503 42.9312C157.251 43.1047 158.563 42.8173 154.642 44.2003L154.561 44.0268C158.997 41.1522 159.382 42.5841 161.514 41.8681C160.305 41.2335 158.97 41.6566 157.712 41.5318C156.367 41.4017 155.26 42.4322 153.942 42.5949C154.832 41.6891 155.949 41.2769 157.126 40.8864C158.347 40.4796 159.589 40.7291 160.885 40.5827C160.494 40.2301 160.494 40.241 158.911 40.1976C156.003 40.1271 157.734 39.9481 154.772 40.6098C154.132 40.7562 153.574 41.2335 152.831 41.0654C154.572 39.525 154.962 39.5901 156.562 38.9718C156.519 38.7223 156.6 38.8091 151.572 37.8057C152.565 37.3664 153.639 37.9033 154.675 37.4694C154.078 36.2653 151.849 31.1073 151.355 29.9683C146.035 17.5153 146.707 17.5587 145.085 18.0143L152.5 35.7555C152.055 35.7013 151.881 35.8748 151.551 35.1155C144.18 17.7051 145.199 17.8516 143.843 17.8624C140.068 17.8787 131.575 17.3689 131.51 24.9242C131.531 25.011 131.504 28.1297 131.721 28.0537ZM149.414 78.9668C144.299 79.8672 145.161 79.7533 143.87 79.9702C142.807 80.1438 141.782 79.8888 141.43 78.88C141.083 77.8983 141.386 78.1641 140.215 78.5275C138.376 79.1078 134.796 80.2522 133.234 80.5994C125.088 82.3892 116.497 81.158 112.488 81.554C111.979 83.7777 112.141 83.5716 110.563 83.718C109.082 83.8591 109.185 84.4286 108.079 85.9364C107.341 86.9452 106.316 87.3845 105.08 87.2489C103.875 87.1079 102.693 87.2923 101.5 87.3954C95.5011 87.9106 95.5065 87.9649 95.0184 88.3445C94.3025 88.8923 93.4455 88.7622 92.6102 88.7893C92.0136 88.8056 91.6719 88.4259 91.2923 88.0733C91.238 88.0245 91.135 88.0245 90.9885 87.9811C90.7662 90.1073 91.0319 90.5954 89.9309 90.6551C88.7485 90.7147 88.7485 92.971 84.084 95.1188C82.1586 95.9975 85.3261 95.2327 105.709 94.929C116.041 94.7771 127.078 95.07 127.751 95.4334C125.044 95.4822 108.383 95.7588 103.81 96.2524C105.497 96.6375 114.826 96.1277 120.261 96.6375C124.052 96.99 151.372 97.4294 151.382 97.4294C149.343 98.0856 147.277 97.7873 145.221 97.9067L138.962 98.2755C139.081 98.3894 139.211 98.4328 139.342 98.4382C140.524 98.4816 141.706 98.6063 142.867 98.5412C148.172 98.2592 160.391 99.3657 161.601 98.9209C159.746 97.7765 159.236 97.5595 158.433 96.9684C150.271 90.8612 149.934 81.7275 149.414 78.9668ZM63.1103 58.7469L63.2567 58.8771C63.3706 58.7957 63.4954 58.7361 63.5821 58.633C74.9667 44.5963 93.5865 48.4146 95.1703 62.1151C95.4469 64.5124 94.6821 69.6054 89.5241 72.5613C87.5227 73.7057 86.2481 73.7437 83.4169 74.4C84.8813 76.5207 86.2102 78.7932 89.9309 79.9594C90.4353 80.1166 91.4875 80.057 91.9919 79.8021C91.4821 79.7641 91.0156 79.7533 90.5655 79.6827C89.3072 79.4875 88.5478 77.1987 90.1099 76.6508C91.7424 76.0814 92.4204 76.3037 96.1628 76.3471C111.702 76.5532 109.153 76.6237 113.405 76.6292C115.672 76.64 117.939 76.3959 120.206 76.3797C121.438 76.3742 122.403 75.9241 123.303 75.1322C126.021 72.7349 128.293 68.743 128.787 66.644C124.459 69.9742 125.874 69.6867 109.679 69.5403C106.338 69.5077 103.029 66.9368 101.353 64.5233C97.2421 58.5896 98.5276 51.338 103.122 47.2865C104.591 46.001 106.642 45.3014 107.743 44.4824C108.795 43.6959 108.817 42.5841 107.743 41.841C105.85 40.523 102.243 41.4017 98.5439 41.5481C96.9059 41.6186 89.5946 42.7468 82.8149 44.8295C75.086 47.1997 66.8201 51.5713 63.1103 58.7469ZM142.661 78.6576C147.526 75.9403 150.84 61.3666 163.651 61.7571C169.568 61.9361 178.664 64.6806 190.005 62.7551C190.943 62.6032 191.144 62.2887 190.737 61.4371C189.403 58.6276 187.331 55.5469 185.048 53.4262C184.641 54.0554 184.668 54.2181 185.238 54.6682C186.762 55.8723 187.852 57.4018 188.443 59.2459C188.611 59.7558 188.969 60.2656 188.779 60.8785C188.204 60.6507 188.058 57.8412 184.901 55.4167C183.73 54.511 183.876 55.9157 182.152 55.2703C179.884 54.4242 175.464 51.8316 173.777 49.5536C173.002 48.5014 166.233 47.6987 165.3 47.3299C168.136 47.1617 170.854 47.715 173.56 48.4689C173.956 47.46 174.347 46.8905 173.56 46.717C171.998 46.3861 170.328 45.8546 165.403 45.7515C161.818 45.6702 158.916 45.8275 155.797 47.7258C144.966 54.294 143.567 66.3945 142.135 78.2346C142.032 79.0699 143.041 79.5092 143.973 79.3194C149.278 78.2292 147.727 78.9017 149.338 78.0773L149.262 77.9254C147.976 78.2292 144.505 79.341 142.661 78.6576ZM55.6254 77.1227C58.8255 74.7146 58.9339 71.9647 63.1428 72.4149C77.2338 73.8956 85.158 75.5173 88.4393 71.3627C93.0496 65.5158 91.2977 56.0133 86.7309 53.1333C86.6061 53.052 86.5247 52.9055 86.4271 52.797C87.5065 53.0031 88.4719 53.4154 89.3343 54.0011C92.0245 55.8506 92.3607 56.8161 93.6299 58.5571C93.516 57.494 91.7316 54.6303 88.8949 52.7591C80.4935 47.2322 63.7991 49.9767 55.8424 75.1213C55.658 75.7017 55.2512 76.2766 55.6254 77.1227ZM149.533 15.1994C148.275 14.4292 147.282 14.1038 145.785 12.1512C145.172 11.3485 144.527 9.48811 144.63 7.6603C144.836 4.02094 145.931 3.21822 147.439 1.52057L147.369 1.35786C132.54 4.33009 138.213 4.48738 121.286 4.53077C119.355 4.5362 123.054 4.94298 120.559 11.0827C122.3 11.5763 123.363 10.8658 130.522 12.3953C131.493 12.6014 134.547 13.4366 134.916 15.2319C135.003 15.6712 135.171 16.0997 135.306 16.5607L137.064 16.2733C136.494 15.118 135.968 13.9139 134.428 13.057C129.682 10.421 123.52 11.2454 121.232 10.5891C121.438 9.70507 121.508 8.82641 121.985 8.08335C130.441 8.37624 135.903 9.81354 140.481 11.2725C146.214 13.1004 147.369 14.4834 148.112 15.0692L147.889 16.1214L149.533 15.1994ZM178.409 73.1308C170.838 55.151 147.526 66.9748 154.848 85.7194C156.285 89.413 158.813 92.1629 162.436 93.7737C173.197 98.5684 183.562 85.3777 178.409 73.1308ZM183.686 87.8781C183.046 87.7099 182.428 92.2659 176.793 96.1439C171.868 99.5446 167.144 98.5521 166.764 98.5358C157.831 98.129 148.009 84.4936 152.543 71.4332C154.371 66.1612 156.942 64.5775 157.538 63.7151C156.003 64.4094 154.599 65.2663 153.655 66.6385C149.663 72.5179 149.484 80.0461 151.518 85.996C157.549 103.656 178.165 103.802 183.686 87.8781ZM110.444 38.6789C110.867 36.8674 111.084 35.0558 110.943 33.2226C110.883 32.3982 110.308 31.769 109.538 31.4707C108.193 30.9283 106.902 31.7528 100.513 33.4341C96.4394 34.5026 92.4638 34.6436 88.2658 34.9691C74.7172 36.0321 74.7009 35.5494 74.728 36.1786C74.7497 36.6938 74.7334 36.4118 87.1756 35.7284C100.328 35.007 103.718 32.8592 108.209 31.8938C109.462 31.6226 110.514 32.4633 110.4 33.624C110.373 33.9331 110.427 34.264 110.4 34.5731C109.993 38.9284 110.134 38.7657 109.109 38.7983C101.641 39.0857 87.2461 41.0871 77.1416 44.5366C76.9246 44.6017 76.6318 44.6614 76.7185 44.9651C76.8216 45.3122 77.1308 45.1712 77.3802 45.1441C77.3911 45.1441 90.739 40.1705 109.066 39.4057C112.852 39.2484 113.888 39.9915 115.135 40.5773C115.358 40.0783 114.989 39.921 114.696 39.7908C112.836 38.9989 113.584 39.3515 110.444 38.6789ZM67.9971 79.0644C67.0154 84.8408 71.4846 92.5697 77.684 92.4883C82.6956 92.4286 85.4075 89.0822 86.6929 84.3743C85.2013 83.5662 85.8685 84.6401 84.3932 87.0157C79.8209 94.3866 69.7598 90.9968 69.4452 79.8672C69.429 79.238 68.6642 79.2163 67.9971 79.0644ZM77.8792 83.4035C77.3043 83.5824 76.7782 83.9079 76.3118 83.8482C74.0338 83.5499 73.947 81.8251 73.5456 80.0733C73.1063 79.8563 72.7483 79.9322 72.5422 80.4855C72.3958 79.9322 72.1788 79.6231 71.631 79.7533C71.1971 81.2123 72.2873 86.8313 76.6372 87.5635C79.2786 88.0083 81.562 85.9472 82.1478 83.6584C81.3559 83.5499 80.6345 83.4794 79.9186 83.3221C79.4359 83.2191 79.2352 83.3167 79.1592 83.8157C79.0453 84.5479 77.7979 84.5587 77.9009 83.7126C77.9172 83.5879 77.8901 83.4794 77.8792 83.4035ZM119.398 77.4753C119.312 76.8895 119.398 77.779 93.2665 77.2529C91.9648 77.2258 90.2726 76.9329 90.1099 77.0468C87.577 78.8583 91.4278 78.3973 112.342 78.7878C116.247 78.8638 118.248 77.8929 119.398 77.4753ZM150.639 14.2719C152.348 14.3695 153.612 13.5831 154.496 12.1783C156.329 9.26574 156.307 5.84875 154.116 3.11517C152.586 1.21684 150.504 0.555138 148.182 1.96532C143.008 5.13281 145.069 14.4183 150.639 14.2719ZM179.89 45.8004C175.578 45.3773 172.844 47.9156 174.791 50.0472C176.099 51.4682 181.262 54.7116 182.933 54.8201C183.833 54.8852 184.381 54.191 184.158 53.3882C183.486 54.4079 182.971 54.5272 181.821 53.9523C180.21 53.1387 180.676 53.5998 176.5 50.519C176.175 50.275 175.909 49.9658 175.61 49.6838L175.724 49.5373C176.744 50.1665 177.693 50.9421 179 51.1211C178.908 50.5516 178.881 50.0689 178.735 49.6133C178.284 48.176 178.496 46.9122 179.89 45.8004ZM70.1286 79.5038C70.0961 79.6827 70.0147 79.8726 70.0364 80.057C70.1395 81.1092 70.172 82.1777 70.4161 83.1919C72.2168 90.6605 81.166 92.6944 84.2305 84.6943C84.4691 84.0543 84.2739 83.8862 83.5742 83.9947C83.1674 84.7269 82.8583 85.4862 82.3756 86.1154C78.2264 91.5391 71.1537 87.455 70.9748 80.3119C70.9585 79.6231 70.9205 79.6068 70.1286 79.5038ZM66.2289 73.4942C65.7137 73.223 65.3937 73.3044 65.2906 73.6461C63.7394 78.5437 63.9618 77.8061 72.0758 79.097C73.5619 79.3302 74.5599 79.5526 75.7097 79.6936C77.5538 79.9105 79.7721 80.019 80.065 80.1004C81.2203 80.415 82.3918 80.3553 83.5634 80.3282C84.5071 80.3065 85.1525 79.7424 85.6949 79.0482C86.1451 78.4841 85.4942 78.1153 84.5993 77.28C84.8054 78.2671 85.1688 78.6685 84.1166 79.0916C81.7193 80.0461 68.5449 77.6488 66.2289 77.2854C64.8784 77.0685 65.4696 75.9566 66.2289 73.4942ZM91.7045 86.6794C91.1458 87.1784 91.1187 87.4279 91.6557 87.7208C92.518 88.2035 92.3499 87.7316 98.9832 87.0049C101.538 86.7282 102.742 86.7011 103.246 86.5547C104.987 86.0503 104.716 86.9181 105.747 86.6686C107.417 86.2564 107.444 85.9852 110.238 81.3207C109.315 81.1092 109.185 81.1309 108.773 81.7601C108.426 82.2807 106.332 86.1425 105.345 85.3994C104.651 84.8733 105.286 85.1879 93.9879 86.3648C93.6896 86.4028 93.4726 86.4733 93.3587 86.8259C93.0658 87.8184 92.2468 87.0482 91.7045 86.6794ZM88.6888 88.9628C87.9729 89.9608 87.7288 90.7147 86.0583 92.3256C83.1403 95.1351 78.4325 96.3121 73.8277 93.6653C68.6642 90.6876 66.3428 84.0814 66.6954 79.6339C66.7822 78.5546 66.2289 78.7282 66.1367 78.9505C66.0608 79.1404 65.7679 82.9153 67.292 86.6957C70.2697 94.0612 76.5775 96.7243 81.5457 95.3683C85.4942 94.2998 88.1844 91.1703 88.6888 88.9628ZM180.427 95.6992C184.044 92.9927 187.478 87.5255 187.874 80.1438C187.939 79.0644 187.668 77.9743 187.64 76.8895C187.581 74.2427 186.013 68.4555 181.788 64.3172C181.598 64.1273 181.354 63.905 180.958 64.2629C182.054 65.4995 183.193 66.6982 184.028 68.1301C187.678 74.3566 188.145 81.3804 185.878 87.3574C184.467 91.0564 183.605 91.7561 180.427 95.6992ZM58.4187 62.7388C57.6268 65.109 57.3502 65.6514 56.8675 68.1626C56.8404 68.2982 57.0031 68.5152 57.1441 68.6182C57.5129 68.9111 58.3916 66.5518 61.0384 61.7788C58.4621 61.5131 57.5563 61.1171 56.7699 62.0663C56.4932 62.4026 55.2295 67.0074 55.2187 67.0182C55.1753 67.4738 56.157 68.6128 56.4173 67.2135C56.5475 66.4975 56.6614 65.2717 57.4695 63.4439C57.6051 63.1294 57.8058 62.7226 58.4187 62.7388ZM99.2706 81.3912C98.5981 80.7892 98.354 81.7601 97.5784 82.3241C96.613 83.0238 96.8354 83.2733 91.5092 82.9533C82.2996 82.4001 81.8115 81.7546 81.4101 82.5302C81.3667 82.617 81.5403 82.9262 81.665 82.9804C82.0827 83.1485 82.522 83.3058 82.9613 83.3492C82.9722 83.3492 91.4224 83.8916 91.9811 83.9025C94.1452 83.9513 98.3269 85.0469 99.2706 81.3912ZM109.131 48.7509L108.936 48.637C106.88 50.8716 105.286 53.3286 105.21 56.5015C105.15 58.85 105.107 61.7571 108.166 65.0928C109.668 66.7253 111.404 67.9999 113.514 68.6996C113.888 68.8189 114.316 68.9545 114.756 68.7864C113.877 67.783 111.848 67.8589 109.256 65.3856C105.795 62.0988 105.052 57.6839 106.186 53.8221C106.831 51.6201 107.916 50.3618 109.131 48.7509ZM62.1611 58.8391L65.8005 53.6432C64.7754 53.5347 63.8587 53.8818 62.5082 53.8655C61.5645 53.8493 61.136 54.3971 60.6533 55.1238C61.8953 55.9862 62.3347 57.1957 62.1611 58.8391ZM148.361 16.7831C149.63 17.6346 148.784 16.6638 154.496 19.6469C155.043 19.9397 155.277 20.4659 156.416 21.7784C157.142 22.6028 158.808 22.7601 159.122 21.6211C159.247 21.1981 159.106 21.0625 158.347 20.7045C148.768 16.2678 149.587 16.4143 148.361 16.7831ZM95.5445 85.4265C96.8896 85.4862 95.5608 85.5676 99.7859 85.1011C105.139 84.5045 105.497 84.6672 105.899 83.9784C106.229 83.4197 106.495 82.8123 106.696 82.194C106.831 81.7438 106.642 81.554 106.105 81.375C106.452 83.5499 106.891 83.2299 99.3791 84.2279C96.0706 84.6672 95.4306 84.3309 95.5445 85.4265ZM118.731 7.02029C118.01 6.94436 118.731 7.00402 110.238 6.89012C104.336 6.81419 104.51 6.65147 104.347 7.15046C104.993 7.35114 117.652 7.8664 118.173 7.8664C118.829 7.8664 118.834 7.83928 118.731 7.02029ZM80.4176 76.5207C80.1843 75.9078 79.7179 75.7071 79.2948 75.501C77.4779 74.6224 75.5253 74.4325 73.5456 74.5898C73.269 74.6115 73.0087 74.8013 72.5693 74.9912C72.9382 75.2081 73.1117 75.3654 73.3124 75.4142C76.008 76.1139 75.7694 76.0434 80.0108 76.6237C80.1084 76.64 80.2169 76.5803 80.4176 76.5207ZM146.707 16.2895C146.018 14.5865 140.849 14.4292 139.239 16.078C141.782 16.0509 144.234 15.937 146.707 16.2895ZM118.981 9.91117C118.135 10.0902 118.932 9.76473 114.126 11.56C113.421 11.8258 112.879 12.0048 113.025 12.5471C113.047 12.6448 113.297 12.7153 113.443 12.7207C113.573 12.7315 113.714 12.6285 113.844 12.5851C118.91 10.8332 118.954 11.023 118.981 9.91117ZM74.3375 80.1926C74.0934 82.0909 76.008 83.6747 76.7511 82.6062C77.3965 81.6679 77.3206 80.876 78.1125 80.9248C80.385 81.0821 80.6833 81.375 81.4535 81.0441C80.0054 80.8814 78.5789 80.48 77.0982 80.5831C76.7782 81.7004 76.2684 82.579 75.3734 81.8414C74.4297 81.055 75.2541 80.2794 74.3375 80.1926ZM119.474 4.55247C119.68 5.07315 119.946 5.50163 120.027 5.96265C120.282 7.49758 120.293 9.02167 119.626 10.4861C119.507 10.7627 119.474 10.5295 119.588 11.099C120.087 10.9254 119.99 11.0502 120.239 10.5837C120.955 9.30913 121.058 7.92064 120.863 6.50503C120.787 5.97892 120.526 5.47994 120.293 4.98637C120.174 4.72603 119.973 4.44942 119.474 4.55247ZM75.0263 77.1336C74.766 76.857 75.1402 76.7702 72.7755 76.3797C72.3632 76.3146 71.9402 76.32 71.5171 76.2766C71.3436 76.2603 71.1537 76.141 71.0236 76.1844C70.8446 76.2495 70.709 76.4339 70.5517 76.5695C71.2351 77.3126 70.5083 76.7539 74.3483 77.5349C74.7172 77.6163 74.9992 77.4861 75.0263 77.1336ZM131.504 80.2089C133.945 79.84 136.212 79.0699 138.056 77.3288C136.011 78.6251 133.815 79.5309 131.504 80.2089ZM112.971 41.4884C113.964 44.5529 113.996 43.8532 112.765 45.7353C113.85 45.1278 114.403 44.2058 114.202 43.2946C114.05 42.5841 113.969 41.7596 112.971 41.4884ZM86.438 79.3627C85.798 79.6231 85.6515 80.16 85.5485 80.6645C85.4183 81.299 85.6081 81.657 86.617 81.4617C86.7797 80.5397 86.7363 80.0733 86.438 79.3627ZM92.1384 85.1499C92.1546 84.076 90.9451 84.0543 90.9289 85.1662C90.918 85.5892 91.0862 85.7465 91.558 85.7628C92.0082 85.7899 92.1275 85.6598 92.1384 85.1499ZM89.9743 80.659C90.1533 81.1092 89.7899 81.6136 90.3322 81.8468C91.0428 82.1506 91.6285 81.4943 91.0916 80.6428C90.2672 80.5722 90.5763 80.5831 89.9743 80.659ZM81.5566 78.0285C80.9437 76.7864 79.3382 77.1661 79.8481 78.1749C80.4067 78.1858 80.9599 78.3322 81.5566 78.0285ZM76.5992 76.5369C76.4094 76.9166 76.2629 77.0956 76.2358 77.2854C76.1979 77.5729 76.5558 77.9417 76.724 77.8278C76.8704 77.7356 77.0114 77.4861 77.0006 77.3126C76.9952 77.1064 76.8107 76.9166 76.5992 76.5369ZM79.1918 77.8115C79.2189 77.3397 79.002 77.2366 78.7199 77.2203C77.9443 77.1661 78.2101 78.1424 78.785 78.1207C78.9423 78.1207 79.0996 77.8929 79.1918 77.8115ZM84.4529 80.735L84.0027 81.2177C84.3064 81.4889 84.263 81.7112 84.762 81.0875C84.7783 81.0712 84.6102 80.9194 84.4529 80.735ZM94.1126 85.4699L94.1289 85.7031C94.3621 85.817 94.6008 85.9038 94.8611 85.4699H94.1126ZM90.5004 85.8062C90.2292 86.175 90.3322 86.3486 90.5817 86.4462C90.636 86.4625 90.7228 86.392 90.8529 86.3486L90.5004 85.8062ZM83.0969 75.322C83.2651 75.219 83.2651 75.2786 82.9884 74.9478C82.8637 75.0454 82.8745 74.9857 83.0969 75.322Z" fill="white"/>
</g>
<path d="M102.383 8.78936C101.993 8.13308 102.258 7.47138 102.372 6.79883C102.372 9.00631 102.361 8.81648 102.383 8.78936Z" fill="white"/>
<path d="M137.866 48.7949C136.559 48.1115 136.955 47.797 135.382 42.0694C134.78 39.862 133.847 38.7664 139.168 38.3325C139.602 38.2999 139.954 38.4464 140.09 38.9182C140.09 38.9291 141.5 43.2844 142.444 47.5692C142.628 48.399 142.118 49.0444 141.267 49.0878C141.245 49.0987 138.652 49.2071 137.866 48.7949ZM140.507 44.2064L140.496 43.9135C139.634 43.8376 138.755 43.8647 137.893 43.984C137.546 44.0274 137.378 44.2932 137.503 44.7C137.85 45.7793 137.02 47.4824 140.909 47.3034C141.039 47.2926 141.169 47.1732 141.456 47.0268C139.374 46.3976 138.701 47.7427 138.332 44.7651C138.316 44.6295 138.642 44.3691 138.858 44.3095C139.151 44.2173 139.146 44.3095 140.507 44.2064ZM139.52 39.3359C139.336 39.1623 139.282 39.0918 139.249 39.0918C138.435 39.2057 137.616 39.2979 136.814 39.4715C135.745 39.7047 136.722 42.1996 137.15 43.0349C138.929 42.8884 137.66 42.9047 137.231 40.5399C136.998 39.3196 138.159 39.9704 139.52 39.3359ZM139.9 42.2322C139.531 42.5684 138.962 42.1454 138.593 42.6227C139.585 42.8559 139.824 42.7908 139.9 42.2322Z" fill="white"/>
<path d="M125.793 77.1345C129.286 73.4083 129.986 73.0558 132.459 67.7405C134.677 62.9892 135.653 57.7716 136.548 54.2461C136.809 54.7614 136.722 55.141 136.641 55.5207C135.773 59.7838 134.352 71.0761 125.793 77.1345Z" fill="white"/>
<path d="M156.834 36.0205C156.2 36.0639 156.324 36.0747 154.014 30.4936C144.983 8.6846 156.444 34.1059 156.834 36.0205Z" fill="white"/>
<path d="M148.041 18.3028C149.017 18.0533 151.176 18.8289 152.478 19.9136C149.766 18.8343 150.932 19.2574 148.041 18.3028Z" fill="white"/>
<path d="M142.787 37.2567C140.568 36.5137 141.523 36.6601 139.18 36.6601C140.199 36.0743 141.902 36.1937 142.51 36.8174C142.586 36.8988 142.629 37.0072 142.787 37.2567Z" fill="white"/>
<path d="M137.627 51.4506C138.196 50.8811 138.196 50.8811 139.438 51.4506H137.627Z" fill="white"/>
<path d="M131.71 28.0539L131.868 29.2201L131.667 29.2363C131.26 28.6506 131.813 28.0214 131.71 28.0539Z" fill="white"/>
<path d="M153.872 20.5957C154.208 21.0676 154.219 21.0242 154.137 21.111C153.682 20.6988 153.682 20.791 153.872 20.5957Z" fill="white"/>
<path d="M121.183 75.659C120.983 75.7023 120.787 75.7891 120.597 75.7891C115.369 75.7349 112.755 76.1688 104.147 75.7891C101.847 75.6806 101.207 75.4962 94.8887 75.4962C94.9755 74.2271 121.145 75.3715 121.183 75.659Z" fill="white"/>
<path d="M184.929 62.1429C181.523 62.1429 181.252 62.2676 180.997 61.6873C178.665 56.513 172.872 52.6133 167.345 50.7095C161.694 48.7624 155.754 49.2668 151.123 53.5353C149.007 55.4879 147.076 58.6066 146.588 59.9788L146.398 59.9191C148.329 54.2621 154.686 49.039 160.918 49.0878C165.143 49.1204 164.574 48.9414 167.068 49.4783C173.268 50.8017 178.881 54.338 182.006 57.9557C183.014 59.1164 183.877 60.4181 184.799 61.6601C184.859 61.7469 184.848 61.8662 184.929 62.1429Z" fill="white"/>
<path d="M80.7872 53.9395C81.0312 53.9557 81.2102 53.9232 81.3404 53.9828C84.2475 55.3117 86.1784 57.4866 87.0299 60.5782C87.274 61.4622 87.5398 62.3734 87.5235 63.2738C87.4801 65.6494 86.9866 67.9437 85.392 69.8257C83.575 71.979 81.9099 71.5396 76.7953 71.5179C76.6814 71.5179 76.5783 71.48 76.459 71.3498C78.1512 70.9918 81.1614 71.8325 83.7377 70.1511C86.4279 68.4047 87.2144 64.7111 86.6774 61.5219C85.6415 55.3876 81.1614 54.5361 80.7872 53.9395Z" fill="white"/>
<path d="M65.877 59.6673C65.9312 59.1412 66.197 59.1412 66.4465 59.1086C70.9428 58.4686 80.1686 58.6151 82.3219 58.8537C82.349 59.4774 82.3056 58.6042 65.877 59.6673Z" fill="white"/>
<path d="M65.1289 60.6869C70.5527 59.9602 75.906 60.3073 81.2647 60.3235L81.2864 60.5188C80.1419 60.7195 70.9649 60.6056 65.9045 61.1154C65.6442 61.1425 65.3187 61.2619 65.1289 60.6869Z" fill="white"/>
<path d="M70.7533 57.9164C69.1641 57.976 68.2583 58.2526 67 58.1604C67.2929 57.7103 67.6617 57.6831 68.0088 57.6506C71.6916 57.2601 78.0971 57.0703 80.1961 57.3631C80.1581 57.8133 80.2015 57.5367 70.7533 57.9164Z" fill="white"/>
<path d="M68.6523 56.3647C70.3446 55.8386 77.2057 55.3884 82.2769 56.2182C68.6523 56.5708 68.7391 56.6847 68.6523 56.3647Z" fill="white"/>
<path d="M79.5996 53.882C79.8383 53.5891 79.6322 53.6325 80.321 53.7084C80.3047 53.9416 80.3644 53.882 79.5996 53.882Z" fill="white"/>
<path d="M135.366 6.66624C136.771 6.66624 138.696 6.66624 139.797 6.69336C141.478 6.7259 142.438 5.96115 142.932 5.93945C142.238 6.76387 141.3 7.13811 140.28 7.21947C137.058 7.46896 137.644 7.0893 135.35 6.92658L135.366 6.66624Z" fill="white"/>
<path d="M122.284 6.3457L127.914 6.75249C127.339 7.1213 126.693 6.98571 126.08 7.0291C125.397 7.07791 124.708 7.1213 124.036 7.03452C123.433 6.95859 122.696 7.26232 122.24 6.5952L122.284 6.3457Z" fill="white"/>
<path d="M177.841 75.5158C180.9 87.101 171.116 96.5927 162.009 91.055C158.305 88.815 156.151 84.2644 155.815 81.9051C153.271 63.9686 173.806 60.2858 177.841 75.5158ZM176.729 79.7518C177.537 71.5348 167.802 62.7699 160.029 69.9619C151.807 77.5714 158.641 93.1377 168.664 91.0062C173.925 89.8834 177.131 84.4597 176.729 79.7518Z" fill="white"/>
<path d="M155.256 7.83274C155.246 13.1264 150.158 15.7406 147.582 11.7813C145.803 9.05309 145.922 6.25442 147.658 3.55337C150.071 -0.216159 155.262 2.51201 155.256 7.83274ZM151.069 3.87338C149.778 3.68897 149.122 4.85508 148.509 6.01035C148.081 6.81307 148.244 7.69172 148.227 8.5541C148.211 9.4436 148.466 10.2463 148.97 10.9894C151.167 14.2491 155.029 10.2463 153.667 5.93984C153.261 4.65983 152.306 3.90592 151.069 3.87338Z" fill="white"/>
<path d="M167.247 89.4721C161.264 89.4884 157.435 83.5873 157.988 77.8707C158.536 72.2408 162.409 69.2035 165.755 69.0679C171.543 68.8346 175.345 74.215 175.383 79.6497C175.426 85.9358 170.778 89.6511 167.247 89.4721ZM170.859 72.6801C166.504 68.238 159.453 71.1181 158.856 78.31C158.504 82.6653 161.4 87.5847 165.945 87.9698C172.682 88.5338 176.896 78.8361 170.859 72.6801Z" fill="white"/>
<path d="M168.533 79.4017C168.794 83.2634 164.178 84.8146 162.491 81.7881C160.81 78.7725 162.187 74.927 165.29 75.0952C167.221 75.2199 168.647 77.4328 168.533 79.4017ZM162.47 79.2281C162.046 81.5495 164.932 83.6539 166.44 81.7176C167.411 80.4701 167.378 78.1488 166.282 76.961C164.731 75.2687 162.144 76.8199 162.47 79.2281Z" fill="white"/>
<path d="M163.911 81.125C162.273 79.5901 163.33 76.889 164.947 77.0951C167.783 77.4694 166.324 83.3813 163.911 81.125Z" fill="white"/>
</g>
</svg>
