<svg width="250" height="150" viewBox="0 0 250 150" fill="none" xmlns="http://www.w3.org/2000/svg">
<g clip-path="url(#clip0_19_2)">
<mask id="mask0_19_2" style="mask-type:luminance" maskUnits="userSpaceOnUse" x="0" y="20" width="244" height="187">
<path d="M0 20H244V206.079H0V20Z" fill="white"/>
</mask>
<g mask="url(#mask0_19_2)">
<mask id="mask1_19_2" style="mask-type:luminance" maskUnits="userSpaceOnUse" x="0" y="20" width="244" height="188">
<path d="M244 20H0V207.827H244V20Z" fill="white"/>
</mask>
<g mask="url(#mask1_19_2)">
<mask id="mask2_19_2" style="mask-type:luminance" maskUnits="userSpaceOnUse" x="-106" y="-34" width="475" height="285">
<path d="M368.195 -33.9766H-105.762V250.398H368.195V-33.9766Z" fill="black" fill-opacity="0.36"/>
</mask>
<g mask="url(#mask2_19_2)">
<mask id="mask3_19_2" style="mask-type:luminance" maskUnits="userSpaceOnUse" x="15" y="60" width="158" height="82">
<path d="M172.029 60.375H15.7988V141.123H172.029V60.375Z" fill="white"/>
</mask>
<g mask="url(#mask3_19_2)">
<mask id="mask4_19_2" style="mask-type:luminance" maskUnits="userSpaceOnUse" x="31" y="99" width="18" height="23">
<path d="M31.5957 99.5293H48.6971V121.677H31.5957V99.5293Z" fill="white"/>
</mask>
<g mask="url(#mask4_19_2)">
<path d="M167.112 113.867C167.064 113.791 166.981 113.75 166.892 113.757C161.201 114.127 155.434 116.033 150.435 118.735C146.424 120.909 142.872 123.946 139.78 127.841C139.752 127.889 139.738 127.937 139.759 127.985C140.712 130.495 142.159 132.655 144.099 134.465C144.799 135.123 145.677 135.665 146.499 136.227C146.561 136.268 146.554 136.282 146.486 136.282C139.677 136.028 132.881 135.768 126.072 135.487C123.748 135.398 121.999 135.343 120.827 135.329C107.984 135.178 95.113 135.068 82.2698 135.308C81.8103 135.315 81.3715 135.521 80.8778 135.535C80.7612 135.542 80.7475 135.507 80.8435 135.446C84.2514 133.176 86.4457 130.035 87.4262 126.038C87.4262 126.031 87.4262 126.024 87.4262 126.017C87.4262 125.976 87.392 125.935 87.344 125.935L80.2058 126.038C80.1029 126.038 80.007 126.099 79.959 126.182C77.9224 129.569 75.0425 131.455 70.8871 130.769C67.1912 130.159 64.6198 127.258 64.0507 123.617C64.0507 123.61 64.0507 123.604 64.0507 123.59C64.0507 123.508 64.1261 123.432 64.2084 123.432L68.494 123.418C68.5626 123.418 68.5969 123.453 68.6175 123.508C69.7763 127.169 74.8436 127.354 75.8653 123.549C75.8859 123.494 75.9202 123.46 75.9887 123.46C77.8813 123.439 79.8287 123.487 81.6595 123.37C84.7863 123.172 87.9199 122.952 91.0536 122.719C92.281 122.63 93.4947 122.582 94.6947 122.589C103.465 122.596 112.242 122.596 121.012 122.575C122.719 122.568 123.919 122.506 124.626 122.383C128.795 121.67 132.532 118.824 134.829 115.355C136.845 112.31 138.429 108.984 140.801 106.248C143.373 103.286 146.561 101.243 150.367 100.111C150.422 100.098 150.449 100.063 150.449 100.009C150.538 98.4383 150.278 97.0943 149.681 95.9766C149.249 95.1743 148.152 93.4669 146.369 90.8407C144.381 87.9059 142.323 85.0191 140.356 82.0569C138.621 79.4444 136.852 76.8661 135.034 74.3153C135.028 74.3084 135.028 74.3016 135.028 74.2947C135.028 74.2742 135.041 74.2604 135.062 74.2604C136.906 74.329 138.772 74.377 140.644 74.4113C141.178 74.4182 141.569 74.3427 141.802 74.1713C142.138 73.9313 142.344 73.5542 142.433 73.033C142.954 70.0914 143.016 67.2732 142.611 64.5715C142.433 63.3578 142.234 62.3018 140.836 62.343C137.489 62.4458 134.465 63.5635 131.407 65.0515C131.387 65.0583 131.373 65.0721 131.366 65.0858C131.332 65.1269 131.345 65.1886 131.393 65.2229C133.115 66.3475 133.992 67.8354 134.013 69.6731C134.054 72.4845 132.347 74.7747 129.624 75.6044C129.556 75.6181 129.521 75.673 129.535 75.7416C129.583 76.0638 129.796 76.4821 129.864 76.6947C130.968 80.1643 132.1 83.6203 133.265 87.0694C134.404 90.4224 135.295 93.0898 135.857 96.0795C136.584 99.9743 135.583 104.075 133.533 107.387C131.133 111.254 127.828 113.969 123.364 115.211C122.328 115.505 121.464 115.649 120.765 115.67C118.804 115.725 116.102 115.725 112.653 115.677C111.069 115.656 109.862 115.547 109.026 115.361C103.232 114.038 99.4054 108.964 99.8032 102.991C99.8991 101.497 100.317 100.098 101.058 98.7811C103.033 95.2772 106.009 93.2338 110 92.6441C110.013 92.6441 110.027 92.6372 110.041 92.6304C110.096 92.603 110.109 92.5275 110.082 92.4795C109.376 91.2796 108.669 90.0933 107.963 88.9002C107.778 88.5916 107.49 88.2145 107.106 87.7825C107.065 87.7345 107.017 87.7071 106.948 87.7139C101.963 87.7756 96.9781 87.7893 91.9862 87.7482C88.1737 87.7208 84.9234 86.3288 82.736 83.1266C82.3932 82.6329 82.0709 82.1254 81.7555 81.6249C81.7212 81.57 81.6801 81.5426 81.6183 81.5426C78.1487 81.5975 74.6722 81.6112 71.2025 81.5769C68.6586 81.5495 67.39 84.0728 68.2883 86.2671C68.4803 86.7196 68.8163 87.1859 69.31 87.6728C70.4071 88.7288 71.6414 89.5036 72.8208 90.3607C72.8345 90.3676 72.8414 90.3813 72.8482 90.395C72.8551 90.4293 72.8345 90.4636 72.8071 90.4704C71.1408 90.9436 69.5431 91.5813 68.0072 92.3904C63.6255 94.6943 59.6416 98.0337 56.8165 102.1C53.676 106.619 51.5503 111.597 50.4327 117.041C50.3641 117.35 50.3229 117.665 50.2818 117.994C50.2749 118.056 50.3024 118.097 50.3709 118.097C62.1376 118.097 73.9111 118.09 85.6777 118.07C87.9542 118.063 89.8056 117.268 91.2387 115.67C94.7221 111.796 93.1587 106.372 89.9839 102.95C88.0297 100.845 85.6091 99.412 82.736 98.644C76.5922 97.0257 70.174 99.172 65.5044 103.307C62.0416 106.372 59.7445 110.253 58.6131 114.957C58.5925 115.025 58.5582 115.06 58.4828 115.06L55.7263 115.067C55.7194 115.067 55.7194 115.067 55.7126 115.067C55.6851 115.06 55.6646 115.025 55.6714 114.998C56.5285 111.371 58.0234 108.031 60.1559 104.98C65.0244 97.9789 74.8368 93.5149 83.3806 95.812C88.2354 97.1217 92.3221 100.091 94.6467 104.582C96.6489 108.456 96.5598 113.448 93.9061 116.993C91.5953 120.065 88.2628 121.114 84.4777 121.121C75.2619 121.135 66.0461 121.128 56.8302 121.108C56.7617 121.108 56.7342 121.135 56.7342 121.197C56.7 126.922 59.0519 132.154 63.653 135.583C63.6667 135.59 63.6667 135.596 63.6735 135.61C63.6735 135.638 63.653 135.658 63.6324 135.658C60.8965 135.823 58.1536 135.939 55.3971 136.028C52.3046 136.124 49.3218 136.337 46.2773 136.529C41.7654 136.817 37.2672 137.27 32.7827 137.887C32.4193 137.942 32.0764 137.99 31.7473 138.031C31.7267 138.038 31.7061 138.058 31.7061 138.079C31.6993 138.106 31.7267 138.134 31.7541 138.134C32.481 138.175 33.2284 138.278 33.921 138.298C37.5826 138.422 41.2443 138.559 44.9128 138.71C46.1059 138.764 47.3196 138.792 48.5607 138.799C52.188 138.833 55.8223 138.936 59.4565 138.936C85.0057 138.943 110.555 138.943 136.097 138.929C148.536 138.922 157.052 138.785 167.283 138.106C167.372 138.099 167.434 138.079 167.475 138.038C167.489 138.031 167.496 138.01 167.496 137.996C167.502 137.969 167.475 137.935 167.448 137.935L160.81 137.057C160.591 137.023 160.57 136.954 160.762 136.838C161.064 136.659 161.393 136.46 161.77 136.241C164.437 134.65 166.44 132.387 167.866 129.658C169.409 126.703 169.937 123.343 169.518 120.038C169.237 117.85 168.264 115.697 167.112 113.867ZM140.609 64.4686C140.623 64.4412 140.65 64.4275 140.671 64.4206C140.726 64.4138 140.774 64.4412 140.781 64.4961C141.254 67.136 141.24 69.776 140.767 72.4091C140.767 72.4228 140.753 72.4433 140.733 72.4502C140.698 72.4776 140.657 72.4639 140.63 72.4296C140.465 72.2033 140.321 71.9154 140.191 71.5656C139.286 69.1177 139.416 66.752 140.609 64.4686ZM161.921 125.318C159.528 131.592 151.862 132.867 147.658 127.581C147.322 127.155 146.911 126.422 146.403 125.359C146.376 125.311 146.39 125.256 146.438 125.222C147.555 124.207 148.701 123.247 149.894 122.335C150.188 122.109 150.422 121.937 150.593 121.834C150.614 121.821 150.634 121.821 150.655 121.821C150.703 121.828 150.744 121.876 150.737 121.924C150.593 123.048 150.819 124.015 151.423 124.831C152.815 126.703 155.681 126.792 157.148 124.968C158.451 123.357 157.951 121.245 156.195 120.154C155.736 119.866 155.235 119.743 154.694 119.791C154.68 119.791 154.659 119.784 154.652 119.77C154.646 119.75 154.652 119.736 154.673 119.722C156.696 118.783 158.787 118.049 160.954 117.514C161.016 117.501 161.084 117.528 161.112 117.576C162.572 119.805 162.867 122.842 161.921 125.318Z" fill="white"/>
</g>
<mask id="mask5_19_2" style="mask-type:luminance" maskUnits="userSpaceOnUse" x="16" y="100" width="32" height="8">
<path d="M16.7109 100.752H47.3961V107.774H16.7109V100.752Z" fill="white"/>
</mask>
<g mask="url(#mask5_19_2)">
<path d="M42.8988 106.346C43.6325 106.387 44.1537 106.346 44.4417 106.223C45.7788 105.688 45.9914 103.987 45.1685 102.89C44.7777 102.376 44.3114 102.129 43.7697 102.156C41.6714 102.232 37.379 102.451 30.9128 102.821C26.2432 103.089 21.5872 103.555 16.9313 104.138C16.8079 104.152 16.8079 104.179 16.9245 104.22C17.1988 104.309 17.617 104.303 17.8296 104.33C26.1677 105.256 34.5196 105.921 42.8988 106.346Z" fill="white"/>
</g>
<path d="M41.9371 119.742C43.3016 119.104 43.4113 117.281 42.3416 116.334C41.9919 116.033 41.6011 115.882 41.1622 115.902C33.2904 116.225 25.4528 116.849 17.6358 117.781C17.6221 117.781 17.6152 117.795 17.6152 117.802C17.6152 117.815 17.6221 117.829 17.6358 117.829C25.3362 118.919 33.0984 119.742 40.8468 119.893C41.3268 119.907 41.6902 119.859 41.9371 119.742Z" fill="white"/>
</g>
</g>
<mask id="mask6_19_2" style="mask-type:luminance" maskUnits="userSpaceOnUse" x="-106" y="-34" width="475" height="285">
<path d="M368.195 -33.9766H-105.762V250.398H368.195V-33.9766Z" fill="black" fill-opacity="0.36"/>
</mask>
<g mask="url(#mask6_19_2)">
<mask id="mask7_19_2" style="mask-type:luminance" maskUnits="userSpaceOnUse" x="19" y="48" width="143" height="106">
<path d="M161.496 48.0879H19.3086V153.412H161.496V48.0879Z" fill="white"/>
</mask>
<g mask="url(#mask7_19_2)">
<mask id="mask8_19_2" style="mask-type:luminance" maskUnits="userSpaceOnUse" x="47" y="85" width="10" height="11">
<path d="M47.3926 85.2949H56.4507V95.1416H47.3926V85.2949Z" fill="white"/>
</mask>
<g mask="url(#mask8_19_2)">
<path d="M51.6297 82.38C55.8947 83.9228 60.1667 85.4725 64.4386 87.0153C65.8443 87.5296 66.8317 87.7833 67.4145 87.7901C68.7654 87.797 69.9105 87.2004 70.8567 85.9936C70.891 85.9525 70.9322 85.9387 70.9939 85.9525L74.5664 86.8302C74.6281 86.8507 74.6487 86.885 74.6281 86.9467C73.6544 89.7238 73.8601 92.2541 75.2521 94.5443C76.5686 96.718 78.7149 98.1854 81.2657 98.2059C86.189 98.2471 93.7455 98.1717 103.942 97.9728C104.004 97.9728 104.038 98.0002 104.045 98.0619C105.3 105.241 106.911 112.407 108.317 119.524C108.351 119.723 108.454 119.771 108.639 119.703L114.323 117.289C114.474 117.22 114.563 117.076 114.556 116.919C114.269 109.979 113.919 103.033 113.507 96.0803C113.432 94.798 113.288 93.8586 113.075 93.2689C112.383 91.3489 110.95 90.1901 108.749 89.7718C106.575 89.3673 103.674 89.2575 101.768 89.0518C97.846 88.6473 93.9237 88.2564 89.981 87.893C89.9192 87.8861 89.8918 87.8519 89.9192 87.7901L92.6689 80.8097C92.6895 80.7548 92.6826 80.7137 92.6552 80.6657L89.7478 76.0166C89.6724 75.9001 89.5215 75.8589 89.405 75.9344L77.0006 82.9285C76.9595 82.9559 76.9115 82.9628 76.8635 82.9559C75.3549 82.6817 73.8395 82.4074 72.3241 82.1057C72.2624 82.092 72.2419 82.0645 72.2693 81.996L79.1126 64.8603C79.1537 64.7369 79.2909 64.6683 79.4143 64.7094L82.0337 65.4363C82.0885 65.4431 82.1091 65.4843 82.0885 65.5391C81.8143 66.3551 81.6085 66.9311 81.4645 67.274C79.8051 71.4224 78.0292 75.7081 76.1572 80.124C76.1504 80.1377 76.1504 80.1514 76.1572 80.1583C76.1709 80.1789 76.1846 80.1857 76.2052 80.1789L90.317 72.403C90.4129 72.355 90.5227 72.3893 90.5707 72.4716C92.4015 75.2692 94.1775 78.0737 95.8917 80.8714C96.646 82.1057 97.2357 82.9079 97.6608 83.2782C99.1008 84.5193 100.486 84.6085 102.406 84.5948C105.924 84.5536 109.434 84.5056 112.952 84.4439C113.021 84.4439 113.055 84.4028 113.055 84.3342C112.938 82.4485 113.645 80.9468 114.646 79.4177C114.652 79.404 114.659 79.3903 114.659 79.3766C114.666 79.3286 114.632 79.2737 114.577 79.2669L102.454 77.4223C102.406 77.4155 102.372 77.3949 102.351 77.3469C100.589 73.4247 98.9019 69.4476 97.2768 65.4431C96.8174 64.3049 96.3511 63.2832 95.8643 62.3918C93.2792 57.5987 87.4713 57.9073 84.2416 61.7541C84.2005 61.7952 84.1525 61.8158 84.0908 61.7952L80.8337 60.8901C80.7651 60.8764 80.7377 60.8352 80.7514 60.7666C81.06 59.1347 80.6348 57.825 79.4966 56.8719C79.1469 56.5701 78.612 56.2959 77.892 56.0353C73.4967 54.4513 69.1082 52.8674 64.6991 51.2971C62.5666 50.5291 61.1129 50.2754 59.3507 51.4068C58.5004 51.9485 58.1027 52.5794 57.753 53.5119C57.4581 54.3005 56.9027 55.4182 56.5256 56.3439C53.9336 62.7483 51.3554 69.1596 48.8114 75.5915C48.3863 76.6406 48.16 77.4018 48.1257 77.868C47.968 80.0691 49.6069 81.6463 51.6297 82.38ZM59.7415 55.761L60.5781 53.9096C60.6124 53.8273 60.7015 53.7931 60.7838 53.8205L75.6498 59.1552C75.7184 59.1758 75.7321 59.2238 75.7115 59.2855L74.8612 61.1781C74.8338 61.2329 74.7927 61.2535 74.731 61.2329C69.6979 59.5804 64.7197 57.7907 59.7758 55.8639H59.769C59.7347 55.8502 59.721 55.8022 59.7415 55.761Z" fill="white"/>
</g>
<mask id="mask9_19_2" style="mask-type:luminance" maskUnits="userSpaceOnUse" x="21" y="85" width="36" height="11">
<path d="M21.0625 85.2949H56.4516V95.1416H21.0625V85.2949Z" fill="white"/>
</mask>
<g mask="url(#mask9_19_2)">
<path d="M157.632 127.335C157.591 127.253 157.502 127.219 157.413 127.226C151.728 127.596 145.962 129.502 140.956 132.204C136.952 134.377 133.4 137.408 130.307 141.31C130.273 141.358 130.259 141.399 130.287 141.454C131.24 143.964 132.687 146.124 134.627 147.934C135.326 148.585 136.197 149.134 137.027 149.696C137.082 149.73 137.075 149.751 137.006 149.744C130.204 149.49 123.402 149.237 116.6 148.955C114.269 148.866 112.527 148.811 111.354 148.798C98.5112 148.647 85.6406 148.537 72.7905 148.777C72.3311 148.784 71.8991 148.99 71.3985 149.003C71.282 149.01 71.2751 148.976 71.3711 148.914C74.7791 146.645 76.9733 143.504 77.9538 139.507C77.9538 139.5 77.9538 139.493 77.9538 139.486C77.9538 139.445 77.9127 139.404 77.8716 139.404L70.7266 139.507C70.6237 139.507 70.5346 139.568 70.4797 139.651C68.4432 143.038 65.5701 144.924 61.4147 144.238C57.7119 143.628 55.1474 140.72 54.5783 137.079C54.5783 137.072 54.5783 137.065 54.5783 137.059C54.5783 136.969 54.6469 136.901 54.736 136.901L59.0216 136.887C59.0833 136.887 59.1245 136.921 59.1451 136.976C60.3039 140.638 65.3644 140.823 66.3861 137.017C66.4066 136.956 66.4478 136.928 66.5095 136.928C68.4089 136.908 70.3563 136.949 72.1871 136.832C75.3139 136.64 78.4476 136.421 81.5743 136.188C82.8018 136.099 84.0223 136.044 85.2154 136.051C93.9855 136.064 102.763 136.057 111.533 136.037C113.24 136.037 114.447 135.975 115.153 135.852C119.315 135.132 123.052 132.286 125.35 128.823C127.372 125.772 128.956 122.453 131.329 119.717C133.893 116.755 137.082 114.712 140.894 113.573C140.949 113.566 140.97 113.532 140.97 113.47C141.066 111.907 140.805 110.563 140.209 109.445C139.777 108.643 138.673 106.936 136.897 104.309C134.908 101.368 132.851 98.4879 130.883 95.5256C129.148 92.9131 127.379 90.328 125.555 87.7841C125.555 87.7772 125.555 87.7703 125.555 87.7635C125.555 87.7429 125.562 87.7292 125.583 87.7292C127.434 87.7978 129.299 87.8458 131.164 87.8801C131.706 87.8869 132.09 87.8046 132.323 87.6401C132.659 87.4001 132.865 87.0161 132.961 86.5018C133.482 83.5601 133.544 80.735 133.139 78.0402C132.961 76.8265 132.755 75.7706 131.363 75.8117C128.017 75.9146 124.986 77.0323 121.928 78.5202C121.907 78.5271 121.9 78.5408 121.894 78.5545C121.859 78.5957 121.873 78.6574 121.914 78.6848C123.635 79.8162 124.52 81.2973 124.534 83.135C124.575 85.9532 122.874 88.2435 120.152 89.0663C120.083 89.0869 120.049 89.1417 120.063 89.2103C120.104 89.5326 120.316 89.9509 120.392 90.1634C121.489 93.6262 122.62 97.089 123.793 100.538C124.931 103.884 125.816 106.559 126.378 109.548C127.112 113.443 126.111 117.543 124.06 120.855C121.66 124.723 118.355 127.438 113.891 128.679C112.856 128.967 111.985 129.118 111.293 129.139C109.332 129.194 106.63 129.194 103.181 129.146C101.597 129.125 100.383 129.015 99.5534 128.83C93.7524 127.5 89.933 122.433 90.3239 116.46C90.4268 114.965 90.845 113.566 91.5787 112.25C93.5536 108.746 96.5364 106.703 100.527 106.113C100.541 106.113 100.555 106.106 100.568 106.099C100.616 106.065 100.637 105.996 100.603 105.941C99.8963 104.748 99.1969 103.555 98.4906 102.369C98.3055 102.054 98.0175 101.683 97.6266 101.251C97.5923 101.203 97.5375 101.176 97.4758 101.183C92.4839 101.244 87.4988 101.251 82.5138 101.217C78.6944 101.19 75.451 99.7975 73.2568 96.5885C72.9208 96.1016 72.5985 95.5942 72.2831 95.0936C72.2488 95.0388 72.2008 95.0113 72.146 95.0113C68.6695 95.0662 65.1998 95.0799 61.7233 95.0456C59.1862 95.0182 57.9177 97.5416 58.8159 99.7358C59.0011 100.188 59.3371 100.655 59.8376 101.142C60.9279 102.198 62.1621 102.965 63.3484 103.829C63.3621 103.836 63.369 103.85 63.3758 103.864C63.3827 103.891 63.3621 103.932 63.3278 103.939C61.6684 104.412 60.0708 105.05 58.5279 105.859C54.1532 108.163 50.1692 111.502 47.3373 115.569C44.2036 120.081 42.078 125.066 40.9534 130.51C40.8917 130.812 40.8437 131.134 40.8094 131.463C40.8025 131.525 40.8231 131.566 40.8985 131.566C52.6652 131.566 64.4318 131.559 76.1985 131.539C78.475 131.532 80.3264 130.736 81.7663 129.139C85.2497 125.264 83.6863 119.841 80.5115 116.419C78.5573 114.314 76.1367 112.881 73.2568 112.113C67.1198 110.488 60.6947 112.641 56.0251 116.769C52.5692 119.841 50.2721 123.722 49.1407 128.419C49.1201 128.494 49.079 128.522 49.0104 128.522L46.2539 128.528C46.247 128.528 46.247 128.528 46.2402 128.528C46.2059 128.522 46.1853 128.494 46.1922 128.467C47.0561 124.839 48.551 121.5 50.6766 118.449C55.5451 111.448 65.3575 106.984 73.9014 109.281C78.763 110.59 82.8498 113.56 85.1743 118.051C87.1697 121.918 87.0874 126.91 84.4269 130.455C82.1161 133.527 78.7904 134.583 75.0053 134.59C65.7895 134.604 56.5668 134.597 47.351 134.569C47.2893 134.569 47.2619 134.604 47.2619 134.665C47.2207 140.384 49.5795 145.616 54.1737 149.045C54.1874 149.051 54.1874 149.065 54.1943 149.079C54.1943 149.106 54.1737 149.127 54.16 149.127C51.4241 149.285 48.6813 149.408 45.9247 149.49C42.8322 149.593 39.8494 149.806 36.8049 149.998C32.2861 150.286 27.7948 150.738 23.3034 151.355C22.94 151.41 22.5972 151.451 22.268 151.499C22.2475 151.506 22.2338 151.527 22.2338 151.547C22.2269 151.575 22.2475 151.602 22.2749 151.602C23.0086 151.643 23.7492 151.746 24.4417 151.767C28.1102 151.89 31.7719 152.027 35.4404 152.178C36.6266 152.233 37.8472 152.254 39.0883 152.267C42.7157 152.302 46.3499 152.405 49.9772 152.405C75.5265 152.411 101.076 152.411 126.618 152.398C139.064 152.391 147.573 152.247 157.811 151.568C157.9 151.561 157.955 151.547 158.003 151.506C158.016 151.499 158.023 151.479 158.023 151.465C158.03 151.431 158.003 151.403 157.968 151.403L151.331 150.519C151.111 150.491 151.098 150.416 151.29 150.299C151.584 150.128 151.914 149.929 152.291 149.71C154.965 148.119 156.96 145.849 158.393 143.12C159.936 140.172 160.457 136.812 160.039 133.507C159.765 131.319 158.784 129.166 157.632 127.335ZM131.137 77.9374C131.144 77.91 131.171 77.8894 131.199 77.8825C131.253 77.8757 131.295 77.91 131.308 77.9648C131.781 80.6048 131.768 83.2379 131.288 85.8709C131.288 85.8915 131.274 85.9121 131.26 85.9189C131.226 85.9464 131.178 85.9327 131.151 85.8984C130.993 85.6721 130.842 85.3841 130.712 85.0344C129.807 82.5864 129.944 80.2208 131.137 77.9374ZM152.448 138.78C150.055 145.054 142.389 146.336 138.186 141.049C137.85 140.624 137.432 139.891 136.931 138.828C136.904 138.773 136.917 138.725 136.965 138.684C138.083 137.676 139.228 136.716 140.414 135.804C140.716 135.577 140.949 135.406 141.121 135.303C141.141 135.289 141.162 135.289 141.182 135.289C141.23 135.296 141.272 135.344 141.265 135.392C141.114 136.51 141.347 137.484 141.95 138.3C143.342 140.172 146.202 140.254 147.676 138.43C148.972 136.825 148.478 134.713 146.723 133.623C146.263 133.335 145.756 133.212 145.214 133.26C145.201 133.26 145.18 133.253 145.173 133.239C145.173 133.219 145.173 133.198 145.194 133.184C147.223 132.252 149.308 131.518 151.475 130.983C151.543 130.97 151.605 130.997 151.639 131.045C153.1 133.273 153.388 136.311 152.448 138.78Z" fill="white"/>
</g>
<mask id="mask10_19_2" style="mask-type:luminance" maskUnits="userSpaceOnUse" x="19" y="86" width="38" height="8">
<path d="M19.3613 86.707H56.1698V93.7286H19.3613V86.707Z" fill="white"/>
</mask>
<g mask="url(#mask10_19_2)">
<path d="M23.7383 90.381C33.1187 91.5055 42.5265 92.2324 51.9617 92.5615C53.2371 92.6027 54.0874 92.4038 54.5331 91.1833C54.78 90.5113 54.8211 89.8942 54.6497 89.3456C54.2108 87.9262 53.0314 87.789 51.6189 87.8302C41.0797 88.1593 30.4719 88.6667 20.0286 89.901C19.6858 89.9422 19.6858 89.9764 20.0286 90.0176C21.2423 90.1479 22.5589 90.237 23.7383 90.381Z" fill="white"/>
</g>
</g>
</g>
<mask id="mask11_19_2" style="mask-type:luminance" maskUnits="userSpaceOnUse" x="29" y="104" width="145" height="103">
<path d="M29.8398 104.26H173.782V206.08H29.8398V104.26Z" fill="white"/>
</mask>
<g mask="url(#mask11_19_2)">
<mask id="mask12_19_2" style="mask-type:luminance" maskUnits="userSpaceOnUse" x="-106" y="-34" width="475" height="285">
<path d="M368.195 -33.9766H-105.762V250.398H368.195V-33.9766Z" fill="black" fill-opacity="0.36"/>
</mask>
<g mask="url(#mask12_19_2)">
<mask id="mask13_19_2" style="mask-type:luminance" maskUnits="userSpaceOnUse" x="29" y="104" width="145" height="104">
<path d="M173.782 104.26H29.8398V207.828H173.782V104.26Z" fill="white"/>
</mask>
<g mask="url(#mask13_19_2)">
<mask id="mask14_19_2" style="mask-type:luminance" maskUnits="userSpaceOnUse" x="36" y="123" width="20" height="6">
<path d="M36.8633 123.57H55.3635V128.836H36.8633V123.57Z" fill="white"/>
</mask>
<g mask="url(#mask14_19_2)">
<path d="M36.9096 126.133C42.2993 126.812 47.682 127.34 53.0511 127.724C55.2933 127.882 55.9859 124.837 53.7093 124.563C53.3048 124.508 52.8042 124.652 52.3516 124.673C47.1746 124.927 42.0524 125.448 36.9096 126.065C36.8959 126.065 36.8822 126.079 36.8822 126.099C36.8754 126.12 36.8959 126.133 36.9096 126.133Z" fill="white"/>
</g>
</g>
</g>
</g>
<mask id="mask15_19_2" style="mask-type:luminance" maskUnits="userSpaceOnUse" x="1" y="38" width="159" height="20">
<path d="M1.76758 38.2285H159.266V57.915H1.76758V38.2285Z" fill="white"/>
</mask>
<g mask="url(#mask15_19_2)">
<path d="M159.423 54.2665C149.543 53.6837 139.922 51.6197 130.706 47.9923C126.229 46.2369 121.929 44.0015 117.788 41.5742C115.655 40.3399 113.447 39.1673 111.034 38.6188C109.772 38.3376 108.469 38.2279 107.187 38.2485C105.863 38.2897 104.615 38.5708 103.313 38.7696C97.9503 39.5993 92.595 40.6348 87.2603 41.6496C81.8844 42.6781 76.4673 43.5833 71.064 44.4678C60.2779 46.2369 49.4918 47.9718 38.7332 49.8369C33.3436 50.7763 27.9265 51.6677 22.5575 52.7785C21.2341 53.0528 19.9244 53.4025 18.5873 53.6357C17.2501 53.8688 15.913 54.1019 14.5759 54.3488L6.39549 55.823C5.05837 56.0562 3.73497 56.303 2.41157 56.6185C1.90415 56.7419 2.00015 57.6059 2.53499 57.5579C7.92461 56.975 13.2799 55.9259 18.6353 55.0688C21.3301 54.6368 24.0523 54.3762 26.7471 53.9785C29.4419 53.5877 32.1299 53.1557 34.811 52.7168C45.5833 50.9546 56.342 49.0826 67.1006 47.2175C72.5108 46.2781 77.9141 45.3592 83.3312 44.4473C88.7482 43.5284 94.1996 42.7879 99.6166 41.9376C102.202 41.5262 104.711 41.1285 107.338 41.1833C109.744 41.2313 111.898 42.0199 114.003 43.1581C118.316 45.4964 122.546 48.1089 127.209 49.7272C129.506 50.5157 131.762 51.4071 134.101 52.0791C136.432 52.7442 138.811 53.2859 141.211 53.7248C146.018 54.5888 150.914 55.1168 155.803 55.0825C157.017 55.0688 158.237 55.0208 159.451 54.9453C159.855 54.9111 159.855 54.2871 159.423 54.2665Z" fill="white"/>
</g>
<mask id="mask16_19_2" style="mask-type:luminance" maskUnits="userSpaceOnUse" x="68" y="20" width="175" height="130">
<path d="M68.459 20.3711H242.504V149.9H68.459V20.3711Z" fill="white"/>
</mask>
<g mask="url(#mask16_19_2)">
<path d="M129.412 30.9393C130.297 31.7073 130.612 32.345 131.14 31.2548C132.045 29.3828 131.387 25.4469 129.926 27.0583C129.851 27.1474 129.775 27.2366 129.666 27.2983C130.022 26.3109 130.441 26.0777 131.606 26.112C139.17 26.3657 139.512 26.2217 148.385 26.3314C150.511 26.352 149.51 24.7132 151.697 24.7406C156.017 24.7955 163.628 24.912 168.25 24.3566C178.563 23.1223 182.41 20.3795 190.261 20.5167C199.244 20.6812 200.89 36.5484 191.633 38.8798C191.283 38.9689 190.906 38.9003 190.556 38.9552C190.316 38.9963 190.083 39.1403 189.857 39.2363C189.911 39.6066 189.767 39.394 191.057 39.9152C201.836 44.2968 201.575 43.8922 202.165 45.1608C202.59 46.0865 201.925 48.2122 201.095 48.699C200.54 49.0281 199.648 48.9321 198.887 48.9321C200.999 54.0132 205.395 66.1775 207.205 71.382C208.85 76.1133 208.192 76.5248 209.92 76.6688C221.474 77.5945 220.103 78.7944 221.433 78.1293C223.696 77.0048 227.611 76.1545 229.716 77.7659C232.747 80.0904 233.796 83.8961 233.762 85.4183C233.741 86.4674 236.203 87.7428 238.713 91.6582C239.878 93.489 240.969 95.3747 242.011 97.2809C242.669 98.4741 242.32 99.6192 240.578 99.9072C232.473 101.251 230.046 100.106 231.403 101.546C242.69 113.539 240.475 137.634 222.304 145.013C220.898 145.589 221.378 145.033 219.87 145.993C221.659 146.453 230.347 146.357 236.059 146.823L235.421 147.248C237.239 147.769 237.163 147.639 237.149 147.968C227.001 149.045 148.666 149.223 148.666 148.654C152.431 148.434 186.846 147.611 188.417 147.186C184.494 146.158 137.538 146.267 166.735 145.472C168.017 145.438 177.212 145.136 178.488 144.978C178.083 144.587 178.323 144.656 170.89 144.697C157.094 144.766 141.638 144.814 155.414 144.217C155.414 143.463 117.049 144.423 117.049 143.586C125.25 143.353 121.828 143.477 130.153 143.161L130.166 142.901C124.496 142.633 82.5786 143.072 82.558 142.263C84.9237 141.893 84.1831 142.146 86.4048 142.023C87.7762 141.948 88.1053 141.817 91.4927 141.632C96.4983 141.358 95.5726 141.495 96.4915 141.221C95.1818 140.357 92.2401 140.405 88.1945 135.879C83.0997 130.174 83.1683 124.188 82.7294 119.217C81.7695 118.881 81.118 118.092 80.6929 116.926C73.6302 117.571 72.0119 118.62 70.7297 118.641C69.4954 118.675 68.7411 117.571 69.132 116.405C71.9914 108.053 72.1354 108.677 71.2165 107.868C68.076 105.098 68.5354 105.667 70.9217 98.2889C71.4702 96.609 72.8828 96.8558 74.5079 96.8558C73.253 94.1199 74.0073 91.8296 75.5707 89.6697C76.949 87.7634 77.189 87.4823 78.4232 87.2217C82.1534 86.4263 83.3534 87.4686 84.6357 86.2137C90.3544 80.6321 92.0824 80.255 96.2035 77.5945C96.1212 76.8265 94.9212 76.3808 94.6264 73.0483C94.4618 71.2037 93.7212 69.0095 93.7761 65.1833C93.8172 61.6313 100.139 63.613 117.104 61.7273C117.433 61.6999 117.748 61.6108 118.077 61.6108C120.114 61.597 122.096 61.1719 124.118 60.9319C129.837 60.2462 135.604 57.5651 140.013 57.8051C142.989 57.9697 145.855 59.7662 146.465 62.8107C147.22 66.541 146.411 70.6346 146.411 70.6894C146.486 71.8483 145.924 72.534 144.751 72.8494C145.094 74.3579 145.787 75.8802 143.99 77.5807C142.42 79.0619 137.263 81.1052 135.007 88.2228C133.046 94.3941 135.727 101.656 143.318 104.817C146.801 106.277 146.095 106.853 147.316 106.853C157.999 106.901 157.937 107.717 163.656 101.56C163.944 101.251 164.163 100.826 164.266 100.421C167.976 85.288 166.886 82.5727 161.729 63.517C161.318 61.981 159.994 58.2851 160.173 54.9389C160.2 54.2738 159.713 50.2075 162.463 46.1619C165.171 42.1506 167.976 41.7117 169.711 40.7517C170.081 38.9415 169.615 38.1598 167.99 37.4398C162.195 34.8753 156.106 35.2593 151.265 34.7244C149.901 34.5736 149.668 34.7107 143.579 36.9187C142.495 37.3095 141.679 35.9792 141.96 35.1358C142.283 34.2376 142.509 34.0387 147 32.7427C146.836 32.3039 146.52 32.3999 146.267 32.3999C129.426 32.4136 130.036 32.9896 129.426 30.9188L129.412 30.9393ZM151.341 118.737C160.954 115.678 165.884 103.075 167.53 93.0639C168.305 88.3737 168.257 90.9451 168.23 81.0572C168.216 78.2664 162.909 60.4794 162.525 58.6691C161.064 51.7641 162.545 48.8019 163.601 46.2579C163.43 46.3059 163.34 46.3059 163.313 46.347C161.955 47.7939 161.174 50.8727 160.954 53.1081C160.015 62.8313 169.176 75.3591 166.721 93.009C165.411 102.458 160.653 114.759 151.848 118.257C151.656 118.332 151.526 118.586 151.361 118.75L150.628 118.654C150.717 119.175 150.826 119.011 151.341 118.737ZM166.529 55.2749C165.61 55.2337 166.104 54.548 165.871 53.5949C165.13 50.6121 165.919 46.3813 169.382 44.0225C173.077 41.5197 176.787 41.9517 184.549 41.9106C185.845 41.8968 185.811 42.9117 187.011 45.6133C196.803 67.5832 196.213 67.2472 197.214 67.3912C198.654 67.5832 200.074 67.9466 201.513 68.0289C203.406 68.1524 203.461 69.9969 204.249 71.4094C207.116 76.5659 206.91 75.8596 207.664 76.5591L207.87 76.4151C207.205 73.2745 203.18 62.557 202.014 59.3891C197.392 46.8682 196.878 44.1665 184.885 41.2317C182.78 40.7243 175.731 40.5597 171.823 41.6294C168.01 42.6717 165.185 45.7231 164.321 49.2133C163.875 51.0235 163.519 52.8338 163.814 54.6852C163.985 55.7549 163.999 56.8246 164.348 57.8943C164.348 57.9011 169.827 76.799 170.088 80.4058C170.657 88.0171 170.026 91.2673 168.284 98.5495C166.995 103.946 163.704 111.818 159.254 115.98C155.571 119.436 155.407 119.546 154.804 119.751C150.95 121.116 148.372 121.788 144.299 121.472C140.383 121.171 133.026 121.472 125.99 121.047C123.179 120.876 120.354 121.02 117.529 121.02C118.838 121.5 154.358 122.186 154.372 122.186C156.093 122.227 157.738 121.891 159.384 121.445C168.367 119.052 174.408 112.133 178.974 103.987C185.489 92.385 189.692 77.8002 186.51 65.053C184.206 55.8303 178.467 46.6008 179.468 44.0225C180.689 45.6271 186.126 59.2108 187.601 64.2027C190.542 74.1728 188.519 82.7304 188.122 86.3714C189.445 85.9737 190.926 82.9361 195.994 79.5898C202.405 75.3591 204.915 76.7785 206.437 76.4288C205.696 75.3454 205.635 75.3591 204.579 75.5991C202.638 76.0311 200.615 75.3248 196.967 77.4299C196.782 77.5396 196.549 77.5807 196.343 77.6493L196.254 77.4436C199.943 74.5294 203.008 74.8585 205.011 74.5705C204.846 74.0082 204.524 74.07 204.181 74.0837C198.805 74.3031 200.464 73.9397 195.507 75.6882L195.404 75.4688C201.013 71.8346 201.5 73.6448 204.195 72.7397C202.665 71.9374 200.979 72.4723 199.388 72.3146C197.687 72.15 196.288 73.4528 194.622 73.6585C195.747 72.5134 197.159 71.9923 198.647 71.4986C200.19 70.9843 201.76 71.2997 203.399 71.1146C202.905 70.6689 202.905 70.6826 200.903 70.6277C197.228 70.5386 199.415 70.3123 195.671 71.1489C194.862 71.334 194.156 71.9374 193.217 71.7249C195.418 69.7775 195.911 69.8597 197.934 69.078C197.879 68.7626 197.982 68.8723 191.626 67.6038C192.881 67.0484 194.238 67.7272 195.548 67.1787C194.794 65.6564 191.975 59.1354 191.351 57.6954C184.625 41.9517 185.475 42.0066 183.425 42.5825L192.798 65.0118C192.236 64.9433 192.017 65.1627 191.598 64.2027C182.28 42.1917 183.569 42.3768 181.854 42.3906C177.082 42.4111 166.344 41.7666 166.262 51.3184C166.289 51.4281 166.255 55.3709 166.529 55.2749ZM188.897 119.642C182.43 120.78 183.521 120.636 181.889 120.91C180.545 121.13 179.249 120.807 178.803 119.532C178.364 118.291 178.748 118.627 177.267 119.086C174.943 119.82 170.417 121.267 168.442 121.706C158.143 123.968 147.281 122.412 142.214 122.912C141.569 125.724 141.775 125.463 139.78 125.648C137.908 125.827 138.038 126.547 136.639 128.453C135.707 129.728 134.411 130.284 132.847 130.112C131.325 129.934 129.83 130.167 128.322 130.297C120.738 130.949 120.745 131.017 120.128 131.497C119.222 132.19 118.139 132.025 117.083 132.06C116.329 132.08 115.897 131.6 115.417 131.155C115.348 131.093 115.218 131.093 115.033 131.038C114.752 133.726 115.088 134.343 113.696 134.419C112.201 134.494 112.201 137.346 106.304 140.062C103.87 141.173 107.874 140.206 133.643 139.822C146.705 139.63 160.659 140 161.51 140.46C158.088 140.521 137.023 140.871 131.243 141.495C133.375 141.982 145.169 141.337 152.04 141.982C156.833 142.428 191.372 142.983 191.386 142.983C188.807 143.813 186.195 143.436 183.596 143.586L175.683 144.053C175.834 144.197 175.999 144.251 176.163 144.258C177.658 144.313 179.153 144.471 180.62 144.389C187.326 144.032 202.775 145.431 204.304 144.869C201.959 143.422 201.315 143.148 200.3 142.4C189.98 134.679 189.555 123.132 188.897 119.642ZM79.7878 94.0787L79.9729 94.2433C80.1169 94.1404 80.2746 94.065 80.3843 93.9347C94.7772 76.1888 118.317 81.0161 120.32 98.3369C120.669 101.368 119.702 107.806 113.181 111.544C110.651 112.99 109.04 113.038 105.46 113.868C107.312 116.549 108.992 119.422 113.696 120.896C114.333 121.095 115.664 121.02 116.301 120.698C115.657 120.65 115.067 120.636 114.498 120.547C112.907 120.3 111.947 117.406 113.922 116.714C115.986 115.994 116.843 116.275 121.574 116.33C141.22 116.59 137.997 116.679 143.373 116.686C146.239 116.7 149.105 116.391 151.972 116.371C153.528 116.364 154.749 115.795 155.887 114.794C159.322 111.763 162.195 106.716 162.819 104.063C157.347 108.273 159.137 107.909 138.662 107.724C134.438 107.683 130.255 104.433 128.137 101.381C122.939 93.8799 124.564 84.712 130.372 79.5898C132.23 77.9647 134.822 77.0802 136.214 76.0448C137.544 75.0505 137.572 73.6448 136.214 72.7054C133.821 71.0392 129.261 72.15 124.585 72.3351C122.514 72.4243 113.271 73.8505 104.699 76.4836C94.9281 79.4801 84.478 85.0069 79.7878 94.0787ZM180.36 119.251C186.51 115.815 190.7 97.3907 206.896 97.8844C214.377 98.1106 225.876 101.58 240.214 99.1461C241.401 98.9541 241.654 98.5563 241.14 97.4798C239.453 93.9279 236.834 90.0331 233.947 87.352C233.433 88.1474 233.467 88.3531 234.187 88.9222C236.114 90.4445 237.492 92.3782 238.24 94.7096C238.452 95.3541 238.905 95.9987 238.665 96.7735C237.938 96.4855 237.753 92.9336 233.762 89.8685C232.281 88.7234 232.466 90.4994 230.286 89.6834C227.419 88.6137 221.831 85.336 219.698 82.4561C218.718 81.1258 210.16 80.111 208.981 79.6447C212.567 79.4321 216.002 80.1316 219.424 81.0847C219.925 79.8093 220.418 79.0893 219.424 78.8699C217.449 78.4516 215.337 77.7796 209.111 77.6493C204.579 77.5465 200.91 77.7453 196.967 80.1453C183.274 88.4491 181.505 103.747 179.694 118.716C179.564 119.772 180.84 120.327 182.019 120.087C188.725 118.709 186.764 119.559 188.801 118.517L188.705 118.325C187.079 118.709 182.691 120.115 180.36 119.251ZM70.3251 117.31C74.3707 114.266 74.5079 110.789 79.8289 111.358C97.6434 113.23 107.662 115.281 111.81 110.028C117.638 102.636 115.424 90.6228 109.65 86.9817C109.492 86.8789 109.39 86.6937 109.266 86.5566C110.631 86.8171 111.851 87.3383 112.941 88.0788C116.343 90.4171 116.768 91.6376 118.372 93.8387C118.228 92.4947 115.972 88.8742 112.386 86.5086C101.765 79.5213 80.6586 82.9909 70.5994 114.78C70.3662 115.514 69.852 116.241 70.3251 117.31ZM189.047 39.0238C187.457 38.0501 186.202 37.6386 184.309 35.1701C183.534 34.1553 182.718 31.8033 182.849 29.4925C183.109 24.8915 184.494 23.8766 186.401 21.7304L186.311 21.5247C167.564 25.2823 174.737 25.4812 153.336 25.536C150.895 25.5429 155.571 26.0571 152.417 33.8193C154.618 34.4433 155.962 33.545 165.014 35.4787C166.241 35.7392 170.102 36.7952 170.568 39.0649C170.677 39.6203 170.89 40.162 171.061 40.7449L173.283 40.3814C172.563 38.9209 171.898 37.3986 169.951 36.3152C163.951 32.9827 156.161 34.025 153.268 33.1953C153.528 32.0776 153.617 30.9668 154.221 30.0274C164.911 30.3976 171.816 32.2147 177.603 34.0593C184.851 36.3701 186.311 38.1186 187.251 38.8592L186.97 40.1894L189.047 39.0238ZM225.554 112.264C215.982 89.5325 186.51 104.481 195.767 128.179C197.584 132.848 200.78 136.325 205.36 138.361C218.965 144.423 232.068 127.747 225.554 112.264ZM232.226 130.908C231.417 130.695 230.635 136.455 223.511 141.358C217.285 145.657 211.312 144.402 210.832 144.382C199.539 143.867 187.121 126.629 192.853 110.117C195.164 103.452 198.414 101.45 199.168 100.36C197.228 101.237 195.452 102.321 194.259 104.056C189.212 111.489 188.986 121.006 191.557 128.528C199.182 150.855 225.246 151.04 232.226 130.908ZM139.629 68.7078C140.164 66.4175 140.438 64.1273 140.26 61.8096C140.184 60.7673 139.458 59.9719 138.484 59.5948C136.783 58.9091 135.151 59.9514 127.074 62.077C121.924 63.4279 116.898 63.6062 111.591 64.0176C94.4618 65.3615 94.4412 64.7513 94.4755 65.5467C94.5029 66.1981 94.4824 65.8415 110.212 64.9776C126.841 64.0656 131.126 61.3502 136.804 60.1296C138.388 59.7868 139.718 60.8496 139.574 62.317C139.54 62.7079 139.608 63.1262 139.574 63.517C139.06 69.0232 139.238 68.8175 137.942 68.8586C128.5 69.222 110.301 71.7523 97.5269 76.1133C97.2526 76.1956 96.8823 76.2711 96.992 76.655C97.1223 77.0939 97.5132 76.9156 97.8286 76.8813C97.8423 76.8813 114.717 70.5934 137.887 69.6266C142.673 69.4278 143.983 70.3672 145.56 71.1077C145.841 70.4769 145.375 70.278 145.005 70.1135C142.653 69.1123 143.599 69.558 139.629 68.7078ZM85.9659 119.765C84.7248 127.068 90.375 136.839 98.2126 136.736C104.548 136.661 107.977 132.43 109.602 126.478C107.716 125.456 108.56 126.814 106.695 129.817C100.914 139.136 88.1945 134.851 87.7968 120.78C87.7762 119.985 86.8094 119.957 85.9659 119.765ZM98.4594 125.251C97.7326 125.477 97.0675 125.888 96.4778 125.813C93.5978 125.436 93.4881 123.255 92.9807 121.04C92.4253 120.766 91.9727 120.862 91.7121 121.562C91.527 120.862 91.2527 120.471 90.5601 120.636C90.0116 122.48 91.3898 129.584 96.8892 130.51C100.229 131.072 103.115 128.467 103.856 125.573C102.855 125.436 101.943 125.347 101.038 125.148C100.427 125.018 100.174 125.141 100.078 125.772C99.9337 126.698 98.3566 126.711 98.4869 125.642C98.5074 125.484 98.4731 125.347 98.4594 125.251ZM150.95 117.756C150.84 117.015 150.95 118.14 117.913 117.475C116.267 117.441 114.128 117.07 113.922 117.214C110.72 119.505 115.588 118.922 142.029 119.415C146.966 119.511 149.496 118.284 150.95 117.756ZM190.446 37.8512C192.606 37.9746 194.204 36.9804 195.322 35.2044C197.639 31.5222 197.612 27.2023 194.842 23.7463C192.908 21.3464 190.275 20.5098 187.34 22.2926C180.798 26.2971 183.404 38.0363 190.446 37.8512ZM227.426 77.711C221.975 77.1762 218.519 80.3853 220.981 83.0801C222.633 84.8766 229.161 88.9771 231.273 89.1142C232.411 89.1965 233.104 88.3188 232.823 87.304C231.972 88.5931 231.321 88.744 229.867 88.0171C227.831 86.9886 228.42 87.5714 223.141 83.6766C222.729 83.3681 222.393 82.9772 222.016 82.6206L222.16 82.4355C223.449 83.2309 224.649 84.2115 226.302 84.4378C226.185 83.7178 226.151 83.1075 225.966 82.5315C225.396 80.7144 225.664 79.1167 227.426 77.711ZM88.6608 120.321C88.6196 120.547 88.5168 120.787 88.5442 121.02C88.6745 122.35 88.7156 123.701 89.0242 124.983C91.3007 134.425 102.615 136.997 106.489 126.883C106.791 126.074 106.544 125.861 105.659 125.998C105.145 126.924 104.754 127.884 104.144 128.679C98.8983 135.536 89.9567 130.373 89.7304 121.342C89.7099 120.471 89.6619 120.451 88.6608 120.321ZM83.7306 112.723C83.0791 112.38 82.6746 112.483 82.5443 112.915C80.5832 119.107 80.8643 118.174 91.1224 119.806C93.0012 120.101 94.2629 120.382 95.7166 120.561C98.048 120.835 100.853 120.972 101.223 121.075C102.683 121.472 104.164 121.397 105.646 121.363C106.839 121.335 107.655 120.622 108.34 119.745C108.91 119.031 108.087 118.565 106.955 117.509C107.216 118.757 107.675 119.265 106.345 119.799C103.314 121.006 86.6585 117.975 83.7306 117.516C82.0232 117.242 82.7706 115.836 83.7306 112.723ZM115.938 129.392C115.232 130.023 115.197 130.339 115.876 130.709C116.967 131.319 116.754 130.723 125.14 129.804C128.37 129.454 129.892 129.42 130.53 129.235C132.731 128.597 132.388 129.694 133.691 129.379C135.803 128.857 135.837 128.515 139.368 122.618C138.203 122.35 138.038 122.378 137.517 123.173C137.078 123.831 134.431 128.713 133.183 127.774C132.306 127.109 133.108 127.507 118.825 128.995C118.448 129.043 118.173 129.132 118.029 129.577C117.659 130.832 116.624 129.859 115.938 129.392ZM112.125 132.279C111.22 133.541 110.912 134.494 108.8 136.53C105.111 140.082 99.1588 141.57 93.3372 138.224C86.8094 134.46 83.8746 126.108 84.3203 120.485C84.43 119.121 83.7306 119.34 83.614 119.621C83.518 119.861 83.1477 124.634 85.0745 129.413C88.839 138.725 96.8137 142.092 103.095 140.377C108.087 139.026 111.488 135.07 112.125 132.279ZM228.105 140.796C232.679 137.374 237.019 130.462 237.52 121.13C237.602 119.765 237.259 118.387 237.225 117.015C237.149 113.669 235.168 106.353 229.826 101.121C229.586 100.881 229.278 100.6 228.777 101.052C230.162 102.616 231.602 104.131 232.658 105.941C237.273 113.813 237.863 122.693 234.996 130.249C233.213 134.926 232.123 135.811 228.105 140.796ZM73.8565 99.1255C72.8553 102.122 72.5056 102.808 71.8954 105.982C71.8611 106.154 72.0668 106.428 72.2451 106.558C72.7113 106.929 73.8222 103.946 77.1684 97.9118C73.9113 97.5758 72.7662 97.0752 71.7719 98.2752C71.4222 98.7003 69.8245 104.522 69.8108 104.536C69.756 105.112 70.9971 106.552 71.3262 104.783C71.4908 103.877 71.6348 102.328 72.6565 100.017C72.8279 99.6192 73.0816 99.1049 73.8565 99.1255ZM125.503 122.707C124.653 121.946 124.345 123.173 123.364 123.886C122.144 124.771 122.425 125.086 115.691 124.682C104.048 123.982 103.431 123.166 102.923 124.147C102.868 124.256 103.088 124.647 103.246 124.716C103.774 124.928 104.329 125.127 104.884 125.182C104.898 125.182 115.581 125.868 116.288 125.882C119.024 125.943 124.31 127.328 125.503 122.707ZM137.97 81.4412L137.723 81.2972C135.124 84.1223 133.108 87.2286 133.012 91.2399C132.936 94.209 132.882 97.8844 136.749 102.101C138.648 104.165 140.843 105.777 143.51 106.661C143.983 106.812 144.525 106.984 145.08 106.771C143.969 105.503 141.405 105.599 138.127 102.472C133.752 98.3164 132.813 92.7347 134.246 87.8525C135.062 85.0686 136.434 83.4778 137.97 81.4412ZM78.5878 94.1953L83.1889 87.6263C81.8929 87.4891 80.734 87.928 79.0267 87.9074C77.8335 87.8868 77.2918 88.5794 76.6816 89.4982C78.2518 90.5885 78.8072 92.1176 78.5878 94.1953ZM187.566 41.026C189.171 42.1026 188.101 40.8752 195.322 44.6465C196.014 45.0168 196.309 45.6819 197.749 47.3413C198.668 48.3836 200.773 48.5824 201.171 47.1425C201.328 46.6076 201.15 46.4362 200.19 45.9836C188.081 40.3746 189.116 40.5597 187.566 41.026ZM120.793 127.808C122.493 127.884 120.813 127.987 126.155 127.397C132.923 126.643 133.375 126.848 133.883 125.978C134.301 125.271 134.637 124.503 134.891 123.722C135.062 123.152 134.822 122.912 134.143 122.686C134.582 125.436 135.138 125.031 125.641 126.293C121.458 126.848 120.649 126.423 120.793 127.808ZM150.106 28.6834C149.194 28.5874 150.106 28.6628 139.368 28.5188C131.908 28.4228 132.127 28.2171 131.922 28.8479C132.738 29.1017 148.742 29.7531 149.4 29.7531C150.23 29.7531 150.237 29.7188 150.106 28.6834ZM101.669 116.549C101.374 115.774 100.784 115.521 100.249 115.26C97.952 114.149 95.4835 113.909 92.9807 114.108C92.631 114.135 92.3018 114.375 91.7464 114.615C92.2127 114.89 92.4321 115.089 92.6858 115.15C96.0938 116.035 95.792 115.946 101.154 116.679C101.278 116.7 101.415 116.625 101.669 116.549ZM185.475 40.402C184.604 38.2489 178.069 38.0501 176.033 40.1346C179.249 40.1003 182.348 39.9563 185.475 40.402ZM150.422 32.3382C149.352 32.5645 150.36 32.153 144.285 34.4227C143.393 34.7587 142.708 34.985 142.893 35.6707C142.92 35.7941 143.236 35.8832 143.421 35.8901C143.585 35.9038 143.764 35.7735 143.928 35.7187C150.333 33.5039 150.388 33.7439 150.422 32.3382ZM93.9818 121.191C93.6732 123.591 96.0938 125.594 97.0332 124.243C97.8492 123.056 97.7532 122.055 98.7543 122.117C101.627 122.316 102.005 122.686 102.978 122.268C101.147 122.062 99.344 121.555 97.472 121.685C97.0675 123.098 96.4229 124.208 95.2915 123.276C94.0984 122.282 95.1406 121.301 93.9818 121.191ZM151.046 25.5634C151.306 26.2217 151.642 26.7634 151.745 27.3463C152.068 29.2868 152.081 31.2136 151.238 33.065C151.087 33.4147 151.046 33.1199 151.19 33.8399C151.821 33.6204 151.697 33.7781 152.013 33.1884C152.918 31.577 153.048 29.8216 152.801 28.032C152.705 27.3668 152.376 26.736 152.081 26.112C151.93 25.7829 151.677 25.4332 151.046 25.5634ZM94.8526 117.324C94.5235 116.974 94.9966 116.865 92.007 116.371C91.4858 116.289 90.951 116.295 90.4162 116.241C90.1967 116.22 89.9567 116.069 89.7922 116.124C89.5659 116.206 89.3945 116.439 89.1956 116.611C90.0596 117.55 89.1407 116.844 93.9955 117.831C94.4618 117.934 94.8184 117.77 94.8526 117.324ZM166.255 121.212C169.34 120.746 172.207 119.772 174.538 117.571C171.953 119.21 169.176 120.355 166.255 121.212ZM142.824 72.2597C144.079 76.1339 144.12 75.2494 142.564 77.6287C143.935 76.8608 144.635 75.6951 144.381 74.5431C144.189 73.6448 144.086 72.6026 142.824 72.2597ZM109.28 120.142C108.471 120.471 108.286 121.15 108.155 121.788C107.991 122.59 108.231 123.043 109.506 122.796C109.712 121.63 109.657 121.04 109.28 120.142ZM116.487 127.459C116.507 126.101 114.978 126.074 114.957 127.479C114.944 128.014 115.156 128.213 115.753 128.234C116.322 128.268 116.473 128.103 116.487 127.459ZM113.751 121.781C113.977 122.35 113.517 122.988 114.203 123.283C115.101 123.667 115.842 122.837 115.163 121.76C114.121 121.671 114.512 121.685 113.751 121.781ZM103.108 118.455C102.334 116.885 100.304 117.365 100.949 118.641C101.655 118.654 102.354 118.839 103.108 118.455ZM96.8412 116.57C96.6012 117.05 96.416 117.276 96.3818 117.516C96.3338 117.879 96.7863 118.346 96.9989 118.202C97.184 118.085 97.3623 117.77 97.3486 117.55C97.3417 117.29 97.1086 117.05 96.8412 116.57ZM100.119 118.181C100.153 117.585 99.8788 117.454 99.5223 117.434C98.5417 117.365 98.8777 118.599 99.6045 118.572C99.8034 118.572 100.002 118.284 100.119 118.181ZM106.77 121.877L106.201 122.487C106.585 122.83 106.53 123.111 107.161 122.323C107.182 122.302 106.969 122.11 106.77 121.877ZM118.982 127.863L119.003 128.158C119.298 128.302 119.6 128.412 119.929 127.863H118.982ZM114.416 128.288C114.073 128.755 114.203 128.974 114.519 129.097C114.587 129.118 114.697 129.029 114.861 128.974L114.416 128.288ZM105.056 115.034C105.268 114.903 105.268 114.979 104.919 114.561C104.761 114.684 104.775 114.609 105.056 115.034Z" fill="white"/>
</g>
<path d="M129.437 30.9189C128.944 30.0892 129.28 29.2526 129.424 28.4023C129.424 31.1931 129.41 30.9532 129.437 30.9189Z" fill="white"/>
<path d="M174.297 81.4963C172.645 80.6323 173.145 80.2346 171.157 72.9936C170.396 70.2028 169.216 68.8177 175.943 68.2692C176.492 68.228 176.937 68.4131 177.109 69.0097C177.109 69.0234 178.892 74.5296 180.085 79.9466C180.318 80.9958 179.673 81.8118 178.597 81.8666C178.569 81.8803 175.292 82.0175 174.297 81.4963ZM177.637 75.6953L177.623 75.325C176.533 75.229 175.422 75.2633 174.332 75.4142C173.893 75.469 173.68 75.805 173.838 76.3193C174.277 77.6838 173.228 79.8369 178.144 79.6107C178.309 79.5969 178.473 79.4461 178.837 79.2609C176.204 78.4655 175.353 80.1661 174.887 76.4016C174.867 76.2301 175.278 75.901 175.552 75.8256C175.923 75.709 175.916 75.8256 177.637 75.6953ZM176.389 69.5377C176.156 69.3183 176.087 69.2291 176.046 69.2291C175.017 69.3731 173.982 69.4897 172.967 69.7091C171.616 70.004 172.851 73.1582 173.392 74.2142C175.641 74.029 174.037 74.0496 173.495 71.06C173.2 69.5171 174.668 70.34 176.389 69.5377ZM176.869 73.1993C176.403 73.6245 175.683 73.0896 175.216 73.693C176.471 73.9879 176.773 73.9056 176.869 73.1993Z" fill="white"/>
<path d="M159.033 117.325C163.449 112.615 164.334 112.169 167.46 105.449C170.265 99.4422 171.499 92.8457 172.631 88.3887C172.96 89.0401 172.85 89.5201 172.747 90.0001C171.65 95.3897 169.854 109.666 159.033 117.325Z" fill="white"/>
<path d="M198.277 65.3458C197.474 65.4006 197.632 65.4143 194.711 58.3585C183.294 30.7864 197.783 62.9252 198.277 65.3458Z" fill="white"/>
<path d="M187.16 42.946C188.394 42.6306 191.124 43.6112 192.769 44.9826C189.341 43.618 190.815 44.1529 187.16 42.946Z" fill="white"/>
<path d="M180.517 66.9095C177.712 65.9701 178.919 66.1553 175.957 66.1553C177.246 65.4147 179.399 65.5656 180.167 66.3541C180.263 66.457 180.318 66.5941 180.517 66.9095Z" fill="white"/>
<path d="M173.994 84.8544C174.714 84.1345 174.714 84.1345 176.284 84.8544H173.994Z" fill="white"/>
<path d="M166.514 55.275L166.713 56.7492L166.459 56.7698C165.945 56.0292 166.644 55.2338 166.514 55.275Z" fill="white"/>
<path d="M194.532 45.8457C194.957 46.4423 194.971 46.3874 194.868 46.4971C194.292 45.976 194.292 46.0926 194.532 45.8457Z" fill="white"/>
<path d="M153.206 115.458C152.952 115.513 152.705 115.623 152.465 115.623C145.855 115.554 142.55 116.103 131.668 115.623C128.76 115.486 127.951 115.253 119.963 115.253C120.073 113.648 153.158 115.095 153.206 115.458Z" fill="white"/>
<path d="M233.796 98.371C229.49 98.371 229.147 98.5287 228.825 97.795C225.876 91.2534 218.553 86.3232 211.566 83.9164C204.421 81.4547 196.912 82.0924 191.056 87.4889C188.382 89.9574 185.941 93.9002 185.324 95.635L185.084 95.5596C187.525 88.4078 195.562 81.8045 203.44 81.8662C208.782 81.9073 208.062 81.681 211.216 82.3599C219.054 84.033 226.151 88.5038 230.1 93.0774C231.376 94.5448 232.466 96.1905 233.632 97.7607C233.707 97.8704 233.693 98.0213 233.796 98.371Z" fill="white"/>
<path d="M102.136 88C102.445 88.0206 102.671 87.9794 102.835 88.0549C106.511 89.7348 108.952 92.4845 110.028 96.393C110.337 97.5107 110.673 98.6627 110.652 99.8009C110.598 102.804 109.974 105.705 107.958 108.084C105.66 110.806 103.555 110.251 97.0892 110.224C96.9452 110.224 96.8149 110.176 96.6641 110.011C98.8035 109.558 102.609 110.621 105.866 108.496C109.267 106.288 110.262 101.618 109.583 97.5861C108.273 89.8308 102.609 88.7543 102.136 88Z" fill="white"/>
<path d="M83.2852 95.2426C83.3537 94.5775 83.6897 94.5775 84.0051 94.5363C89.6896 93.7272 101.353 93.9124 104.076 94.2141C104.11 95.0026 104.055 93.8986 83.2852 95.2426Z" fill="white"/>
<path d="M82.3398 96.5313C89.1969 95.6124 95.9647 96.0513 102.739 96.0718L102.767 96.3187C101.32 96.5724 89.718 96.4284 83.3204 97.073C82.9913 97.1072 82.5798 97.2581 82.3398 96.5313Z" fill="white"/>
<path d="M89.4501 93.0279C87.441 93.1034 86.2959 93.4531 84.7051 93.3365C85.0754 92.7674 85.5416 92.7331 85.9805 92.6919C90.6364 92.1982 98.7345 91.9582 101.388 92.3285C101.34 92.8976 101.395 92.5479 89.4501 93.0279Z" fill="white"/>
<path d="M86.793 91.0655C88.9324 90.4004 97.6065 89.8313 104.018 90.8804C86.793 91.3261 86.9027 91.4701 86.793 91.0655Z" fill="white"/>
<path d="M100.633 87.927C100.935 87.5567 100.674 87.6116 101.545 87.7076C101.524 88.0025 101.6 87.927 100.633 87.927Z" fill="white"/>
<path d="M171.136 28.2352C172.912 28.2352 175.346 28.2352 176.738 28.2695C178.864 28.3107 180.077 27.3438 180.701 27.3164C179.824 28.3587 178.637 28.8318 177.348 28.9347C173.275 29.2501 174.016 28.7701 171.115 28.5644L171.136 28.2352Z" fill="white"/>
<path d="M154.598 27.8301L161.715 28.3444C160.989 28.8106 160.173 28.6392 159.398 28.6941C158.534 28.7558 157.663 28.8106 156.813 28.7009C156.052 28.6049 155.119 28.9889 154.543 28.1455L154.598 27.8301Z" fill="white"/>
<path d="M224.836 115.278C228.703 129.924 216.333 141.924 204.82 134.923C200.137 132.091 197.415 126.338 196.99 123.355C193.774 100.679 219.734 96.0231 224.836 115.278ZM223.43 120.633C224.452 110.245 212.144 99.1636 202.318 108.256C191.922 117.876 200.562 137.556 213.234 134.861C219.885 133.442 223.938 126.585 223.43 120.633Z" fill="white"/>
<path d="M196.283 29.7094C196.269 36.4018 189.838 39.7069 186.58 34.7013C184.331 31.2522 184.482 27.714 186.676 24.2992C189.728 19.5336 196.29 22.9826 196.283 29.7094ZM190.99 24.7037C189.358 24.4706 188.528 25.9449 187.753 27.4054C187.211 28.4202 187.417 29.5311 187.396 30.6213C187.376 31.7459 187.698 32.7607 188.336 33.7001C191.113 37.8212 195.995 32.7607 194.274 27.3163C193.76 25.698 192.553 24.7449 190.99 24.7037Z" fill="white"/>
<path d="M211.442 132.923C203.879 132.943 199.037 125.483 199.737 118.255C200.429 111.138 205.325 107.298 209.556 107.126C216.873 106.832 221.679 113.634 221.727 120.504C221.782 128.452 215.906 133.149 211.442 132.923ZM216.009 111.693C210.502 106.077 201.588 109.718 200.834 118.811C200.388 124.317 204.05 130.536 209.796 131.023C218.313 131.736 223.64 119.476 216.009 111.693Z" fill="white"/>
<path d="M213.067 120.191C213.396 125.074 207.561 127.035 205.429 123.209C203.303 119.396 205.045 114.534 208.967 114.747C211.408 114.905 213.211 117.702 213.067 120.191ZM205.401 119.972C204.866 122.907 208.514 125.567 210.42 123.119C211.648 121.542 211.607 118.607 210.222 117.106C208.26 114.966 204.99 116.928 205.401 119.972Z" fill="white"/>
<path d="M207.223 122.369C205.153 120.428 206.49 117.013 208.533 117.274C212.119 117.747 210.275 125.221 207.223 122.369Z" fill="white"/>
</g>
</g>
</g>
<defs>
<clipPath id="clip0_19_2">
<rect width="250" height="150" fill="white"/>
</clipPath>
</defs>
</svg>
