<svg width="390" height="295" viewBox="0 0 390 295" fill="none" xmlns="http://www.w3.org/2000/svg">
<mask id="mask0_25_290" style="mask-type:luminance" maskUnits="userSpaceOnUse" x="44" y="152" width="232" height="143">
<path d="M275.904 152.609H44.9824V294.999H275.904V152.609Z" fill="white"/>
</mask>
<g mask="url(#mask0_25_290)">
<path d="M54.5838 156.516C63.3131 157.611 72.0308 158.467 80.7285 159.086C84.3568 159.346 85.4721 154.418 81.7861 153.968C81.1348 153.882 80.3192 154.118 79.593 154.15C71.2066 154.556 62.9182 155.403 54.5953 156.409C54.5636 156.409 54.5405 156.432 54.5405 156.464C54.5319 156.496 54.5636 156.516 54.5838 156.516Z" fill="#8CB89F"/>
</g>
<mask id="mask1_25_290" style="mask-type:luminance" maskUnits="userSpaceOnUse" x="35" y="136" width="232" height="143">
<path d="M266.266 136.549H35.3438V278.938H266.266V136.549Z" fill="white"/>
</mask>
<g mask="url(#mask1_25_290)">
<path d="M44.9451 140.453C53.6744 141.548 62.3922 142.404 71.0898 143.024C74.7181 143.283 75.8334 138.355 72.1474 137.906C71.4961 137.819 70.6806 138.055 69.9543 138.087C61.5679 138.494 53.2796 139.341 44.9566 140.347C44.9249 140.347 44.9019 140.37 44.9019 140.401C44.8932 140.433 44.9249 140.453 44.9451 140.453Z" fill="#8CB89F"/>
</g>
<mask id="mask2_25_290" style="mask-type:luminance" maskUnits="userSpaceOnUse" x="40" y="120" width="232" height="143">
<path d="M271.082 120.48H40.1602V262.87H271.082V120.48Z" fill="white"/>
</mask>
<g mask="url(#mask2_25_290)">
<path d="M49.7615 124.387C58.4908 125.482 67.2086 126.338 75.9062 126.957C79.5345 127.217 80.6498 122.289 76.9639 121.839C76.3125 121.753 75.497 121.989 74.7707 122.021C66.3844 122.427 58.096 123.274 49.773 124.28C49.7413 124.28 49.7183 124.303 49.7183 124.335C49.7096 124.367 49.7413 124.387 49.7615 124.387Z" fill="#8CB89F"/>
</g>
<mask id="mask3_25_290" style="mask-type:luminance" maskUnits="userSpaceOnUse" x="35" y="104" width="232" height="143">
<path d="M266.266 104.418H35.3438V246.807H266.266V104.418Z" fill="white"/>
</mask>
<g mask="url(#mask3_25_290)">
<path d="M44.9451 108.324C53.6744 109.419 62.3922 110.275 71.0898 110.895C74.7181 111.154 75.8334 106.226 72.1474 105.777C71.4961 105.69 70.6806 105.927 69.9543 105.958C61.5679 106.365 53.2796 107.212 44.9566 108.218C44.9249 108.218 44.9019 108.241 44.9019 108.272C44.8932 108.304 44.9249 108.324 44.9451 108.324Z" fill="#8CB89F"/>
</g>
<mask id="mask4_25_290" style="mask-type:luminance" maskUnits="userSpaceOnUse" x="0" y="28" width="257" height="33">
<path d="M0 28.6719H256.006V60.1107H0V28.6719Z" fill="white"/>
</mask>
<g mask="url(#mask4_25_290)">
<path d="M255.233 54.6497C239.233 53.7073 223.65 50.3643 208.728 44.4967C201.48 41.6523 194.508 38.0268 187.799 34.1017C184.355 32.0987 180.77 30.1967 176.865 29.3148C174.822 28.8537 172.718 28.6721 170.635 28.7125C168.493 28.773 166.47 29.2341 164.366 29.554C155.675 30.897 147.003 32.58 138.372 34.2227C129.66 35.8827 120.887 37.3467 112.135 38.7877C94.6703 41.6523 77.2059 44.4564 59.779 47.4795C51.0468 49.0011 42.2743 50.445 33.5824 52.2462C31.4412 52.6871 29.3172 53.2491 27.1558 53.6295C24.9915 54.0099 22.8271 54.3903 20.6657 54.7909L7.40603 57.1742C5.2446 57.5547 3.10045 57.9552 0.956312 58.4567C0.137849 58.6556 0.296355 60.0562 1.15805 59.9783C9.89024 59.036 18.5619 57.3328 27.2336 55.9523C31.5997 55.252 36.0061 54.8313 40.3722 54.1886C44.7383 53.5488 49.0842 52.8485 53.4302 52.1453C70.8744 49.2836 88.3013 46.2576 105.725 43.2344C114.478 41.7128 123.23 40.2286 132.003 38.7473C140.775 37.266 149.605 36.0642 158.378 34.6809C162.565 34.021 166.629 33.3812 170.877 33.459C174.782 33.5397 178.266 34.8221 181.672 36.6637C188.661 40.4505 195.511 44.6754 203.062 47.3008C206.785 48.5804 210.431 50.0242 214.218 51.1049C218.002 52.1857 221.846 53.0675 225.734 53.7678C233.524 55.1713 241.455 56.033 249.366 55.9725C251.328 55.9523 253.311 55.8716 255.273 55.7506C255.936 55.6901 255.936 54.69 255.233 54.6497Z" fill="#206B21"/>
</g>
<path d="M206.585 16.8822C208.014 18.1186 208.524 19.1589 209.372 17.3952C210.839 14.3577 209.778 7.98576 207.412 10.5997C207.291 10.7409 207.167 10.8821 206.988 10.9887C207.573 9.3806 208.242 9.01172 210.133 9.06359C222.381 9.46994 222.928 9.23939 237.297 9.41519C240.738 9.45265 239.116 6.80417 242.664 6.83876C249.652 6.9281 261.972 7.12118 269.457 6.22203C286.155 4.22775 292.385 -0.221925 305.094 0.00862771C319.639 0.273764 322.305 25.9545 307.319 29.7327C306.754 29.8739 306.138 29.7672 305.573 29.8566C305.184 29.9286 304.812 30.1563 304.443 30.3148C304.53 30.9171 304.302 30.5627 306.383 31.4099C323.841 38.5052 323.418 37.8539 324.372 39.9C325.06 41.4015 323.983 44.8425 322.64 45.6379C321.74 46.1653 320.294 46.0068 319.057 46.0068C322.481 54.2318 329.596 73.9325 332.524 82.3506C335.19 90.0136 334.133 90.6822 336.919 90.9128C355.632 92.4142 353.407 94.3538 355.56 93.2788C359.231 91.4603 365.568 90.0828 368.975 92.6967C373.883 96.4547 375.577 102.616 375.525 105.086C375.488 106.781 379.479 108.847 383.537 115.184C385.428 118.15 387.191 121.202 388.886 124.291C389.947 126.216 389.382 128.069 386.557 128.545C373.442 130.715 369.505 128.862 371.713 131.193C389.981 150.609 386.396 189.618 356.972 201.57C354.695 202.503 355.473 201.604 353.035 203.157C355.931 203.898 369.998 203.74 379.249 204.498L378.209 205.186C381.154 206.034 381.03 205.823 381.013 206.351C364.58 208.1 237.756 208.382 237.756 207.463C243.845 207.111 299.57 205.768 302.112 205.083C295.757 203.423 219.735 203.598 267.004 202.31C269.088 202.258 283.967 201.763 286.033 201.515C285.379 200.881 285.768 200.987 273.731 201.057C251.402 201.163 226.372 201.25 248.681 200.281C248.681 199.062 186.567 200.616 186.567 199.255C199.841 198.886 194.299 199.08 207.784 198.567L207.801 198.143C198.622 197.719 130.753 198.425 130.719 197.12C134.549 196.52 133.35 196.927 136.949 196.731C139.174 196.61 139.702 196.396 145.192 196.097C153.295 195.656 151.794 195.866 153.275 195.425C151.16 194.03 146.393 194.102 139.843 186.777C131.6 177.546 131.707 167.854 131.001 159.805C129.448 159.257 128.387 157.986 127.701 156.099C116.263 157.139 113.649 158.834 111.565 158.871C109.571 158.923 108.355 157.139 108.989 155.251C113.614 141.73 113.845 142.738 112.361 141.43C107.277 136.948 108.018 137.865 111.885 125.916C112.767 123.196 115.061 123.602 117.692 123.602C115.661 119.173 116.88 115.467 119.404 111.971C121.646 108.881 122.033 108.423 124.03 108C130.064 106.711 132.007 108.406 134.09 106.374C143.338 97.3365 146.145 96.7198 152.817 92.4142C152.676 91.1779 150.736 90.4545 150.258 85.051C149.993 82.0682 148.794 78.5205 148.88 72.3244C148.952 66.5721 159.189 69.7826 186.657 66.7306C187.184 66.6788 187.697 66.5376 188.227 66.5376C191.527 66.5174 194.74 65.8315 198.005 65.4424C207.271 64.33 216.608 59.987 223.741 60.376C228.56 60.6412 233.202 63.5519 234.191 68.4771C235.407 74.5147 234.101 81.1517 234.101 81.2411C234.225 83.1114 233.309 84.2238 231.418 84.7339C231.966 87.1692 233.096 89.6418 230.182 92.3941C227.643 94.7947 219.291 98.0974 215.64 109.622C212.461 119.614 216.804 131.369 229.09 136.487C234.738 138.853 233.591 139.79 235.568 139.79C252.866 139.859 252.759 141.185 262.027 131.211C262.485 130.715 262.837 130.029 263.016 129.375C269.016 104.876 267.252 100.481 258.903 69.6241C258.232 67.137 256.096 61.1513 256.379 55.7333C256.43 54.6554 255.638 48.0731 260.085 41.5254C264.48 35.0296 269.016 34.3235 271.823 32.7702C272.422 29.8393 271.664 28.5684 269.033 27.4041C259.661 23.2541 249.793 23.8737 241.958 23.0092C239.75 22.7613 239.381 22.989 229.513 26.5568C227.764 27.1908 226.441 25.038 226.9 23.6778C227.412 22.2138 227.781 21.8967 235.055 19.7958C234.79 19.0898 234.277 19.2483 233.874 19.2483C206.602 19.2656 207.591 20.2022 206.602 16.8476L206.585 16.8822ZM242.081 159.03C257.65 154.07 265.627 133.663 268.292 117.461C269.546 109.87 269.474 114.037 269.422 98.0253C269.405 93.5065 260.808 64.7018 260.191 61.7709C257.825 50.5977 260.226 45.7964 261.938 41.684C261.655 41.7531 261.514 41.7531 261.462 41.8252C259.272 44.171 258.001 49.151 257.65 52.7678C256.131 68.5145 270.958 88.7946 266.987 117.372C264.869 132.675 257.154 152.586 242.911 158.251C242.592 158.375 242.381 158.782 242.116 159.047L240.934 158.888C241.076 159.736 241.251 159.471 242.081 159.03ZM266.67 56.2808C265.186 56.2088 265.981 55.0993 265.609 53.5632C264.41 48.7273 265.681 41.877 271.292 38.0643C277.278 34.0037 283.278 34.7097 295.846 34.6406C297.947 34.6233 297.893 36.2631 299.835 40.6407C315.685 76.2093 314.734 75.6617 316.357 75.8922C318.686 76.2092 320.982 76.7914 323.311 76.9326C326.383 77.1257 326.472 80.1114 327.743 82.4054C332.383 90.7543 332.049 89.6073 333.268 90.737L333.602 90.5064C332.524 85.4227 326.011 68.0707 324.124 62.9352C316.639 42.6724 315.809 38.2948 296.394 33.5454C292.988 32.7154 281.567 32.4503 275.246 34.1823C269.071 35.8769 264.497 40.8194 263.102 46.4679C262.379 49.3959 261.797 52.3269 262.272 55.3269C262.555 57.0561 262.575 58.7881 263.14 60.5172C263.14 60.5345 272.016 91.1231 272.439 96.9677C273.359 109.288 272.336 114.547 269.511 126.34C267.428 135.075 262.096 147.819 254.894 154.563C248.929 160.159 248.664 160.335 247.693 160.669C241.445 162.877 237.28 163.972 230.678 163.459C224.34 162.966 212.427 163.459 201.04 162.77C196.487 162.488 191.916 162.718 187.342 162.718C189.461 163.494 246.969 164.606 246.986 164.606C249.776 164.678 252.442 164.131 255.108 163.407C269.653 159.54 279.431 148.332 286.826 135.147C297.365 116.366 304.178 92.7485 299.022 72.1141C295.299 57.18 285.996 42.2315 287.621 38.0643C289.598 40.658 298.406 62.6527 300.789 70.7365C305.556 86.8694 302.27 100.726 301.636 106.622C303.772 105.988 306.172 101.063 314.38 95.642C324.758 88.7945 328.818 91.0886 331.291 90.5237C330.089 88.7773 329.983 88.7946 328.271 89.1836C325.129 89.8897 321.864 88.7427 315.951 92.1491C315.651 92.3249 315.279 92.3941 314.945 92.5007L314.804 92.1664C320.769 87.4516 325.729 87.9819 328.977 87.5236C328.712 86.6043 328.184 86.7109 327.637 86.7282C318.933 87.0827 321.616 86.5006 313.585 89.3248L313.426 88.9704C322.498 83.0941 323.294 86.0222 327.654 84.5581C325.181 83.2526 322.446 84.1172 319.87 83.8694C317.115 83.6042 314.855 85.7051 312.155 86.0394C313.974 84.1864 316.268 83.3391 318.668 82.5466C321.176 81.7166 323.717 82.2296 326.366 81.927C325.57 81.2036 325.57 81.2209 322.323 81.1344C316.374 80.9932 319.922 80.6215 313.85 81.9817C312.544 82.2814 311.397 83.2526 309.878 82.9155C313.443 79.7569 314.239 79.8981 317.521 78.6272C317.435 78.1142 317.593 78.2929 307.302 76.2438C309.331 75.3447 311.538 76.4398 313.657 75.5551C312.438 73.0853 307.867 62.5288 306.861 60.2002C295.97 34.7097 297.348 34.7991 294.028 35.7357L309.207 72.042C308.29 71.9383 307.936 72.2899 307.267 70.7365C292.175 35.0988 294.258 35.3985 291.486 35.4158C283.754 35.4533 266.367 34.41 266.246 49.8743C266.281 50.0501 266.226 56.4393 266.67 56.2808ZM302.89 160.494C292.423 162.329 294.186 162.099 291.538 162.543C289.368 162.894 287.267 162.381 286.544 160.318C285.838 158.306 286.457 158.854 284.056 159.594C280.296 160.776 272.97 163.125 269.777 163.831C253.096 167.502 235.514 164.978 227.306 165.791C226.265 170.344 226.6 169.92 223.369 170.22C220.335 170.502 220.545 171.667 218.285 174.756C216.77 176.823 214.669 177.722 212.144 177.439C209.671 177.157 207.254 177.529 204.818 177.739C192.533 178.8 192.55 178.903 191.544 179.681C190.08 180.811 188.331 180.546 186.619 180.598C185.403 180.635 184.697 179.857 183.919 179.134C183.812 179.027 183.602 179.027 183.302 178.941C182.844 183.298 183.388 184.287 181.132 184.411C178.711 184.535 178.711 189.16 169.163 193.555C165.227 195.356 171.705 193.785 213.432 193.166C234.58 192.849 257.171 193.448 258.549 194.189C253.007 194.296 218.905 194.86 209.55 195.866C212.991 196.662 232.09 195.621 243.211 196.662C250.978 197.385 306.896 198.284 306.913 198.284C302.749 199.627 298.512 199.01 294.31 199.255L281.494 200.016C281.742 200.244 282.007 200.333 282.273 200.35C284.691 200.44 287.108 200.685 289.492 200.564C300.348 199.979 325.36 202.238 327.83 201.339C324.034 198.99 322.994 198.549 321.351 197.333C304.636 184.834 303.947 166.142 302.89 160.494ZM126.234 119.101L126.534 119.366C126.765 119.207 127.03 119.083 127.206 118.873C150.506 90.1346 188.613 97.9561 191.861 126.003C192.426 130.911 190.855 141.326 180.302 147.378C176.207 149.727 173.593 149.796 167.803 151.139C170.803 155.482 173.524 160.142 181.132 162.522C182.172 162.842 184.325 162.718 185.348 162.205C184.308 162.119 183.354 162.099 182.437 161.958C179.861 161.554 178.308 156.877 181.501 155.747C184.838 154.58 186.233 155.041 193.893 155.128C225.701 155.551 220.476 155.692 229.176 155.71C233.819 155.727 238.462 155.234 243.105 155.2C245.629 155.182 247.606 154.263 249.442 152.64C255.001 147.733 259.661 139.559 260.667 135.271C251.805 142.084 254.701 141.502 221.551 141.202C214.721 141.13 207.942 135.871 204.519 130.928C196.098 118.784 198.729 103.939 208.138 95.642C211.138 93.0137 215.337 91.5842 217.597 89.907C219.752 88.2989 219.787 86.0222 217.597 84.5063C213.715 81.8059 206.337 83.6042 198.763 83.904C195.412 84.0452 180.443 86.3593 166.57 90.613C150.754 95.4662 133.825 104.415 126.234 119.101ZM289.068 159.86C299.022 154.298 305.801 124.467 332.032 125.262C344.141 125.634 362.762 131.245 385.972 127.308C387.898 126.991 388.304 126.357 387.474 124.608C384.739 118.856 380.503 112.553 375.825 108.21C374.995 109.498 375.047 109.835 376.211 110.752C379.338 113.225 381.56 116.349 382.779 120.127C383.114 121.167 383.854 122.207 383.468 123.461C382.284 123.003 381.984 117.248 375.525 112.288C373.125 110.435 373.425 113.311 369.894 111.988C365.251 110.259 356.214 104.945 352.753 100.285C351.165 98.1319 337.308 96.4893 335.404 95.7313C341.211 95.397 346.77 96.5267 352.312 98.0628C353.124 95.9964 353.92 94.8322 352.312 94.4777C349.119 93.8062 345.695 92.714 335.614 92.5007C328.271 92.3422 322.34 92.6592 315.951 96.544C293.78 109.994 290.921 134.758 287.99 158.995C287.78 160.707 289.843 161.606 291.751 161.217C302.607 158.975 299.429 160.352 302.731 158.675L302.573 158.358C299.942 158.975 292.846 161.252 289.068 159.86ZM110.914 156.715C117.462 151.793 117.692 146.162 126.306 147.078C155.149 150.116 171.368 153.433 178.077 144.926C187.521 132.957 183.936 113.507 174.581 107.611C174.333 107.452 174.158 107.152 173.965 106.922C176.169 107.345 178.146 108.193 179.913 109.394C185.42 113.17 186.109 115.147 188.703 118.715C188.472 116.542 184.821 110.683 179.014 106.853C161.82 95.5382 127.646 101.149 111.355 152.62C110.983 153.805 110.153 154.986 110.914 156.715ZM303.138 29.9632C300.558 28.3926 298.529 27.7211 295.457 23.7325C294.204 22.0898 292.881 18.2771 293.091 14.5363C293.515 7.0866 295.757 5.44391 298.846 1.96833L298.705 1.63114C268.344 7.72351 279.961 8.04052 245.309 8.12697C241.358 8.14715 248.929 8.97425 243.828 21.5423C247.393 22.5481 249.566 21.1013 264.215 24.2253C266.209 24.649 272.46 26.3608 273.218 30.0324C273.393 30.9344 273.728 31.8163 274.01 32.7529L277.613 32.1679C276.448 29.8047 275.37 27.332 272.212 25.5856C262.503 20.1849 249.883 21.8795 245.205 20.5365C245.629 18.718 245.77 16.9197 246.741 15.4009C264.056 16.0004 275.229 18.9485 284.601 21.9313C296.339 25.672 298.705 28.4963 300.224 29.6981L299.766 31.8509L303.138 29.9632ZM362.234 148.545C346.735 111.74 299.022 135.94 314.008 174.315C316.956 181.869 322.129 187.5 329.542 190.803C351.571 200.616 372.788 173.609 362.234 148.545ZM373.036 178.727C371.73 178.393 370.459 187.713 358.931 195.656C348.853 202.61 339.179 200.581 338.404 200.544C320.118 199.716 300.011 171.808 309.296 145.067C313.04 134.283 318.299 131.035 319.516 129.268C316.374 130.698 313.498 132.447 311.573 135.254C303.4 147.292 303.031 162.701 307.195 174.88C319.536 211.031 361.738 211.331 373.036 178.727ZM223.124 78.0277C223.989 74.3216 224.43 70.6126 224.147 66.8546C224.023 65.1773 222.842 63.8891 221.268 63.2695C218.516 62.1599 215.868 63.8545 202.789 67.2955C194.458 69.4829 186.319 69.7653 177.723 70.4368C149.993 72.6069 149.958 71.6184 150.01 72.9095C150.065 73.9671 150.03 73.385 175.501 71.9901C202.418 70.5088 209.354 66.1139 218.551 64.1369C221.11 63.5894 223.265 65.3012 223.035 67.6846C222.983 68.3186 223.087 68.9901 223.035 69.6241C222.205 78.5378 222.487 78.2035 220.386 78.2756C205.101 78.8577 175.642 82.9529 154.953 90.0136C154.512 90.1548 153.912 90.2759 154.088 90.8955C154.301 91.6015 154.935 91.3191 155.448 91.2644C155.466 91.2644 182.789 81.0797 220.3 79.509C228.047 79.192 230.165 80.7108 232.724 81.9097C233.185 80.8866 232.424 80.5696 231.825 80.3044C228.012 78.679 229.548 79.4053 223.124 78.0277ZM136.243 160.687C134.232 172.514 143.373 188.33 156.065 188.172C166.322 188.048 171.881 181.2 174.512 171.56C171.457 169.903 172.818 172.108 169.797 176.964C160.443 192.053 139.843 185.117 139.209 162.329C139.174 161.041 137.603 161.007 136.243 160.687ZM156.471 169.566C155.29 169.938 154.212 170.609 153.258 170.485C148.598 169.866 148.422 166.335 147.592 162.753C146.693 162.312 145.97 162.471 145.546 163.6C145.246 162.471 144.805 161.837 143.676 162.099C142.791 165.085 145.016 176.592 153.93 178.093C159.33 178.993 164.008 174.773 165.209 170.096C163.584 169.866 162.103 169.724 160.639 169.407C159.65 169.197 159.244 169.39 159.085 170.413C158.855 171.915 156.296 171.932 156.506 170.203C156.543 169.955 156.489 169.724 156.471 169.566ZM241.445 157.442C241.269 156.24 241.445 158.058 187.962 156.981C185.296 156.929 181.838 156.329 181.501 156.557C176.31 160.263 184.201 159.329 227.006 160.122C235.003 160.283 239.099 158.289 241.445 157.442ZM305.394 28.0727C308.89 28.2687 311.487 26.6605 313.285 23.7844C317.046 17.8188 316.994 10.8273 312.51 5.23353C309.386 1.34872 305.112 -0.00866373 300.365 2.88478C289.774 9.36331 293.993 28.3753 305.394 28.0727ZM365.269 92.6073C356.444 91.7428 350.848 96.9331 354.836 101.291C357.502 104.204 368.076 110.841 371.499 111.072C373.335 111.193 374.465 109.781 374.007 108.141C372.629 110.224 371.571 110.469 369.223 109.288C365.923 107.628 366.874 108.564 358.332 102.262C357.661 101.769 357.113 101.132 356.514 100.55L356.744 100.25C358.825 101.538 360.767 103.126 363.45 103.498C363.257 102.334 363.202 101.345 362.903 100.409C361.986 97.4605 362.41 94.884 365.269 92.6073ZM140.604 161.589C140.532 161.958 140.373 162.347 140.408 162.718C140.621 164.871 140.69 167.062 141.186 169.142C144.875 184.428 163.198 188.595 169.463 172.214C169.956 170.909 169.552 170.554 168.12 170.785C167.293 172.286 166.656 173.84 165.668 175.128C157.177 186.229 142.704 177.863 142.333 163.249C142.298 161.837 142.226 161.799 140.604 161.589ZM132.624 149.286C131.566 148.738 130.912 148.897 130.701 149.603C127.523 159.629 127.984 158.11 144.592 160.759C147.63 161.234 149.676 161.695 152.025 161.978C155.8 162.419 160.336 162.646 160.938 162.805C163.301 163.459 165.702 163.335 168.103 163.283C170.028 163.229 171.351 162.082 172.463 160.652C173.382 159.505 172.057 158.747 170.221 157.035C170.645 159.064 171.388 159.877 169.232 160.741C164.327 162.701 137.356 157.793 132.624 157.053C129.854 156.612 131.07 154.335 132.624 149.286ZM184.766 176.275C183.619 177.298 183.567 177.811 184.659 178.41C186.426 179.399 186.092 178.428 199.665 176.944C204.89 176.379 207.36 176.327 208.383 176.027C211.951 174.987 211.403 176.768 213.502 176.258C216.928 175.41 216.98 174.863 222.701 165.312C220.81 164.871 220.545 164.923 219.698 166.214C218.992 167.272 214.703 175.18 212.692 173.661C211.262 172.586 212.568 173.22 189.443 175.638C188.827 175.71 188.386 175.851 188.155 176.575C187.556 178.604 185.878 177.033 184.766 176.275ZM178.59 180.952C177.123 182.998 176.63 184.535 173.204 187.837C167.238 193.589 157.601 195.99 148.174 190.572C137.603 184.483 132.854 170.961 133.577 161.854C133.753 159.646 132.624 160.001 132.43 160.459C132.272 160.848 131.673 168.577 134.797 176.31C140.886 191.385 153.806 196.837 163.973 194.068C172.057 191.878 177.564 185.471 178.59 180.952ZM366.364 194.737C373.776 189.195 380.802 178.004 381.615 162.894C381.736 160.687 381.191 158.465 381.137 156.24C381.013 150.822 377.802 138.977 369.151 130.504C368.765 130.115 368.269 129.657 367.456 130.398C369.698 132.922 372.03 135.375 373.742 138.306C381.209 151.05 382.16 165.436 377.52 177.67C374.641 185.241 372.877 186.67 366.364 194.737ZM116.632 127.274C115.009 132.127 114.444 133.239 113.456 138.378C113.401 138.66 113.738 139.101 114.021 139.312C114.779 139.914 116.58 135.075 121.998 125.314C116.721 124.767 114.868 123.957 113.26 125.896C112.695 126.585 110.101 136.012 110.084 136.029C109.995 136.966 112.009 139.294 112.537 136.435C112.802 134.971 113.032 132.464 114.692 128.721C114.975 128.069 115.378 127.239 116.632 127.274ZM200.248 165.453C198.87 164.217 198.374 166.214 196.786 167.361C194.809 168.791 195.271 169.301 184.36 168.649C165.509 167.52 164.521 166.194 163.691 167.785C163.604 167.961 163.956 168.595 164.221 168.701C165.068 169.056 165.967 169.373 166.869 169.462C166.887 169.462 184.184 170.572 185.331 170.592C189.763 170.696 198.322 172.938 200.248 165.453ZM220.441 98.6449L220.035 98.4144C215.833 102.985 212.568 108.017 212.409 114.513C212.285 119.314 212.196 125.262 218.464 132.092C221.533 135.43 225.081 138.041 229.407 139.47C230.165 139.718 231.049 140 231.949 139.649C230.147 137.6 226 137.758 220.686 132.692C213.608 125.968 212.092 116.931 214.404 109.023C215.726 104.521 217.951 101.945 220.441 98.6449ZM124.292 119.297L131.742 108.651C129.641 108.441 127.77 109.147 124.998 109.112C123.076 109.075 122.194 110.204 121.205 111.688C123.747 113.452 124.646 115.925 124.292 119.297ZM300.737 33.2111C303.331 34.9576 301.602 32.9633 313.285 39.0701C314.415 39.6695 314.893 40.7473 317.222 43.4304C318.706 45.125 322.112 45.442 322.763 43.1134C323.011 42.2488 322.729 41.9664 321.176 41.243C301.564 32.1506 303.241 32.4503 300.737 33.2111ZM192.622 173.716C195.374 173.84 192.657 173.998 201.305 173.044C212.268 171.825 212.991 172.162 213.821 170.75C214.49 169.603 215.038 168.367 215.444 167.096C215.726 166.177 215.337 165.791 214.245 165.419C214.951 169.866 215.85 169.214 200.475 171.26C193.697 172.162 192.392 171.474 192.622 173.716ZM240.087 13.228C238.603 13.0695 240.087 13.1934 222.701 12.9657C210.625 12.8043 210.98 12.47 210.643 13.4931C211.968 13.8994 237.88 14.96 238.937 14.96C240.28 14.96 240.298 14.9052 240.087 13.228ZM161.662 155.482C161.183 154.228 160.232 153.822 159.368 153.398C155.641 151.597 151.653 151.208 147.592 151.528C147.027 151.58 146.5 151.969 145.598 152.358C146.359 152.799 146.71 153.116 147.117 153.223C152.641 154.652 152.149 154.511 160.832 155.692C161.025 155.727 161.255 155.606 161.662 155.482ZM297.348 32.2053C295.936 28.7096 285.362 28.3926 282.059 31.7644C287.267 31.7097 292.281 31.482 297.348 32.2053ZM240.597 19.1416C238.868 19.5134 240.491 18.8419 230.66 22.5135C229.214 23.061 228.101 23.4328 228.401 24.5423C228.453 24.7383 228.966 24.8795 229.266 24.8968C229.531 24.9141 229.813 24.7037 230.078 24.6144C240.456 21.0322 240.545 21.4183 240.597 19.1416ZM149.218 163.001C148.722 166.883 152.641 170.131 154.16 167.943C155.483 166.018 155.324 164.396 156.947 164.499C161.59 164.819 162.209 165.419 163.78 164.747C160.814 164.413 157.901 163.583 154.866 163.793C154.212 166.09 153.172 167.889 151.336 166.373C149.411 164.765 151.088 163.177 149.218 163.001ZM241.603 8.18173C242.027 9.23939 242.574 10.1213 242.733 11.0579C243.263 14.1992 243.28 17.3232 241.923 20.3261C241.675 20.891 241.603 20.4126 241.834 21.5797C242.857 21.2253 242.664 21.4731 243.174 20.5192C244.641 17.9082 244.851 15.0637 244.445 12.1703C244.286 11.0925 243.756 10.0694 243.28 9.06359C243.032 8.53332 242.629 7.96847 241.603 8.18173ZM150.63 156.736C150.099 156.171 150.857 155.992 146.022 155.2C145.174 155.058 144.31 155.076 143.445 154.986C143.091 154.952 142.704 154.704 142.439 154.793C142.068 154.934 141.785 155.303 141.468 155.586C142.863 157.104 141.379 155.957 149.235 157.563C149.993 157.724 150.575 157.459 150.63 156.736ZM266.226 163.035C271.223 162.278 275.866 160.707 279.641 157.139C275.46 159.788 270.958 161.641 266.226 163.035ZM228.294 83.7829C230.323 90.0482 230.395 88.6188 227.871 92.4661C230.096 91.2298 231.225 89.3421 230.819 87.4718C230.502 86.0222 230.343 84.3276 228.294 83.7829ZM173.982 161.306C172.676 161.837 172.377 162.929 172.163 163.972C171.898 165.26 172.287 166.001 174.354 165.595C174.688 163.707 174.599 162.753 173.982 161.306ZM185.648 173.151C185.685 170.943 183.213 170.909 183.178 173.186C183.161 174.05 183.495 174.367 184.466 174.405C185.386 174.456 185.631 174.191 185.648 173.151ZM181.218 163.955C181.59 164.871 180.849 165.912 181.959 166.39C183.409 167.007 184.607 165.667 183.512 163.917C181.818 163.776 182.455 163.793 181.218 163.955ZM163.99 158.571C162.737 156.03 159.454 156.805 160.497 158.871C161.644 158.888 162.774 159.188 163.99 158.571ZM153.84 155.517C153.454 156.292 153.154 156.664 153.1 157.053C153.03 157.635 153.754 158.393 154.105 158.165C154.405 157.969 154.687 157.459 154.67 157.104C154.653 156.681 154.284 156.292 153.84 155.517ZM159.154 158.128C159.206 157.159 158.765 156.946 158.183 156.911C156.595 156.805 157.143 158.799 158.324 158.764C158.641 158.764 158.961 158.289 159.154 158.128ZM169.921 164.113L169.005 165.102C169.622 165.649 169.532 166.108 170.558 164.837C170.593 164.802 170.238 164.482 169.921 164.113ZM189.691 173.802L189.726 174.281C190.204 174.508 190.697 174.687 191.227 173.802H189.691ZM182.296 174.491C181.749 175.252 181.959 175.603 182.472 175.797C182.579 175.834 182.754 175.693 183.02 175.603L182.296 174.491ZM167.152 153.027C167.486 152.816 167.486 152.94 166.921 152.269C166.673 152.462 166.691 152.338 167.152 153.027Z" fill="white"/>
<path d="M279.304 98.834C276.621 97.4392 277.43 96.7878 274.22 85.0671C272.984 80.5483 271.076 78.3061 281.967 77.4243C282.851 77.3522 283.575 77.6519 283.857 78.6232C283.857 78.6404 286.733 87.5542 288.676 96.3296C289.044 98.0242 288.004 99.347 286.258 99.4363C286.223 99.4536 280.909 99.6813 279.304 98.834ZM284.704 89.4447L284.687 88.8453C282.92 88.6839 281.119 88.7387 279.356 88.9865C278.649 89.073 278.295 89.6205 278.56 90.4505C279.266 92.6581 277.572 96.1509 285.534 95.7821C285.799 95.7648 286.062 95.5169 286.647 95.2172C282.39 93.929 281.015 96.6812 280.255 90.5917C280.22 90.3093 280.892 89.779 281.332 89.6551C281.932 89.462 281.915 89.6551 284.704 89.4447ZM282.693 79.4704C282.304 79.1188 282.197 78.9776 282.128 78.9776C280.468 79.2053 278.791 79.4013 277.148 79.7529C274.961 80.2313 276.955 85.3322 277.837 87.0441C281.474 86.7444 278.88 86.779 277.995 81.9431C277.52 79.4359 279.903 80.7788 282.693 79.4704ZM283.468 85.4014C282.71 86.0902 281.543 85.2256 280.785 86.1968C282.814 86.6723 283.309 86.5484 283.468 85.4014Z" fill="white"/>
<path d="M254.592 156.837C261.739 149.211 263.168 148.485 268.235 137.614C272.771 127.888 274.765 117.207 276.601 109.988C277.131 111.049 276.955 111.824 276.797 112.602C275.013 121.32 272.102 144.444 254.592 156.837Z" fill="white"/>
<path d="M318.121 72.6921C316.833 72.7815 317.08 72.7988 312.348 61.3777C293.869 16.7398 317.328 68.7756 318.121 72.6921Z" fill="white"/>
<path d="M300.135 36.4152C302.129 35.9022 306.541 37.4901 309.207 39.7149C303.665 37.5103 306.048 38.3749 300.135 36.4152Z" fill="white"/>
<path d="M289.364 75.2157C284.828 73.6969 286.788 73.9995 281.986 73.9995C284.067 72.7978 287.563 73.0456 288.799 74.3165C288.958 74.4923 289.047 74.7056 289.364 75.2157Z" fill="white"/>
<path d="M278.812 104.274C279.977 103.107 279.977 103.107 282.519 104.274H278.812Z" fill="white"/>
<path d="M266.698 56.3818L267.018 58.7651L266.612 58.7997C265.782 57.6008 266.911 56.3097 266.698 56.3818Z" fill="white"/>
<path d="M312.063 41.1152C312.752 42.0864 312.77 41.9971 312.611 42.1729C311.677 41.3256 311.677 41.5216 312.063 41.1152Z" fill="white"/>
<path d="M245.15 153.819C244.743 153.908 244.337 154.084 243.948 154.084C233.253 153.977 227.904 154.862 210.287 154.084C205.575 153.873 204.27 153.484 191.33 153.484C191.509 150.888 245.078 153.237 245.15 153.819Z" fill="white"/>
<path d="M375.626 126.157C368.655 126.157 368.107 126.402 367.577 125.221C362.81 114.63 350.948 106.653 339.634 102.751C328.075 98.762 315.913 99.8024 306.431 108.54C302.109 112.529 298.155 118.918 297.149 121.725L296.76 121.601C300.714 110.022 313.723 99.3269 326.484 99.4335C335.135 99.5027 333.968 99.1309 339.069 100.226C351.761 102.944 363.251 110.183 369.643 117.578C371.707 119.961 373.473 122.627 375.361 125.169C375.485 125.345 375.468 125.593 375.626 126.157Z" fill="white"/>
<path d="M162.473 109.371C162.969 109.406 163.338 109.337 163.603 109.458C169.551 112.178 173.505 116.625 175.254 122.962C175.747 124.763 176.295 126.634 176.26 128.47C176.171 133.34 175.165 138.037 171.9 141.885C168.174 146.297 164.767 145.398 154.3 145.343C154.072 145.343 153.859 145.274 153.611 145.009C157.073 144.268 163.234 145.997 168.511 142.556C174.018 138.971 175.623 131.418 174.528 124.887C172.41 112.337 163.234 110.587 162.473 109.371Z" fill="white"/>
<path d="M131.949 121.092C132.056 120.014 132.603 120.014 133.116 119.945C142.313 118.637 161.198 118.937 165.61 119.432C165.665 120.703 165.575 118.919 131.949 121.092Z" fill="white"/>
<path d="M130.412 123.173C141.516 121.692 152.476 122.398 163.439 122.433L163.491 122.839C161.145 123.245 142.363 123.015 132.003 124.058C131.473 124.11 130.801 124.358 130.412 123.173Z" fill="white"/>
<path d="M141.925 117.509C138.678 117.633 136.824 118.198 134.248 118.005C134.847 117.086 135.605 117.034 136.311 116.962C143.848 116.169 156.963 115.78 161.254 116.38C161.182 117.299 161.272 116.734 141.925 117.509Z" fill="white"/>
<path d="M137.635 114.328C141.096 113.251 155.145 112.334 165.526 114.029C137.635 114.752 137.813 114.98 137.635 114.328Z" fill="white"/>
<path d="M160.035 109.246C160.528 108.647 160.104 108.733 161.516 108.892C161.482 109.37 161.606 109.246 160.035 109.246Z" fill="white"/>
<path d="M274.181 12.6063C277.06 12.6063 280.997 12.6063 283.256 12.6611C286.697 12.7302 288.657 11.1596 289.663 11.125C288.251 12.8023 286.325 13.5775 284.245 13.736C277.642 14.249 278.841 13.4709 274.146 13.1366L274.181 12.6063Z" fill="white"/>
<path d="M247.41 11.9531L258.937 12.7831C257.753 13.5411 256.43 13.2586 255.176 13.348C253.782 13.4517 252.369 13.5411 250.992 13.3653C249.758 13.2068 248.257 13.8235 247.32 12.4632L247.41 11.9531Z" fill="white"/>
<path d="M361.118 153.535C367.386 177.242 347.351 196.674 328.711 185.343C321.138 180.755 316.725 171.434 316.037 166.616C310.832 129.9 352.859 122.364 361.118 153.535ZM358.842 162.201C360.502 145.379 340.573 127.448 324.668 142.169C307.829 157.737 321.826 189.596 342.337 185.236C353.107 182.942 359.672 171.841 358.842 162.201Z" fill="white"/>
<path d="M314.889 14.9922C314.872 25.831 304.456 31.1799 299.18 23.0759C295.543 17.4994 295.79 11.7616 299.338 6.23693C304.281 -1.47507 314.906 4.10143 314.889 14.9922ZM306.33 6.89112C303.681 6.51935 302.341 8.9027 301.087 11.2687C300.203 12.9086 300.54 14.7097 300.505 16.4764C300.468 18.2948 300.998 19.9347 302.021 21.4534C306.523 28.125 314.431 19.9347 311.641 11.1275C310.811 8.49635 308.854 6.96029 306.33 6.89112Z" fill="white"/>
<path d="M339.442 182.095C327.191 182.13 319.355 170.057 320.485 158.354C321.615 146.829 329.54 140.616 336.387 140.333C348.232 139.855 356.016 150.87 356.088 161.991C356.174 174.859 346.661 182.467 339.442 182.095ZM346.837 147.728C337.923 138.639 323.485 144.535 322.266 159.256C321.543 168.17 327.474 178.231 336.776 179.023C350.563 180.173 359.195 160.331 346.837 147.728Z" fill="white"/>
<path d="M342.072 161.479C342.599 169.387 333.158 172.565 329.697 166.369C326.256 160.19 329.08 152.32 335.435 152.672C339.389 152.919 342.299 157.456 342.072 161.479ZM329.662 161.127C328.797 165.874 334.691 170.182 337.78 166.228C339.775 163.669 339.706 158.92 337.463 156.484C334.288 153.026 328.991 156.202 329.662 161.127Z" fill="white"/>
<path d="M332.61 165.006C329.256 161.864 331.426 156.34 334.728 156.763C340.535 157.521 337.553 169.631 332.61 165.006Z" fill="white"/>
</svg>
