<svg xmlns="http://www.w3.org/2000/svg" xmlns:xlink="http://www.w3.org/1999/xlink" width="250" zoomAndPan="magnify" viewBox="0 0 187.5 112.499997" height="150" preserveAspectRatio="xMidYMid meet" version="1.0"><defs><filter x="0%" y="0%" width="100%" height="100%" id="e6add24c62"><feColorMatrix values="0 0 0 0 1 0 0 0 0 1 0 0 0 0 1 0 0 0 1 0" color-interpolation-filters="sRGB"/></filter><clipPath id="b4550606ae"><path d="M 11 12 L 174 12 L 174 112.003906 L 11 112.003906 Z M 11 12 " clip-rule="nonzero"/></clipPath><mask id="3547cbda97"><g filter="url(#e6add24c62)"><rect x="-52.25" width="270" fill="#000000" y="-36.749999" height="161.999995" fill-opacity="0.36"/></g></mask><clipPath id="c8c24145b3"><path d="M 11 25.578125 L 22.222656 25.578125 L 22.222656 42.21875 L 11 42.21875 Z M 11 25.578125 " clip-rule="nonzero"/></clipPath><clipPath id="720619cb41"><path d="M 1.421875 27 L 21 27 L 21 31 L 1.421875 31 Z M 1.421875 27 " clip-rule="nonzero"/></clipPath><clipPath id="e54e14c82c"><rect x="0" width="105" y="0" height="53"/></clipPath><mask id="4e70261bf5"><g filter="url(#e6add24c62)"><rect x="-52.25" width="270" fill="#000000" y="-36.749999" height="161.999995" fill-opacity="0.36"/></g></mask><clipPath id="af411f852c"><path d="M 19 24 L 25.328125 24 L 25.328125 30.242188 L 19 30.242188 Z M 19 24 " clip-rule="nonzero"/></clipPath><clipPath id="401251cecf"><path d="M 2 24 L 25.328125 24 L 25.328125 30.242188 L 2 30.242188 Z M 2 24 " clip-rule="nonzero"/></clipPath><clipPath id="abf144b019"><path d="M 0.34375 25 L 25 25 L 25 29 L 0.34375 29 Z M 0.34375 25 " clip-rule="nonzero"/></clipPath><clipPath id="99c7dedeae"><rect x="0" width="96" y="0" height="70"/></clipPath><clipPath id="a4a4270fd3"><path d="M 20 58 L 117 58 L 117 100.003906 L 20 100.003906 Z M 20 58 " clip-rule="nonzero"/></clipPath><mask id="a78cca053f"><g filter="url(#e6add24c62)"><rect x="-52.25" width="270" fill="#000000" y="-36.749999" height="161.999995" fill-opacity="0.36"/></g></mask><clipPath id="f9ad42b19f"><rect x="0" width="97" y="0" height="43"/></clipPath><clipPath id="76a0cc88da"><path d="M 0.394531 12.324219 L 106.449219 12.324219 L 106.449219 24.804688 L 0.394531 24.804688 Z M 0.394531 12.324219 " clip-rule="nonzero"/></clipPath><clipPath id="5488f9b71c"><path d="M 45 0.1875 L 162.394531 0.1875 L 162.394531 87 L 45 87 Z M 45 0.1875 " clip-rule="nonzero"/></clipPath><clipPath id="66108e8464"><rect x="0" width="163" y="0" height="101"/></clipPath></defs><g clip-path="url(#b4550606ae)"><g transform="matrix(1, 0, 0, 1, 11, 12)"><g clip-path="url(#66108e8464)"><g mask="url(#3547cbda97)"><g transform="matrix(1, 0, 0, 1, 9, 28)"><g clip-path="url(#e54e14c82c)"><g clip-path="url(#c8c24145b3)"><path fill="#8cb89f" d="M 102.632812 35.222656 C 102.601562 35.171875 102.546875 35.144531 102.484375 35.148438 C 98.660156 35.398438 94.777344 36.679688 91.414062 38.5 C 88.714844 39.960938 86.324219 42.003906 84.246094 44.628906 C 84.222656 44.660156 84.214844 44.6875 84.230469 44.722656 C 84.871094 46.414062 85.847656 47.867188 87.152344 49.085938 C 87.621094 49.523438 88.210938 49.890625 88.765625 50.269531 C 88.804688 50.296875 88.800781 50.308594 88.753906 50.304688 C 84.175781 50.132812 79.601562 49.960938 75.023438 49.773438 C 73.457031 49.710938 72.28125 49.671875 71.492188 49.664062 C 62.847656 49.5625 54.1875 49.488281 45.542969 49.652344 C 45.234375 49.65625 44.941406 49.792969 44.609375 49.804688 C 44.53125 49.808594 44.519531 49.785156 44.585938 49.742188 C 46.878906 48.214844 48.355469 46.105469 49.015625 43.414062 C 49.015625 43.410156 49.015625 43.40625 49.015625 43.402344 C 49.015625 43.371094 48.992188 43.34375 48.960938 43.34375 L 44.15625 43.414062 C 44.085938 43.414062 44.023438 43.453125 43.988281 43.507812 C 42.617188 45.789062 40.683594 47.058594 37.886719 46.59375 C 35.398438 46.1875 33.671875 44.230469 33.289062 41.78125 C 33.289062 41.777344 33.289062 41.773438 33.289062 41.765625 C 33.289062 41.707031 33.335938 41.660156 33.390625 41.660156 L 36.277344 41.652344 C 36.320312 41.652344 36.347656 41.671875 36.359375 41.710938 C 37.140625 44.175781 40.546875 44.296875 41.234375 41.738281 C 41.246094 41.699219 41.273438 41.675781 41.316406 41.675781 C 42.59375 41.664062 43.902344 41.695312 45.132812 41.617188 C 47.242188 41.484375 49.347656 41.335938 51.453125 41.179688 C 52.28125 41.121094 53.097656 41.085938 53.90625 41.089844 C 59.804688 41.097656 65.710938 41.09375 71.613281 41.082031 C 72.761719 41.078125 73.574219 41.039062 74.046875 40.953125 C 76.851562 40.472656 79.367188 38.558594 80.910156 36.222656 C 82.269531 34.175781 83.335938 31.9375 84.933594 30.097656 C 86.660156 28.101562 88.804688 26.726562 91.371094 25.964844 C 91.402344 25.957031 91.421875 25.933594 91.421875 25.894531 C 91.484375 24.84375 91.308594 23.9375 90.90625 23.183594 C 90.617188 22.644531 89.875 21.496094 88.679688 19.730469 C 87.339844 17.753906 85.953125 15.8125 84.632812 13.816406 C 83.464844 12.058594 82.273438 10.324219 81.050781 8.609375 C 81.046875 8.605469 81.046875 8.601562 81.046875 8.59375 C 81.046875 8.582031 81.054688 8.574219 81.066406 8.574219 C 82.3125 8.617188 83.566406 8.652344 84.824219 8.671875 C 85.183594 8.679688 85.445312 8.625 85.601562 8.511719 C 85.828125 8.351562 85.96875 8.09375 86.027344 7.746094 C 86.382812 5.765625 86.421875 3.867188 86.152344 2.054688 C 86.027344 1.234375 85.894531 0.527344 84.953125 0.550781 C 82.703125 0.621094 80.667969 1.375 78.609375 2.375 C 78.59375 2.378906 78.585938 2.390625 78.582031 2.398438 C 78.558594 2.429688 78.570312 2.46875 78.601562 2.488281 C 79.757812 3.246094 80.347656 4.246094 80.363281 5.484375 C 80.386719 7.375 79.242188 8.917969 77.410156 9.472656 C 77.363281 9.488281 77.34375 9.523438 77.351562 9.570312 C 77.382812 9.789062 77.523438 10.066406 77.574219 10.210938 C 78.3125 12.542969 79.074219 14.871094 79.863281 17.191406 C 80.628906 19.445312 81.222656 21.242188 81.601562 23.253906 C 82.09375 25.875 81.421875 28.632812 80.039062 30.863281 C 78.425781 33.464844 76.203125 35.292969 73.199219 36.128906 C 72.503906 36.324219 71.917969 36.425781 71.449219 36.4375 C 70.128906 36.472656 68.3125 36.472656 65.992188 36.441406 C 64.925781 36.429688 64.109375 36.355469 63.550781 36.226562 C 59.648438 35.335938 57.078125 31.921875 57.34375 27.90625 C 57.40625 26.902344 57.691406 25.957031 58.1875 25.074219 C 59.515625 22.714844 61.519531 21.339844 64.207031 20.941406 C 64.214844 20.941406 64.222656 20.9375 64.234375 20.933594 C 64.265625 20.914062 64.28125 20.863281 64.257812 20.828125 C 63.785156 20.023438 63.308594 19.222656 62.835938 18.421875 C 62.710938 18.214844 62.519531 17.960938 62.257812 17.667969 C 62.230469 17.640625 62.195312 17.621094 62.152344 17.625 C 58.796875 17.664062 55.441406 17.675781 52.085938 17.648438 C 49.515625 17.628906 47.332031 16.695312 45.855469 14.535156 C 45.628906 14.207031 45.414062 13.867188 45.199219 13.527344 C 45.179688 13.492188 45.148438 13.472656 45.109375 13.472656 C 42.769531 13.507812 40.433594 13.519531 38.097656 13.496094 C 36.386719 13.480469 35.535156 15.175781 36.136719 16.652344 C 36.265625 16.957031 36.492188 17.269531 36.824219 17.597656 C 37.5625 18.308594 38.394531 18.828125 39.1875 19.40625 C 39.199219 19.410156 39.203125 19.417969 39.207031 19.429688 C 39.210938 19.449219 39.199219 19.476562 39.175781 19.480469 C 38.058594 19.796875 36.984375 20.230469 35.945312 20.773438 C 33 22.324219 30.320312 24.566406 28.417969 27.304688 C 26.304688 30.34375 24.875 33.695312 24.121094 37.359375 C 24.078125 37.5625 24.046875 37.777344 24.019531 38 C 24.015625 38.042969 24.035156 38.070312 24.082031 38.070312 C 32 38.070312 39.921875 38.066406 47.835938 38.050781 C 49.371094 38.046875 50.613281 37.511719 51.582031 36.4375 C 53.925781 33.832031 52.871094 30.179688 50.734375 27.875 C 49.421875 26.460938 47.792969 25.496094 45.855469 24.980469 C 41.726562 23.890625 37.40625 25.335938 34.261719 28.117188 C 31.933594 30.179688 30.390625 32.789062 29.628906 35.953125 C 29.613281 36 29.589844 36.023438 29.539062 36.023438 L 27.6875 36.027344 C 27.683594 36.027344 27.683594 36.027344 27.675781 36.027344 C 27.65625 36.023438 27.640625 36 27.648438 35.984375 C 28.226562 33.542969 29.230469 31.296875 30.664062 29.242188 C 33.941406 24.535156 40.542969 21.53125 46.292969 23.074219 C 49.5625 23.953125 52.3125 25.953125 53.875 28.976562 C 55.21875 31.578125 55.164062 34.941406 53.375 37.324219 C 51.820312 39.390625 49.578125 40.101562 47.03125 40.105469 C 40.832031 40.113281 34.628906 40.109375 28.425781 40.09375 C 28.382812 40.09375 28.363281 40.113281 28.363281 40.152344 C 28.339844 44.003906 29.921875 47.527344 33.019531 49.832031 C 33.027344 49.839844 33.027344 49.847656 33.03125 49.855469 C 33.03125 49.871094 33.019531 49.886719 33.003906 49.886719 C 31.164062 49.996094 29.316406 50.078125 27.464844 50.132812 C 25.382812 50.199219 23.378906 50.34375 21.328125 50.472656 C 18.289062 50.664062 15.265625 50.96875 12.242188 51.386719 C 12 51.421875 11.769531 51.453125 11.546875 51.484375 C 11.535156 51.488281 11.523438 51.5 11.523438 51.511719 C 11.515625 51.535156 11.535156 51.554688 11.550781 51.554688 C 12.042969 51.578125 12.542969 51.648438 13.011719 51.660156 C 15.476562 51.746094 17.941406 51.839844 20.410156 51.941406 C 21.210938 51.976562 22.027344 51.992188 22.863281 52 C 25.304688 52.023438 27.75 52.09375 30.191406 52.09375 C 47.382812 52.097656 64.578125 52.097656 81.765625 52.089844 C 90.136719 52.082031 95.867188 51.988281 102.75 51.53125 C 102.8125 51.527344 102.851562 51.511719 102.882812 51.488281 C 102.890625 51.484375 102.894531 51.46875 102.894531 51.460938 C 102.898438 51.441406 102.882812 51.417969 102.859375 51.417969 L 98.394531 50.824219 C 98.246094 50.804688 98.234375 50.757812 98.363281 50.679688 C 98.5625 50.558594 98.785156 50.425781 99.039062 50.277344 C 100.835938 49.207031 102.179688 47.683594 103.140625 45.847656 C 104.183594 43.863281 104.535156 41.597656 104.253906 39.375 C 104.066406 37.902344 103.40625 36.453125 102.632812 35.222656 Z M 84.800781 1.984375 C 84.808594 1.964844 84.828125 1.953125 84.84375 1.949219 C 84.878906 1.945312 84.910156 1.964844 84.917969 2 C 85.238281 3.777344 85.226562 5.554688 84.90625 7.324219 C 84.90625 7.335938 84.898438 7.351562 84.882812 7.355469 C 84.863281 7.371094 84.832031 7.363281 84.816406 7.34375 C 84.707031 7.191406 84.605469 6.992188 84.519531 6.757812 C 83.910156 5.113281 84 3.519531 84.800781 1.984375 Z M 99.144531 42.925781 C 97.53125 47.148438 92.375 48.011719 89.546875 44.449219 C 89.320312 44.167969 89.039062 43.671875 88.703125 42.957031 C 88.683594 42.921875 88.691406 42.886719 88.722656 42.859375 C 89.476562 42.183594 90.246094 41.535156 91.046875 40.921875 C 91.246094 40.769531 91.402344 40.65625 91.523438 40.585938 C 91.535156 40.578125 91.546875 40.578125 91.5625 40.578125 C 91.59375 40.582031 91.621094 40.609375 91.617188 40.644531 C 91.515625 41.398438 91.675781 42.050781 92.078125 42.601562 C 93.015625 43.863281 94.941406 43.917969 95.929688 42.691406 C 96.804688 41.609375 96.46875 40.1875 95.289062 39.453125 C 94.980469 39.261719 94.640625 39.179688 94.277344 39.210938 C 94.269531 39.210938 94.253906 39.207031 94.25 39.195312 C 94.246094 39.183594 94.25 39.171875 94.261719 39.160156 C 95.625 38.53125 97.03125 38.039062 98.488281 37.675781 C 98.535156 37.667969 98.578125 37.6875 98.597656 37.722656 C 99.582031 39.21875 99.777344 41.265625 99.144531 42.925781 Z M 99.144531 42.925781 " fill-opacity="1" fill-rule="nonzero"/></g><g clip-path="url(#720619cb41)"><path fill="#8cb89f" d="M 19.050781 30.160156 C 19.546875 30.1875 19.894531 30.160156 20.089844 30.078125 C 20.988281 29.71875 21.132812 28.574219 20.578125 27.835938 C 20.316406 27.488281 20.003906 27.324219 19.636719 27.339844 C 18.222656 27.394531 15.339844 27.539062 10.984375 27.789062 C 7.84375 27.96875 4.710938 28.285156 1.578125 28.675781 C 1.492188 28.6875 1.492188 28.703125 1.570312 28.730469 C 1.757812 28.789062 2.042969 28.785156 2.179688 28.804688 C 7.792969 29.425781 13.414062 29.875 19.050781 30.160156 Z M 19.050781 30.160156 " fill-opacity="1" fill-rule="nonzero"/></g><path fill="#8cb89f" d="M 18.40625 39.175781 C 19.324219 38.75 19.398438 37.519531 18.675781 36.886719 C 18.441406 36.679688 18.179688 36.582031 17.882812 36.59375 C 12.585938 36.8125 7.3125 37.230469 2.054688 37.855469 C 2.046875 37.855469 2.039062 37.863281 2.039062 37.875 C 2.039062 37.882812 2.046875 37.890625 2.054688 37.890625 C 7.234375 38.621094 12.457031 39.175781 17.671875 39.277344 C 17.992188 39.289062 18.242188 39.253906 18.40625 39.175781 Z M 18.40625 39.175781 " fill-opacity="1" fill-rule="nonzero"/></g></g></g><g mask="url(#4e70261bf5)"><g transform="matrix(1, 0, 0, 1, 12, 20)"><g clip-path="url(#99c7dedeae)"><g clip-path="url(#af411f852c)"><path fill="#8cb89f" d="M 21.929688 22.035156 C 24.800781 23.074219 27.671875 24.117188 30.550781 25.15625 C 31.496094 25.5 32.160156 25.671875 32.550781 25.675781 C 33.457031 25.683594 34.234375 25.277344 34.867188 24.46875 C 34.890625 24.4375 34.921875 24.429688 34.960938 24.4375 L 37.363281 25.03125 C 37.40625 25.042969 37.417969 25.070312 37.40625 25.109375 C 36.75 26.976562 36.886719 28.683594 37.824219 30.222656 C 38.710938 31.683594 40.15625 32.671875 41.871094 32.6875 C 45.183594 32.710938 50.269531 32.660156 57.128906 32.527344 C 57.167969 32.527344 57.195312 32.546875 57.199219 32.585938 C 58.042969 37.421875 59.128906 42.238281 60.070312 47.03125 C 60.097656 47.160156 60.167969 47.195312 60.289062 47.148438 L 64.117188 45.523438 C 64.214844 45.480469 64.277344 45.382812 64.273438 45.277344 C 64.078125 40.605469 63.839844 35.933594 63.566406 31.253906 C 63.515625 30.390625 63.417969 29.761719 63.277344 29.363281 C 62.808594 28.074219 61.84375 27.289062 60.363281 27.011719 C 58.902344 26.734375 56.953125 26.664062 55.667969 26.527344 C 53.03125 26.253906 50.386719 25.992188 47.738281 25.742188 C 47.695312 25.738281 47.675781 25.71875 47.695312 25.675781 L 49.542969 20.976562 C 49.558594 20.941406 49.550781 20.914062 49.535156 20.882812 L 47.578125 17.753906 C 47.527344 17.675781 47.429688 17.648438 47.351562 17.695312 L 39.003906 22.40625 C 38.972656 22.421875 38.941406 22.425781 38.910156 22.421875 C 37.894531 22.242188 36.875 22.054688 35.855469 21.851562 C 35.8125 21.84375 35.800781 21.824219 35.816406 21.777344 L 40.421875 10.246094 C 40.453125 10.164062 40.542969 10.117188 40.625 10.144531 L 42.390625 10.632812 C 42.421875 10.640625 42.4375 10.667969 42.421875 10.703125 C 42.242188 11.25 42.101562 11.640625 42.003906 11.875 C 40.886719 14.664062 39.695312 17.546875 38.433594 20.515625 C 38.429688 20.527344 38.429688 20.535156 38.433594 20.542969 C 38.441406 20.554688 38.453125 20.558594 38.46875 20.554688 L 47.964844 15.324219 C 48.023438 15.289062 48.097656 15.3125 48.132812 15.367188 C 49.367188 17.253906 50.558594 19.136719 51.710938 21.023438 C 52.21875 21.851562 52.617188 22.394531 52.902344 22.640625 C 53.871094 23.476562 54.804688 23.539062 56.097656 23.523438 C 58.460938 23.5 60.824219 23.46875 63.191406 23.425781 C 63.242188 23.425781 63.261719 23.398438 63.261719 23.351562 C 63.183594 22.082031 63.660156 21.070312 64.332031 20.042969 C 64.335938 20.035156 64.34375 20.023438 64.34375 20.015625 C 64.347656 19.980469 64.324219 19.945312 64.285156 19.941406 L 56.128906 18.703125 C 56.097656 18.699219 56.074219 18.679688 56.058594 18.648438 C 54.875 16.007812 53.738281 13.335938 52.648438 10.636719 C 52.339844 9.871094 52.019531 9.1875 51.695312 8.585938 C 49.953125 5.363281 46.050781 5.566406 43.871094 8.15625 C 43.847656 8.1875 43.8125 8.199219 43.773438 8.1875 L 41.578125 7.578125 C 41.535156 7.5625 41.519531 7.539062 41.527344 7.496094 C 41.730469 6.394531 41.449219 5.515625 40.683594 4.871094 C 40.449219 4.671875 40.085938 4.484375 39.601562 4.308594 C 36.644531 3.242188 33.6875 2.175781 30.722656 1.117188 C 29.289062 0.605469 28.308594 0.433594 27.125 1.191406 C 26.550781 1.558594 26.285156 1.984375 26.050781 2.609375 C 25.851562 3.140625 25.476562 3.894531 25.222656 4.519531 C 23.476562 8.828125 21.746094 13.140625 20.03125 17.464844 C 19.746094 18.175781 19.59375 18.683594 19.574219 18.996094 C 19.464844 20.480469 20.570312 21.542969 21.929688 22.035156 Z M 27.386719 4.125 L 27.953125 2.875 C 27.972656 2.824219 28.035156 2.796875 28.085938 2.820312 L 38.09375 6.40625 C 38.140625 6.425781 38.148438 6.453125 38.132812 6.496094 L 37.5625 7.769531 C 37.542969 7.808594 37.515625 7.820312 37.476562 7.808594 C 34.089844 6.695312 30.738281 5.488281 27.414062 4.195312 C 27.414062 4.195312 27.40625 4.195312 27.40625 4.195312 C 27.382812 4.183594 27.375 4.152344 27.386719 4.125 Z M 27.386719 4.125 " fill-opacity="1" fill-rule="nonzero"/></g><g clip-path="url(#401251cecf)"><path fill="#8cb89f" d="M 93.257812 52.285156 C 93.226562 52.230469 93.171875 52.207031 93.109375 52.210938 C 89.285156 52.457031 85.402344 53.742188 82.039062 55.5625 C 79.339844 57.023438 76.949219 59.066406 74.871094 61.691406 C 74.847656 61.71875 74.839844 61.75 74.855469 61.785156 C 75.496094 63.472656 76.472656 64.929688 77.777344 66.148438 C 78.246094 66.585938 78.835938 66.953125 79.390625 67.332031 C 79.429688 67.355469 79.425781 67.371094 79.378906 67.367188 C 74.800781 67.195312 70.226562 67.019531 65.648438 66.835938 C 64.082031 66.773438 62.90625 66.734375 62.117188 66.726562 C 53.472656 66.625 44.8125 66.550781 36.167969 66.710938 C 35.859375 66.714844 35.570312 66.855469 35.234375 66.863281 C 35.15625 66.867188 35.144531 66.847656 35.210938 66.804688 C 37.503906 65.277344 38.980469 63.164062 39.640625 60.476562 C 39.640625 60.472656 39.640625 60.46875 39.640625 60.460938 C 39.640625 60.433594 39.617188 60.40625 39.585938 60.40625 L 34.78125 60.476562 C 34.710938 60.476562 34.648438 60.515625 34.617188 60.570312 C 33.246094 62.851562 31.308594 64.117188 28.511719 63.65625 C 26.023438 63.246094 24.296875 61.292969 23.914062 58.84375 C 23.914062 58.839844 23.914062 58.835938 23.914062 58.824219 C 23.914062 58.769531 23.960938 58.722656 24.019531 58.722656 L 26.902344 58.710938 C 26.945312 58.710938 26.972656 58.734375 26.984375 58.773438 C 27.765625 61.238281 31.171875 61.359375 31.859375 58.800781 C 31.875 58.761719 31.898438 58.738281 31.941406 58.738281 C 33.21875 58.726562 34.527344 58.757812 35.761719 58.679688 C 37.867188 58.546875 39.972656 58.398438 42.078125 58.242188 C 42.90625 58.183594 43.726562 58.148438 44.53125 58.152344 C 50.433594 58.160156 56.339844 58.15625 62.238281 58.144531 C 63.390625 58.136719 64.199219 58.097656 64.671875 58.015625 C 67.476562 57.535156 69.992188 55.617188 71.535156 53.285156 C 72.894531 51.234375 73.960938 49 75.558594 47.15625 C 77.285156 45.164062 79.429688 43.789062 81.996094 43.027344 C 82.03125 43.019531 82.046875 42.996094 82.046875 42.957031 C 82.109375 41.902344 81.933594 41 81.535156 40.246094 C 81.242188 39.707031 80.503906 38.558594 79.304688 36.789062 C 77.964844 34.8125 76.582031 32.875 75.257812 30.878906 C 74.089844 29.121094 72.898438 27.386719 71.675781 25.671875 C 71.671875 25.664062 71.671875 25.660156 71.671875 25.65625 C 71.671875 25.644531 71.679688 25.636719 71.691406 25.636719 C 72.9375 25.679688 74.191406 25.714844 75.449219 25.734375 C 75.808594 25.738281 76.070312 25.6875 76.226562 25.574219 C 76.453125 25.414062 76.59375 25.15625 76.65625 24.808594 C 77.007812 22.828125 77.046875 20.929688 76.777344 19.117188 C 76.65625 18.296875 76.519531 17.585938 75.578125 17.613281 C 73.328125 17.683594 71.292969 18.4375 69.234375 19.4375 C 69.222656 19.441406 69.210938 19.449219 69.207031 19.460938 C 69.1875 19.488281 69.195312 19.527344 69.226562 19.550781 C 70.382812 20.308594 70.976562 21.308594 70.988281 22.546875 C 71.015625 24.4375 69.871094 25.980469 68.035156 26.535156 C 67.988281 26.550781 67.96875 26.582031 67.976562 26.632812 C 68.007812 26.847656 68.148438 27.128906 68.199219 27.273438 C 68.9375 29.605469 69.699219 31.933594 70.488281 34.253906 C 71.253906 36.507812 71.851562 38.304688 72.226562 40.316406 C 72.71875 42.9375 72.046875 45.695312 70.664062 47.921875 C 69.050781 50.527344 66.828125 52.355469 63.824219 53.191406 C 63.128906 53.386719 62.542969 53.484375 62.074219 53.5 C 60.753906 53.535156 58.9375 53.535156 56.617188 53.503906 C 55.550781 53.488281 54.734375 53.417969 54.175781 53.289062 C 50.273438 52.398438 47.703125 48.984375 47.96875 44.96875 C 48.035156 43.960938 48.316406 43.019531 48.8125 42.136719 C 50.140625 39.777344 52.148438 38.402344 54.832031 38.003906 C 54.839844 38.003906 54.847656 38 54.859375 37.996094 C 54.894531 37.972656 54.90625 37.925781 54.882812 37.890625 C 54.410156 37.085938 53.933594 36.285156 53.460938 35.484375 C 53.335938 35.277344 53.144531 35.023438 52.882812 34.730469 C 52.855469 34.699219 52.820312 34.683594 52.777344 34.6875 C 49.421875 34.726562 46.066406 34.734375 42.710938 34.710938 C 40.144531 34.691406 37.957031 33.757812 36.484375 31.597656 C 36.257812 31.265625 36.039062 30.925781 35.824219 30.589844 C 35.804688 30.554688 35.773438 30.535156 35.734375 30.535156 C 33.398438 30.570312 31.058594 30.578125 28.722656 30.558594 C 27.011719 30.539062 26.160156 32.238281 26.765625 33.714844 C 26.890625 34.019531 27.117188 34.332031 27.453125 34.65625 C 28.1875 35.371094 29.019531 35.890625 29.816406 36.46875 C 29.824219 36.472656 29.828125 36.480469 29.832031 36.488281 C 29.835938 36.511719 29.824219 36.539062 29.800781 36.542969 C 28.683594 36.859375 27.609375 37.289062 26.574219 37.835938 C 23.625 39.382812 20.945312 41.628906 19.042969 44.367188 C 16.933594 47.40625 15.5 50.757812 14.746094 54.421875 C 14.703125 54.625 14.671875 54.839844 14.648438 55.0625 C 14.644531 55.105469 14.660156 55.132812 14.707031 55.132812 C 22.625 55.132812 30.546875 55.125 38.464844 55.113281 C 39.996094 55.109375 41.238281 54.574219 42.207031 53.5 C 44.550781 50.890625 43.5 47.238281 41.363281 44.9375 C 40.046875 43.523438 38.417969 42.558594 36.484375 42.042969 C 32.351562 40.949219 28.03125 42.394531 24.886719 45.175781 C 22.558594 47.238281 21.015625 49.851562 20.253906 53.015625 C 20.238281 53.0625 20.214844 53.085938 20.164062 53.085938 L 18.3125 53.089844 C 18.308594 53.089844 18.308594 53.089844 18.304688 53.089844 C 18.28125 53.085938 18.269531 53.0625 18.273438 53.046875 C 18.851562 50.605469 19.855469 48.359375 21.289062 46.304688 C 24.566406 41.59375 31.167969 38.59375 36.917969 40.136719 C 40.1875 41.015625 42.9375 43.015625 44.5 46.039062 C 45.84375 48.640625 45.789062 52 44 54.386719 C 42.445312 56.453125 40.203125 57.164062 37.65625 57.167969 C 31.457031 57.175781 25.253906 57.171875 19.050781 57.15625 C 19.007812 57.15625 18.992188 57.175781 18.992188 57.214844 C 18.964844 61.066406 20.546875 64.589844 23.644531 66.894531 C 23.652344 66.898438 23.652344 66.910156 23.65625 66.917969 C 23.65625 66.933594 23.644531 66.949219 23.628906 66.949219 C 21.789062 67.054688 19.945312 67.140625 18.089844 67.195312 C 16.007812 67.261719 14.003906 67.40625 11.953125 67.535156 C 8.914062 67.726562 5.890625 68.03125 2.871094 68.449219 C 2.625 68.484375 2.394531 68.515625 2.171875 68.542969 C 2.160156 68.550781 2.148438 68.5625 2.148438 68.574219 C 2.144531 68.597656 2.160156 68.613281 2.175781 68.613281 C 2.667969 68.640625 3.171875 68.710938 3.636719 68.722656 C 6.101562 68.804688 8.566406 68.902344 11.035156 69 C 11.835938 69.035156 12.652344 69.054688 13.488281 69.0625 C 15.929688 69.085938 18.378906 69.152344 20.820312 69.152344 C 38.011719 69.160156 55.203125 69.160156 72.390625 69.148438 C 80.761719 69.144531 86.492188 69.050781 93.375 68.59375 C 93.4375 68.589844 93.476562 68.574219 93.507812 68.550781 C 93.515625 68.542969 93.519531 68.53125 93.519531 68.523438 C 93.523438 68.5 93.507812 68.480469 93.484375 68.480469 L 89.019531 67.886719 C 88.871094 67.867188 88.859375 67.816406 88.988281 67.738281 C 89.1875 67.621094 89.410156 67.488281 89.664062 67.339844 C 91.460938 66.269531 92.804688 64.746094 93.769531 62.910156 C 94.808594 60.925781 95.160156 58.660156 94.878906 56.4375 C 94.691406 54.964844 94.035156 53.515625 93.257812 52.285156 Z M 75.425781 19.046875 C 75.4375 19.027344 75.453125 19.015625 75.472656 19.011719 C 75.503906 19.007812 75.535156 19.027344 75.542969 19.0625 C 75.863281 20.839844 75.855469 22.613281 75.53125 24.386719 C 75.53125 24.398438 75.523438 24.414062 75.511719 24.417969 C 75.488281 24.433594 75.457031 24.425781 75.441406 24.402344 C 75.332031 24.25 75.230469 24.054688 75.144531 23.820312 C 74.535156 22.175781 74.625 20.582031 75.425781 19.046875 Z M 89.769531 59.988281 C 88.15625 64.210938 83 65.070312 80.171875 61.511719 C 79.945312 61.226562 79.667969 60.730469 79.328125 60.019531 C 79.308594 59.984375 79.316406 59.949219 79.347656 59.921875 C 80.101562 59.242188 80.871094 58.59375 81.671875 57.980469 C 81.875 57.828125 82.03125 57.714844 82.148438 57.648438 C 82.160156 57.636719 82.171875 57.636719 82.1875 57.636719 C 82.222656 57.640625 82.246094 57.671875 82.242188 57.707031 C 82.144531 58.460938 82.300781 59.113281 82.703125 59.660156 C 83.640625 60.921875 85.566406 60.980469 86.554688 59.753906 C 87.429688 58.667969 87.097656 57.25 85.917969 56.515625 C 85.605469 56.324219 85.269531 56.242188 84.902344 56.269531 C 84.894531 56.269531 84.878906 56.265625 84.875 56.257812 C 84.871094 56.246094 84.875 56.230469 84.890625 56.222656 C 86.25 55.59375 87.65625 55.101562 89.117188 54.738281 C 89.160156 54.730469 89.203125 54.746094 89.222656 54.78125 C 90.207031 56.28125 90.402344 58.324219 89.769531 59.988281 Z M 89.769531 59.988281 " fill-opacity="1" fill-rule="nonzero"/></g><g clip-path="url(#abf144b019)"><path fill="#8cb89f" d="M 3.160156 27.417969 C 9.472656 28.175781 15.800781 28.664062 22.152344 28.886719 C 23.007812 28.917969 23.582031 28.78125 23.882812 27.960938 C 24.046875 27.507812 24.074219 27.09375 23.960938 26.722656 C 23.664062 25.769531 22.871094 25.675781 21.917969 25.703125 C 14.828125 25.925781 7.691406 26.265625 0.664062 27.097656 C 0.433594 27.125 0.433594 27.148438 0.664062 27.175781 C 1.480469 27.261719 2.363281 27.324219 3.160156 27.417969 Z M 3.160156 27.417969 " fill-opacity="1" fill-rule="nonzero"/></g></g></g></g><g clip-path="url(#a4a4270fd3)"><g mask="url(#a78cca053f)"><g transform="matrix(1, 0, 0, 1, 20, 58)"><g clip-path="url(#f9ad42b19f)"><path fill="#8cb89f" d="M 4.011719 13.484375 C 7.636719 13.9375 11.261719 14.292969 14.875 14.550781 C 16.386719 14.660156 16.847656 12.609375 15.316406 12.425781 C 15.046875 12.386719 14.707031 12.488281 14.40625 12.5 C 10.917969 12.667969 7.472656 13.019531 4.015625 13.4375 C 4 13.4375 3.992188 13.449219 3.992188 13.460938 C 3.988281 13.476562 4 13.484375 4.011719 13.484375 Z M 4.011719 13.484375 " fill-opacity="1" fill-rule="nonzero"/></g></g></g></g><g clip-path="url(#76a0cc88da)"><path fill="#206b21" d="M 106.421875 23.113281 C 99.777344 22.71875 93.308594 21.332031 87.109375 18.894531 C 84.101562 17.714844 81.207031 16.207031 78.417969 14.578125 C 76.988281 13.746094 75.5 12.957031 73.878906 12.589844 C 73.03125 12.398438 72.15625 12.324219 71.292969 12.339844 C 70.402344 12.367188 69.5625 12.558594 68.6875 12.691406 C 65.078125 13.246094 61.476562 13.945312 57.894531 14.628906 C 54.277344 15.316406 50.632812 15.925781 47 16.523438 C 39.746094 17.714844 32.492188 18.878906 25.257812 20.132812 C 21.632812 20.765625 17.988281 21.363281 14.378906 22.113281 C 13.488281 22.296875 12.609375 22.527344 11.710938 22.6875 C 10.8125 22.84375 9.914062 23.003906 9.015625 23.167969 L 3.507812 24.160156 C 2.609375 24.316406 1.71875 24.484375 0.832031 24.691406 C 0.488281 24.773438 0.554688 25.355469 0.914062 25.324219 C 4.539062 24.933594 8.140625 24.226562 11.742188 23.652344 C 13.554688 23.359375 15.386719 23.1875 17.199219 22.921875 C 19.011719 22.652344 20.816406 22.363281 22.621094 22.070312 C 29.867188 20.882812 37.101562 19.625 44.335938 18.371094 C 47.972656 17.738281 51.605469 17.125 55.25 16.507812 C 58.890625 15.890625 62.558594 15.394531 66.203125 14.820312 C 67.941406 14.542969 69.628906 14.277344 71.390625 14.3125 C 73.015625 14.34375 74.460938 14.878906 75.875 15.644531 C 78.777344 17.214844 81.621094 18.96875 84.757812 20.058594 C 86.304688 20.589844 87.816406 21.191406 89.390625 21.640625 C 90.960938 22.089844 92.558594 22.453125 94.171875 22.746094 C 97.40625 23.328125 100.699219 23.683594 103.984375 23.660156 C 104.800781 23.652344 105.625 23.617188 106.441406 23.570312 C 106.714844 23.542969 106.714844 23.128906 106.421875 23.113281 Z M 106.421875 23.113281 " fill-opacity="1" fill-rule="nonzero"/></g><g clip-path="url(#5488f9b71c)"><path fill="#1e3653" d="M 86.253906 7.421875 C 86.847656 7.9375 87.0625 8.371094 87.414062 7.636719 C 88.023438 6.375 87.582031 3.726562 86.601562 4.8125 C 86.546875 4.871094 86.496094 4.929688 86.421875 4.972656 C 86.664062 4.304688 86.945312 4.152344 87.730469 4.171875 C 92.820312 4.339844 93.050781 4.246094 99.019531 4.320312 C 100.453125 4.332031 99.777344 3.234375 101.25 3.25 C 104.15625 3.285156 109.277344 3.367188 112.390625 2.992188 C 119.332031 2.164062 121.921875 0.3125 127.203125 0.410156 C 133.25 0.519531 134.355469 11.195312 128.128906 12.765625 C 127.890625 12.824219 127.636719 12.777344 127.402344 12.816406 C 127.238281 12.84375 127.085938 12.941406 126.929688 13.007812 C 126.96875 13.253906 126.871094 13.109375 127.738281 13.460938 C 134.996094 16.410156 134.820312 16.140625 135.214844 16.992188 C 135.5 17.613281 135.054688 19.042969 134.496094 19.375 C 134.121094 19.59375 133.519531 19.527344 133.007812 19.527344 C 134.429688 22.949219 137.386719 31.136719 138.605469 34.636719 C 139.710938 37.820312 139.273438 38.097656 140.429688 38.195312 C 148.207031 38.816406 147.285156 39.625 148.179688 39.175781 C 149.707031 38.421875 152.339844 37.847656 153.753906 38.933594 C 155.796875 40.496094 156.5 43.058594 156.476562 44.085938 C 156.460938 44.789062 158.121094 45.648438 159.808594 48.28125 C 160.59375 49.515625 161.328125 50.785156 162.03125 52.070312 C 162.472656 52.867188 162.238281 53.636719 161.0625 53.835938 C 155.613281 54.738281 153.976562 53.96875 154.890625 54.9375 C 162.484375 63.007812 160.996094 79.222656 148.765625 84.191406 C 147.820312 84.578125 148.140625 84.203125 147.128906 84.851562 C 148.332031 85.160156 154.179688 85.09375 158.027344 85.40625 L 157.59375 85.695312 C 158.816406 86.046875 158.765625 85.957031 158.757812 86.179688 C 151.929688 86.90625 99.210938 87.023438 99.210938 86.640625 C 101.742188 86.492188 124.90625 85.9375 125.960938 85.648438 C 123.320312 84.960938 91.722656 85.035156 111.371094 84.496094 C 112.234375 84.476562 118.421875 84.269531 119.277344 84.167969 C 119.007812 83.902344 119.167969 83.949219 114.164062 83.976562 C 104.882812 84.019531 94.480469 84.058594 103.753906 83.652344 C 103.753906 83.148438 77.933594 83.792969 77.933594 83.230469 C 83.453125 83.074219 81.148438 83.15625 86.753906 82.941406 L 86.761719 82.765625 C 82.945312 82.589844 54.734375 82.882812 54.71875 82.339844 C 56.3125 82.089844 55.8125 82.261719 57.3125 82.179688 C 58.234375 82.128906 58.457031 82.039062 60.738281 81.914062 C 64.105469 81.730469 63.480469 81.820312 64.097656 81.636719 C 63.21875 81.058594 61.234375 81.085938 58.515625 78.042969 C 55.085938 74.203125 55.132812 70.175781 54.839844 66.832031 C 54.191406 66.601562 53.753906 66.074219 53.464844 65.289062 C 48.710938 65.722656 47.625 66.425781 46.761719 66.441406 C 45.929688 66.464844 45.425781 65.722656 45.6875 64.9375 C 47.609375 59.316406 47.707031 59.734375 47.089844 59.191406 C 44.976562 57.328125 45.285156 57.710938 46.890625 52.742188 C 47.257812 51.613281 48.210938 51.78125 49.304688 51.78125 C 48.460938 49.941406 48.96875 48.398438 50.019531 46.945312 C 50.949219 45.664062 51.109375 45.472656 51.941406 45.296875 C 54.449219 44.761719 55.257812 45.464844 56.121094 44.621094 C 59.964844 40.863281 61.132812 40.609375 63.90625 38.816406 C 63.847656 38.304688 63.039062 38.003906 62.84375 35.757812 C 62.734375 34.519531 62.234375 33.042969 62.269531 30.46875 C 62.300781 28.078125 66.554688 29.410156 77.972656 28.140625 C 78.191406 28.121094 78.40625 28.0625 78.625 28.0625 C 79.996094 28.054688 81.332031 27.769531 82.6875 27.605469 C 86.542969 27.144531 90.421875 25.339844 93.386719 25.5 C 95.390625 25.609375 97.320312 26.820312 97.730469 28.867188 C 98.234375 31.378906 97.691406 34.136719 97.691406 34.171875 C 97.746094 34.953125 97.363281 35.414062 96.578125 35.625 C 96.804688 36.640625 97.273438 37.664062 96.066406 38.808594 C 95.007812 39.808594 91.539062 41.179688 90.019531 45.972656 C 88.699219 50.125 90.503906 55.011719 95.609375 57.136719 C 97.957031 58.121094 97.480469 58.511719 98.300781 58.511719 C 105.492188 58.539062 105.449219 59.089844 109.300781 54.945312 C 109.492188 54.738281 109.636719 54.453125 109.710938 54.179688 C 112.207031 43.996094 111.472656 42.171875 108 29.347656 C 107.722656 28.3125 106.835938 25.824219 106.953125 23.570312 C 106.976562 23.125 106.644531 20.386719 108.492188 17.664062 C 110.320312 14.964844 112.207031 14.671875 113.371094 14.027344 C 113.621094 12.808594 113.304688 12.28125 112.214844 11.796875 C 108.316406 10.070312 104.214844 10.328125 100.957031 9.96875 C 100.042969 9.867188 99.886719 9.960938 95.785156 11.445312 C 95.058594 11.707031 94.507812 10.8125 94.699219 10.246094 C 94.914062 9.636719 95.066406 9.507812 98.089844 8.632812 C 97.980469 8.339844 97.765625 8.40625 97.597656 8.40625 C 86.261719 8.414062 86.671875 8.800781 86.261719 7.40625 Z M 101.007812 66.507812 C 107.480469 64.445312 110.796875 55.964844 111.90625 49.230469 C 112.425781 46.074219 112.398438 47.804688 112.375 41.152344 C 112.367188 39.273438 108.792969 27.296875 108.539062 26.082031 C 107.554688 21.4375 108.550781 19.441406 109.265625 17.730469 C 109.144531 17.761719 109.085938 17.761719 109.066406 17.789062 C 108.15625 18.765625 107.628906 20.835938 107.480469 22.339844 C 106.851562 28.882812 113.011719 37.3125 111.363281 49.191406 C 110.480469 55.554688 107.277344 63.828125 101.355469 66.183594 C 101.222656 66.234375 101.132812 66.40625 101.023438 66.515625 L 100.53125 66.449219 C 100.589844 66.800781 100.664062 66.691406 101.007812 66.507812 Z M 111.230469 23.800781 C 110.613281 23.769531 110.945312 23.308594 110.789062 22.667969 C 110.289062 20.660156 110.820312 17.8125 113.152344 16.226562 C 115.640625 14.539062 118.132812 14.832031 123.359375 14.804688 C 124.230469 14.796875 124.210938 15.480469 125.015625 17.296875 C 131.605469 32.082031 131.207031 31.855469 131.882812 31.949219 C 132.851562 32.082031 133.804688 32.324219 134.773438 32.382812 C 136.050781 32.464844 136.085938 33.703125 136.617188 34.65625 C 138.546875 38.128906 138.40625 37.652344 138.914062 38.121094 L 139.050781 38.027344 C 138.605469 35.914062 135.898438 28.699219 135.113281 26.566406 C 132 18.140625 131.65625 16.324219 123.585938 14.347656 C 122.167969 14.003906 117.421875 13.894531 114.796875 14.613281 C 112.226562 15.316406 110.328125 17.371094 109.746094 19.71875 C 109.445312 20.9375 109.203125 22.15625 109.402344 23.402344 C 109.519531 24.121094 109.527344 24.839844 109.761719 25.558594 C 109.761719 25.566406 113.453125 38.28125 113.628906 40.710938 C 114.011719 45.832031 113.585938 48.019531 112.410156 52.917969 C 111.546875 56.550781 109.328125 61.847656 106.335938 64.652344 C 103.855469 66.976562 103.746094 67.050781 103.34375 67.191406 C 100.746094 68.105469 99.015625 68.5625 96.269531 68.347656 C 93.636719 68.144531 88.683594 68.347656 83.949219 68.0625 C 82.058594 67.945312 80.15625 68.042969 78.257812 68.042969 C 79.136719 68.363281 103.042969 68.824219 103.050781 68.824219 C 104.207031 68.855469 105.316406 68.628906 106.425781 68.328125 C 112.46875 66.71875 116.535156 62.0625 119.609375 56.582031 C 123.988281 48.773438 126.820312 38.957031 124.679688 30.378906 C 123.128906 24.171875 119.265625 17.957031 119.9375 16.226562 C 120.761719 17.304688 124.421875 26.449219 125.414062 29.808594 C 127.394531 36.515625 126.027344 42.273438 125.765625 44.722656 C 126.652344 44.460938 127.648438 42.414062 131.0625 40.160156 C 135.375 37.3125 137.0625 38.265625 138.089844 38.03125 C 137.59375 37.304688 137.546875 37.3125 136.835938 37.476562 C 135.53125 37.769531 134.171875 37.292969 131.714844 38.707031 C 131.589844 38.78125 131.4375 38.808594 131.296875 38.855469 L 131.238281 38.714844 C 133.71875 36.757812 135.78125 36.976562 137.128906 36.785156 C 137.019531 36.402344 136.800781 36.449219 136.570312 36.457031 C 132.953125 36.601562 134.070312 36.359375 130.730469 37.535156 L 130.664062 37.386719 C 134.4375 34.945312 134.765625 36.160156 136.578125 35.554688 C 135.550781 35.011719 134.414062 35.371094 133.34375 35.265625 C 132.199219 35.15625 131.261719 36.03125 130.136719 36.167969 C 130.894531 35.398438 131.847656 35.046875 132.84375 34.714844 C 133.886719 34.371094 134.941406 34.585938 136.042969 34.460938 C 135.714844 34.160156 135.714844 34.167969 134.363281 34.128906 C 131.890625 34.070312 133.367188 33.917969 130.84375 34.480469 C 130.300781 34.605469 129.820312 35.011719 129.191406 34.871094 C 130.671875 33.558594 131.003906 33.617188 132.367188 33.085938 C 132.332031 32.875 132.398438 32.949219 128.121094 32.097656 C 128.964844 31.722656 129.878906 32.179688 130.761719 31.8125 C 130.253906 30.785156 128.355469 26.394531 127.9375 25.429688 C 123.410156 14.832031 123.980469 14.871094 122.601562 15.257812 L 128.914062 30.351562 C 128.53125 30.308594 128.382812 30.453125 128.105469 29.808594 C 121.832031 14.996094 122.699219 15.121094 121.546875 15.125 C 118.332031 15.140625 111.105469 14.707031 111.054688 21.136719 C 111.070312 21.210938 111.046875 23.863281 111.230469 23.800781 Z M 126.285156 67.117188 C 121.933594 67.878906 122.667969 67.785156 121.566406 67.96875 C 120.664062 68.113281 119.792969 67.902344 119.492188 67.042969 C 119.199219 66.207031 119.453125 66.433594 118.457031 66.742188 C 116.894531 67.234375 113.847656 68.210938 112.519531 68.503906 C 105.589844 70.03125 98.28125 68.980469 94.867188 69.316406 C 94.4375 71.210938 94.574219 71.035156 93.234375 71.160156 C 91.96875 71.277344 92.058594 71.761719 91.121094 73.042969 C 90.488281 73.902344 89.617188 74.277344 88.566406 74.160156 C 87.539062 74.042969 86.535156 74.195312 85.519531 74.285156 C 80.414062 74.726562 80.421875 74.769531 80.003906 75.09375 C 79.394531 75.5625 78.667969 75.453125 77.957031 75.472656 C 77.449219 75.488281 77.15625 75.164062 76.835938 74.863281 C 76.789062 74.820312 76.703125 74.820312 76.578125 74.785156 C 76.386719 76.597656 76.613281 77.007812 75.675781 77.058594 C 74.667969 77.109375 74.667969 79.03125 70.699219 80.859375 C 69.0625 81.605469 71.757812 80.953125 89.101562 80.699219 C 97.890625 80.566406 107.28125 80.816406 107.855469 81.121094 C 105.550781 81.167969 91.375 81.402344 87.488281 81.820312 C 88.917969 82.148438 96.855469 81.71875 101.480469 82.148438 C 104.707031 82.449219 127.949219 82.824219 127.957031 82.824219 C 126.226562 83.382812 124.464844 83.125 122.71875 83.230469 L 117.394531 83.542969 C 117.496094 83.640625 117.605469 83.675781 117.714844 83.683594 C 118.722656 83.71875 119.726562 83.824219 120.71875 83.773438 C 125.230469 83.53125 135.625 84.46875 136.652344 84.09375 C 135.074219 83.117188 134.640625 82.933594 133.960938 82.429688 C 127.011719 77.234375 126.726562 69.464844 126.285156 67.117188 Z M 52.855469 49.910156 L 52.980469 50.019531 C 53.078125 49.957031 53.1875 49.902344 53.261719 49.816406 C 62.945312 37.871094 78.785156 41.121094 80.136719 52.78125 C 80.371094 54.820312 79.71875 59.148438 75.332031 61.664062 C 73.628906 62.640625 72.542969 62.671875 70.136719 63.226562 C 71.382812 65.03125 72.511719 66.96875 75.675781 67.960938 C 76.109375 68.09375 77.003906 68.042969 77.429688 67.828125 C 76.996094 67.792969 76.597656 67.785156 76.21875 67.726562 C 75.148438 67.558594 74.5 65.613281 75.828125 65.144531 C 77.214844 64.660156 77.796875 64.847656 80.980469 64.886719 C 94.199219 65.0625 92.027344 65.121094 95.644531 65.128906 C 97.574219 65.136719 99.503906 64.929688 101.433594 64.914062 C 102.484375 64.90625 103.304688 64.527344 104.070312 63.851562 C 106.378906 61.8125 108.316406 58.414062 108.734375 56.632812 C 105.050781 59.464844 106.253906 59.222656 92.476562 59.097656 C 89.636719 59.066406 86.820312 56.882812 85.398438 54.828125 C 81.898438 49.777344 82.988281 43.609375 86.902344 40.160156 C 88.148438 39.066406 89.894531 38.472656 90.832031 37.777344 C 91.726562 37.109375 91.742188 36.160156 90.832031 35.53125 C 89.21875 34.410156 86.152344 35.15625 83.003906 35.28125 C 81.609375 35.339844 75.390625 36.300781 69.621094 38.070312 C 63.046875 40.085938 56.011719 43.808594 52.855469 49.910156 Z M 120.539062 66.851562 C 124.679688 64.542969 127.496094 52.140625 138.398438 52.472656 C 143.433594 52.625 151.171875 54.960938 160.820312 53.324219 C 161.621094 53.191406 161.789062 52.925781 161.445312 52.199219 C 160.308594 49.808594 158.546875 47.1875 156.601562 45.382812 C 156.257812 45.921875 156.277344 46.058594 156.761719 46.441406 C 158.0625 47.46875 158.988281 48.765625 159.492188 50.335938 C 159.632812 50.769531 159.941406 51.203125 159.777344 51.722656 C 159.289062 51.53125 159.164062 49.140625 156.476562 47.078125 C 155.480469 46.308594 155.605469 47.503906 154.136719 46.953125 C 152.207031 46.234375 148.449219 44.027344 147.011719 42.089844 C 146.351562 41.195312 140.59375 40.511719 139.800781 40.195312 C 142.214844 40.058594 144.523438 40.527344 146.828125 41.164062 C 147.167969 40.308594 147.496094 39.824219 146.828125 39.675781 C 145.5 39.398438 144.078125 38.941406 139.886719 38.855469 C 136.835938 38.789062 134.371094 38.921875 131.714844 40.535156 C 122.5 46.125 121.3125 56.417969 120.09375 66.492188 C 120.003906 67.203125 120.863281 67.578125 121.65625 67.417969 C 126.167969 66.484375 124.847656 67.058594 126.21875 66.359375 L 126.152344 66.230469 C 125.058594 66.484375 122.109375 67.433594 120.539062 66.851562 Z M 46.488281 65.546875 C 49.210938 63.5 49.304688 61.160156 52.886719 61.539062 C 64.875 62.800781 71.617188 64.183594 74.40625 60.644531 C 78.332031 55.671875 76.839844 47.585938 72.953125 45.136719 C 72.851562 45.070312 72.777344 44.945312 72.695312 44.847656 C 73.613281 45.023438 74.433594 45.378906 75.167969 45.875 C 77.457031 47.445312 77.742188 48.269531 78.824219 49.75 C 78.726562 48.847656 77.207031 46.410156 74.792969 44.820312 C 67.648438 40.117188 53.445312 42.449219 46.671875 63.84375 C 46.519531 64.335938 46.171875 64.828125 46.488281 65.546875 Z M 126.386719 12.859375 C 125.316406 12.207031 124.472656 11.929688 123.195312 10.269531 C 122.675781 9.585938 122.125 8.003906 122.214844 6.445312 C 122.390625 3.351562 123.320312 2.667969 124.605469 1.222656 L 124.546875 1.082031 C 111.925781 3.613281 116.753906 3.746094 102.351562 3.785156 C 100.707031 3.792969 103.855469 4.136719 101.734375 9.359375 C 103.21875 9.777344 104.121094 9.175781 110.210938 10.476562 C 111.039062 10.652344 113.636719 11.363281 113.953125 12.890625 C 114.027344 13.261719 114.164062 13.628906 114.28125 14.019531 L 115.777344 13.777344 C 115.292969 12.792969 114.847656 11.765625 113.535156 11.039062 C 109.5 8.792969 104.253906 9.5 102.308594 8.941406 C 102.484375 8.1875 102.542969 7.4375 102.945312 6.804688 C 110.144531 7.054688 114.789062 8.28125 118.683594 9.519531 C 123.5625 11.078125 124.546875 12.25 125.175781 12.75 L 124.988281 13.644531 Z M 150.953125 62.148438 C 144.511719 46.851562 124.679688 56.910156 130.90625 72.863281 C 132.132812 76 134.28125 78.34375 137.363281 79.714844 C 146.519531 83.792969 155.339844 72.566406 150.953125 62.148438 Z M 155.441406 74.695312 C 154.898438 74.554688 154.371094 78.429688 149.582031 81.730469 C 145.390625 84.621094 141.371094 83.777344 141.046875 83.765625 C 133.445312 83.417969 125.089844 71.820312 128.949219 60.703125 C 130.503906 56.222656 132.691406 54.871094 133.195312 54.136719 C 131.890625 54.730469 130.695312 55.457031 129.894531 56.625 C 126.5 61.628906 126.34375 68.035156 128.074219 73.097656 C 133.203125 88.121094 150.746094 88.246094 155.441406 74.695312 Z M 93.128906 32.839844 C 93.488281 31.296875 93.671875 29.757812 93.554688 28.195312 C 93.503906 27.496094 93.011719 26.960938 92.359375 26.703125 C 91.214844 26.242188 90.113281 26.945312 84.675781 28.378906 C 81.214844 29.285156 77.832031 29.40625 74.257812 29.683594 C 62.734375 30.585938 62.71875 30.175781 62.738281 30.710938 C 62.761719 31.152344 62.746094 30.910156 73.335938 30.328125 C 84.523438 29.710938 87.40625 27.886719 91.230469 27.0625 C 92.292969 26.835938 93.1875 27.546875 93.09375 28.539062 C 93.070312 28.804688 93.113281 29.082031 93.09375 29.347656 C 92.75 33.050781 92.867188 32.910156 91.992188 32.941406 C 85.640625 33.183594 73.394531 34.886719 64.792969 37.820312 C 64.609375 37.878906 64.363281 37.929688 64.433594 38.1875 C 64.523438 38.480469 64.785156 38.363281 65 38.339844 C 65.007812 38.339844 76.363281 34.109375 91.957031 33.453125 C 95.175781 33.324219 96.058594 33.953125 97.121094 34.453125 C 97.3125 34.027344 96.996094 33.894531 96.746094 33.785156 C 95.160156 33.109375 95.800781 33.410156 93.128906 32.839844 Z M 57.015625 67.199219 C 56.179688 72.113281 59.980469 78.6875 65.257812 78.621094 C 69.519531 78.570312 71.832031 75.722656 72.921875 71.71875 C 71.65625 71.027344 72.21875 71.945312 70.964844 73.960938 C 67.074219 80.234375 58.515625 77.351562 58.25 67.878906 C 58.234375 67.34375 57.582031 67.328125 57.015625 67.199219 Z M 65.425781 70.886719 C 64.933594 71.042969 64.484375 71.320312 64.089844 71.269531 C 62.152344 71.011719 62.078125 69.546875 61.734375 68.054688 C 61.359375 67.871094 61.058594 67.9375 60.882812 68.40625 C 60.757812 67.9375 60.574219 67.675781 60.105469 67.785156 C 59.738281 69.023438 60.664062 73.808594 64.367188 74.429688 C 66.613281 74.804688 68.558594 73.050781 69.058594 71.109375 C 68.382812 71.011719 67.765625 70.953125 67.15625 70.820312 C 66.746094 70.734375 66.578125 70.8125 66.511719 71.238281 C 66.414062 71.863281 65.351562 71.871094 65.441406 71.152344 C 65.453125 71.050781 65.433594 70.953125 65.425781 70.886719 Z M 100.746094 65.847656 C 100.671875 65.347656 100.746094 66.105469 78.515625 65.65625 C 77.40625 65.632812 75.96875 65.386719 75.828125 65.480469 C 73.671875 67.019531 76.953125 66.632812 94.742188 66.960938 C 98.066406 67.027344 99.769531 66.199219 100.746094 65.847656 Z M 127.328125 12.074219 C 128.78125 12.15625 129.859375 11.488281 130.605469 10.292969 C 132.167969 7.8125 132.148438 4.90625 130.285156 2.582031 C 128.984375 0.964844 127.210938 0.402344 125.238281 1.605469 C 120.835938 4.296875 122.585938 12.199219 127.328125 12.074219 Z M 152.214844 38.898438 C 148.546875 38.539062 146.21875 40.695312 147.878906 42.507812 C 148.984375 43.71875 153.382812 46.476562 154.804688 46.574219 C 155.566406 46.625 156.035156 46.039062 155.847656 45.355469 C 155.273438 46.222656 154.832031 46.324219 153.859375 45.832031 C 152.484375 45.140625 152.882812 45.53125 149.332031 42.910156 C 149.050781 42.707031 148.824219 42.441406 148.574219 42.199219 L 148.671875 42.074219 C 149.535156 42.609375 150.34375 43.269531 151.457031 43.425781 C 151.378906 42.941406 151.355469 42.53125 151.230469 42.140625 C 150.851562 40.917969 151.027344 39.84375 152.214844 38.898438 Z M 58.828125 67.570312 C 58.800781 67.726562 58.734375 67.886719 58.75 68.042969 C 58.835938 68.9375 58.867188 69.847656 59.070312 70.710938 C 60.605469 77.066406 68.21875 78.796875 70.824219 71.988281 C 71.03125 71.445312 70.863281 71.296875 70.269531 71.394531 C 69.921875 72.019531 69.660156 72.664062 69.246094 73.199219 C 65.71875 77.8125 59.703125 74.335938 59.546875 68.261719 C 59.535156 67.675781 59.503906 67.660156 58.828125 67.570312 Z M 55.511719 62.457031 C 55.074219 62.230469 54.800781 62.296875 54.714844 62.589844 C 53.394531 66.757812 53.582031 66.125 60.488281 67.226562 C 61.75 67.425781 62.601562 67.617188 63.578125 67.734375 C 65.144531 67.917969 67.03125 68.011719 67.28125 68.078125 C 68.265625 68.347656 69.261719 68.296875 70.261719 68.277344 C 71.058594 68.253906 71.609375 67.777344 72.074219 67.183594 C 72.453125 66.707031 71.902344 66.390625 71.140625 65.679688 C 71.316406 66.523438 71.625 66.859375 70.730469 67.21875 C 68.691406 68.035156 57.480469 65.992188 55.511719 65.6875 C 54.359375 65.503906 54.867188 64.554688 55.511719 62.457031 Z M 77.1875 73.675781 C 76.710938 74.101562 76.6875 74.3125 77.140625 74.5625 C 77.875 74.972656 77.738281 74.570312 83.378906 73.953125 C 85.550781 73.71875 86.578125 73.699219 87.003906 73.574219 C 88.484375 73.140625 88.257812 73.882812 89.132812 73.667969 C 90.554688 73.316406 90.578125 73.089844 92.953125 69.121094 C 92.167969 68.9375 92.058594 68.957031 91.707031 69.492188 C 91.414062 69.933594 89.628906 73.222656 88.792969 72.589844 C 88.199219 72.140625 88.742188 72.40625 79.128906 73.410156 C 78.875 73.441406 78.691406 73.5 78.59375 73.800781 C 78.347656 74.644531 77.648438 73.992188 77.1875 73.675781 Z M 74.617188 75.621094 C 74.007812 76.472656 73.804688 77.109375 72.378906 78.480469 C 69.902344 80.875 65.894531 81.871094 61.976562 79.617188 C 57.582031 77.085938 55.609375 71.46875 55.910156 67.679688 C 55.984375 66.765625 55.511719 66.910156 55.433594 67.101562 C 55.367188 67.261719 55.117188 70.476562 56.414062 73.691406 C 58.945312 79.957031 64.316406 82.222656 68.542969 81.070312 C 71.902344 80.160156 74.191406 77.5 74.617188 75.621094 Z M 152.667969 81.351562 C 155.75 79.046875 158.671875 74.394531 159.007812 68.113281 C 159.058594 67.199219 158.832031 66.273438 158.808594 65.347656 C 158.757812 63.097656 157.421875 58.171875 153.828125 54.652344 C 153.667969 54.488281 153.460938 54.300781 153.125 54.605469 C 154.054688 55.65625 155.023438 56.675781 155.734375 57.894531 C 158.839844 63.191406 159.234375 69.171875 157.304688 74.253906 C 156.109375 77.402344 155.375 77.996094 152.667969 81.351562 Z M 48.867188 53.308594 C 48.191406 55.324219 47.957031 55.789062 47.546875 57.921875 C 47.523438 58.039062 47.664062 58.222656 47.78125 58.3125 C 48.09375 58.5625 48.84375 56.550781 51.097656 52.492188 C 48.902344 52.265625 48.132812 51.929688 47.464844 52.734375 C 47.230469 53.023438 46.152344 56.941406 46.144531 56.949219 C 46.105469 57.335938 46.945312 58.304688 47.164062 57.117188 C 47.273438 56.507812 47.367188 55.464844 48.058594 53.910156 C 48.175781 53.636719 48.34375 53.292969 48.867188 53.308594 Z M 83.621094 69.179688 C 83.046875 68.664062 82.84375 69.492188 82.183594 69.96875 C 81.359375 70.566406 81.550781 70.777344 77.019531 70.507812 C 69.183594 70.035156 68.769531 69.488281 68.425781 70.148438 C 68.390625 70.21875 68.535156 70.484375 68.644531 70.527344 C 69 70.675781 69.371094 70.808594 69.746094 70.84375 C 69.753906 70.84375 76.945312 71.304688 77.421875 71.3125 C 79.261719 71.355469 82.820312 72.289062 83.621094 69.179688 Z M 92.015625 41.40625 L 91.847656 41.3125 C 90.097656 43.210938 88.742188 45.304688 88.675781 48.003906 C 88.625 50 88.589844 52.472656 91.191406 55.3125 C 92.46875 56.699219 93.945312 57.785156 95.742188 58.378906 C 96.058594 58.480469 96.425781 58.597656 96.796875 58.453125 C 96.050781 57.601562 94.324219 57.667969 92.117188 55.5625 C 89.175781 52.765625 88.542969 49.007812 89.503906 45.722656 C 90.054688 43.851562 90.980469 42.78125 92.015625 41.40625 Z M 52.050781 49.992188 L 55.144531 45.566406 C 54.273438 45.480469 53.496094 45.773438 52.34375 45.757812 C 51.542969 45.742188 51.175781 46.214844 50.765625 46.828125 C 51.824219 47.5625 52.195312 48.589844 52.050781 49.992188 Z M 125.390625 14.210938 C 126.46875 14.9375 125.75 14.105469 130.605469 16.644531 C 131.078125 16.894531 131.273438 17.34375 132.242188 18.457031 C 132.859375 19.160156 134.277344 19.292969 134.546875 18.324219 C 134.648438 17.964844 134.53125 17.847656 133.886719 17.546875 C 125.734375 13.769531 126.433594 13.894531 125.390625 14.210938 Z M 80.453125 72.613281 C 81.597656 72.664062 80.464844 72.730469 84.0625 72.332031 C 88.617188 71.828125 88.917969 71.964844 89.261719 71.378906 C 89.542969 70.902344 89.769531 70.390625 89.9375 69.859375 C 90.054688 69.480469 89.894531 69.316406 89.4375 69.164062 C 89.734375 71.011719 90.105469 70.742188 83.714844 71.59375 C 80.898438 71.964844 80.355469 71.679688 80.453125 72.613281 Z M 100.179688 5.902344 C 99.5625 5.839844 100.179688 5.890625 92.953125 5.792969 C 87.933594 5.726562 88.082031 5.589844 87.941406 6.015625 C 88.492188 6.183594 99.261719 6.625 99.703125 6.625 C 100.261719 6.625 100.269531 6.601562 100.179688 5.902344 Z M 67.582031 65.03125 C 67.382812 64.511719 66.988281 64.34375 66.628906 64.167969 C 65.082031 63.417969 63.421875 63.257812 61.734375 63.390625 C 61.5 63.410156 61.28125 63.574219 60.90625 63.734375 C 61.222656 63.917969 61.367188 64.050781 61.535156 64.09375 C 63.832031 64.6875 63.628906 64.628906 67.238281 65.121094 C 67.316406 65.136719 67.414062 65.085938 67.582031 65.03125 Z M 123.980469 13.792969 C 123.394531 12.339844 119 12.207031 117.628906 13.609375 C 119.792969 13.585938 121.875 13.492188 123.980469 13.792969 Z M 100.394531 8.363281 C 99.675781 8.515625 100.347656 8.238281 96.261719 9.761719 C 95.660156 9.992188 95.199219 10.144531 95.324219 10.605469 C 95.34375 10.6875 95.558594 10.746094 95.683594 10.753906 C 95.792969 10.761719 95.910156 10.671875 96.019531 10.636719 C 100.335938 9.148438 100.371094 9.308594 100.394531 8.363281 Z M 62.410156 68.160156 C 62.203125 69.773438 63.832031 71.121094 64.464844 70.210938 C 65.015625 69.414062 64.949219 68.738281 65.625 68.78125 C 67.554688 68.914062 67.808594 69.164062 68.460938 68.886719 C 67.230469 68.746094 66.019531 68.402344 64.757812 68.488281 C 64.484375 69.441406 64.054688 70.191406 63.289062 69.558594 C 62.492188 68.890625 63.1875 68.230469 62.410156 68.160156 Z M 100.8125 3.804688 C 100.988281 4.246094 101.214844 4.613281 101.28125 5 C 101.5 6.308594 101.507812 7.605469 100.945312 8.855469 C 100.839844 9.089844 100.8125 8.890625 100.90625 9.375 C 101.332031 9.226562 101.25 9.332031 101.464844 8.933594 C 102.074219 7.847656 102.160156 6.667969 101.992188 5.464844 C 101.925781 5.015625 101.707031 4.589844 101.507812 4.171875 C 101.40625 3.953125 101.238281 3.71875 100.8125 3.804688 Z M 62.996094 65.554688 C 62.777344 65.320312 63.09375 65.246094 61.082031 64.914062 C 60.730469 64.855469 60.371094 64.863281 60.011719 64.828125 C 59.863281 64.8125 59.703125 64.710938 59.59375 64.746094 C 59.4375 64.804688 59.320312 64.960938 59.1875 65.078125 C 59.769531 65.707031 59.152344 65.230469 62.417969 65.898438 C 62.734375 65.964844 62.976562 65.855469 62.996094 65.554688 Z M 111.046875 68.171875 C 113.121094 67.859375 115.050781 67.203125 116.621094 65.722656 C 114.882812 66.824219 113.011719 67.59375 111.046875 68.171875 Z M 95.28125 35.230469 C 96.125 37.835938 96.152344 37.242188 95.101562 38.839844 C 96.027344 38.328125 96.496094 37.542969 96.328125 36.761719 C 96.195312 36.160156 96.128906 35.457031 95.28125 35.230469 Z M 72.703125 67.453125 C 72.160156 67.675781 72.035156 68.128906 71.949219 68.5625 C 71.835938 69.097656 72 69.40625 72.859375 69.238281 C 72.996094 68.453125 72.960938 68.054688 72.703125 67.453125 Z M 77.554688 72.378906 C 77.566406 71.460938 76.539062 71.445312 76.527344 72.390625 C 76.519531 72.75 76.65625 72.882812 77.0625 72.898438 C 77.441406 72.921875 77.546875 72.808594 77.554688 72.378906 Z M 75.710938 68.554688 C 75.867188 68.9375 75.558594 69.367188 76.019531 69.566406 C 76.621094 69.824219 77.121094 69.265625 76.664062 68.539062 C 75.960938 68.480469 76.226562 68.488281 75.710938 68.554688 Z M 68.550781 66.316406 C 68.03125 65.261719 66.664062 65.582031 67.097656 66.441406 C 67.574219 66.449219 68.042969 66.574219 68.550781 66.316406 Z M 64.332031 65.046875 C 64.171875 65.371094 64.046875 65.523438 64.023438 65.6875 C 63.996094 65.929688 64.296875 66.242188 64.441406 66.148438 C 64.566406 66.066406 64.683594 65.855469 64.675781 65.707031 C 64.667969 65.53125 64.515625 65.371094 64.332031 65.046875 Z M 66.539062 66.132812 C 66.5625 65.730469 66.378906 65.640625 66.136719 65.628906 C 65.476562 65.582031 65.703125 66.414062 66.195312 66.398438 C 66.328125 66.398438 66.460938 66.199219 66.539062 66.132812 Z M 71.015625 68.621094 L 70.632812 69.03125 C 70.890625 69.257812 70.855469 69.449219 71.28125 68.921875 C 71.292969 68.90625 71.148438 68.773438 71.015625 68.621094 Z M 79.234375 72.648438 L 79.25 72.847656 C 79.445312 72.941406 79.652344 73.015625 79.871094 72.648438 Z M 76.160156 72.933594 C 75.933594 73.25 76.019531 73.398438 76.234375 73.476562 C 76.277344 73.492188 76.351562 73.433594 76.460938 73.398438 Z M 69.863281 64.011719 C 70.003906 63.925781 70.003906 63.976562 69.769531 63.699219 C 69.667969 63.777344 69.671875 63.726562 69.863281 64.011719 Z M 69.863281 64.011719 " fill-opacity="1" fill-rule="nonzero"/></g><path fill="#1e3653" d="M 86.269531 7.40625 C 85.941406 6.851562 86.167969 6.285156 86.261719 5.714844 C 86.261719 7.589844 86.253906 7.429688 86.269531 7.40625 Z M 86.269531 7.40625 " fill-opacity="1" fill-rule="nonzero"/><path fill="#1e3653" d="M 116.460938 41.445312 C 115.347656 40.863281 115.683594 40.59375 114.347656 35.722656 C 113.835938 33.84375 113.042969 32.910156 117.570312 32.542969 C 117.9375 32.515625 118.238281 32.640625 118.355469 33.042969 C 118.355469 33.050781 119.550781 36.757812 120.355469 40.402344 C 120.511719 41.105469 120.078125 41.65625 119.351562 41.695312 C 119.335938 41.703125 117.128906 41.796875 116.460938 41.445312 Z M 118.707031 37.542969 L 118.699219 37.292969 C 117.964844 37.226562 117.21875 37.246094 116.484375 37.351562 C 116.191406 37.386719 116.042969 37.613281 116.152344 37.960938 C 116.445312 38.875 115.742188 40.328125 119.050781 40.175781 C 119.160156 40.167969 119.269531 40.066406 119.511719 39.941406 C 117.746094 39.40625 117.171875 40.550781 116.859375 38.019531 C 116.84375 37.902344 117.121094 37.679688 117.304688 37.628906 C 117.554688 37.546875 117.546875 37.628906 118.707031 37.542969 Z M 117.871094 33.394531 C 117.707031 33.25 117.664062 33.191406 117.636719 33.191406 C 116.945312 33.285156 116.25 33.367188 115.566406 33.511719 C 114.65625 33.710938 115.484375 35.832031 115.851562 36.542969 C 117.363281 36.417969 116.285156 36.433594 115.917969 34.421875 C 115.71875 33.382812 116.710938 33.9375 117.871094 33.394531 Z M 118.191406 35.859375 C 117.878906 36.148438 117.394531 35.789062 117.078125 36.191406 C 117.921875 36.390625 118.125 36.339844 118.191406 35.859375 Z M 118.191406 35.859375 " fill-opacity="1" fill-rule="nonzero"/><path fill="#1e3653" d="M 106.191406 65.554688 C 109.160156 62.382812 109.753906 62.082031 111.859375 57.5625 C 113.746094 53.519531 114.574219 49.082031 115.339844 46.082031 C 115.558594 46.523438 115.484375 46.84375 115.417969 47.167969 C 114.679688 50.792969 113.46875 60.402344 106.191406 65.554688 Z M 106.191406 65.554688 " fill-opacity="1" fill-rule="nonzero"/><path fill="#1e3653" d="M 132.59375 30.578125 C 132.058594 30.613281 132.164062 30.621094 130.195312 25.875 C 122.515625 7.320312 132.265625 28.949219 132.59375 30.578125 Z M 132.59375 30.578125 " fill-opacity="1" fill-rule="nonzero"/><path fill="#1e3653" d="M 125.117188 15.5 C 125.949219 15.289062 127.78125 15.949219 128.890625 16.871094 C 126.585938 15.957031 127.578125 16.316406 125.117188 15.5 Z M 125.117188 15.5 " fill-opacity="1" fill-rule="nonzero"/><path fill="#1e3653" d="M 120.644531 31.628906 C 118.757812 30.996094 119.570312 31.121094 117.578125 31.121094 C 118.441406 30.621094 119.894531 30.726562 120.410156 31.253906 C 120.476562 31.328125 120.511719 31.414062 120.644531 31.628906 Z M 120.644531 31.628906 " fill-opacity="1" fill-rule="nonzero"/><path fill="#1e3653" d="M 116.257812 43.703125 C 116.738281 43.21875 116.738281 43.21875 117.796875 43.703125 Z M 116.257812 43.703125 " fill-opacity="1" fill-rule="nonzero"/><path fill="#1e3653" d="M 111.222656 23.800781 L 111.355469 24.789062 L 111.1875 24.804688 C 110.839844 24.304688 111.3125 23.769531 111.222656 23.800781 Z M 111.222656 23.800781 " fill-opacity="1" fill-rule="nonzero"/><path fill="#1e3653" d="M 130.078125 17.453125 C 130.363281 17.855469 130.371094 17.820312 130.304688 17.894531 C 129.917969 17.539062 129.917969 17.621094 130.078125 17.453125 Z M 130.078125 17.453125 " fill-opacity="1" fill-rule="nonzero"/><path fill="#1e3653" d="M 102.265625 64.300781 C 102.09375 64.335938 101.925781 64.410156 101.765625 64.410156 C 97.320312 64.363281 95.097656 64.730469 87.773438 64.410156 C 85.816406 64.320312 85.273438 64.160156 79.894531 64.160156 C 79.96875 63.082031 102.234375 64.058594 102.265625 64.300781 Z M 102.265625 64.300781 " fill-opacity="1" fill-rule="nonzero"/><path fill="#1e3653" d="M 156.5 52.800781 C 153.601562 52.800781 153.375 52.90625 153.152344 52.414062 C 151.171875 48.011719 146.242188 44.695312 141.539062 43.074219 C 136.734375 41.414062 131.679688 41.847656 127.738281 45.480469 C 125.941406 47.136719 124.296875 49.792969 123.878906 50.960938 L 123.71875 50.910156 C 125.359375 46.097656 130.769531 41.648438 136.074219 41.695312 C 139.667969 41.722656 139.183594 41.570312 141.304688 42.023438 C 146.578125 43.152344 151.355469 46.164062 154.011719 49.238281 C 154.871094 50.226562 155.605469 51.335938 156.390625 52.390625 C 156.441406 52.464844 156.433594 52.566406 156.5 52.800781 Z M 156.5 52.800781 " fill-opacity="1" fill-rule="nonzero"/><path fill="#1e3653" d="M 67.898438 45.824219 C 68.101562 45.839844 68.257812 45.808594 68.367188 45.859375 C 70.839844 46.992188 72.484375 48.839844 73.210938 51.472656 C 73.414062 52.222656 73.644531 53 73.628906 53.761719 C 73.589844 55.789062 73.171875 57.738281 71.816406 59.339844 C 70.269531 61.171875 68.851562 60.800781 64.5 60.777344 C 64.40625 60.777344 64.316406 60.75 64.214844 60.636719 C 65.652344 60.328125 68.214844 61.050781 70.40625 59.617188 C 72.695312 58.128906 73.363281 54.988281 72.910156 52.273438 C 72.027344 47.058594 68.214844 46.332031 67.898438 45.824219 Z M 67.898438 45.824219 " fill-opacity="1" fill-rule="nonzero"/><path fill="#1e3653" d="M 55.210938 50.695312 C 55.257812 50.25 55.484375 50.25 55.695312 50.21875 C 59.519531 49.675781 67.371094 49.800781 69.203125 50.007812 C 69.226562 50.535156 69.1875 49.792969 55.210938 50.695312 Z M 55.210938 50.695312 " fill-opacity="1" fill-rule="nonzero"/><path fill="#1e3653" d="M 54.574219 51.5625 C 59.1875 50.945312 63.746094 51.238281 68.300781 51.253906 L 68.324219 51.421875 C 67.347656 51.589844 59.539062 51.496094 55.234375 51.929688 C 55.015625 51.949219 54.734375 52.054688 54.574219 51.5625 Z M 54.574219 51.5625 " fill-opacity="1" fill-rule="nonzero"/><path fill="#1e3653" d="M 59.359375 49.207031 C 58.007812 49.257812 57.238281 49.492188 56.164062 49.414062 C 56.414062 49.03125 56.730469 49.007812 57.023438 48.980469 C 60.15625 48.648438 65.609375 48.488281 67.390625 48.738281 C 67.363281 49.117188 67.398438 48.882812 59.359375 49.207031 Z M 59.359375 49.207031 " fill-opacity="1" fill-rule="nonzero"/><path fill="#1e3653" d="M 57.574219 47.886719 C 59.011719 47.4375 64.851562 47.058594 69.167969 47.761719 C 57.574219 48.0625 57.648438 48.15625 57.574219 47.886719 Z M 57.574219 47.886719 " fill-opacity="1" fill-rule="nonzero"/><path fill="#1e3653" d="M 66.886719 45.773438 C 67.089844 45.523438 66.914062 45.558594 67.5 45.625 C 67.488281 45.824219 67.539062 45.773438 66.886719 45.773438 Z M 66.886719 45.773438 " fill-opacity="1" fill-rule="nonzero"/><path fill="#1e3653" d="M 114.332031 5.601562 C 115.53125 5.601562 117.164062 5.601562 118.105469 5.625 C 119.535156 5.65625 120.351562 5 120.769531 4.988281 C 120.179688 5.683594 119.382812 6.007812 118.515625 6.074219 C 115.773438 6.285156 116.269531 5.960938 114.320312 5.824219 Z M 114.332031 5.601562 " fill-opacity="1" fill-rule="nonzero"/><path fill="#1e3653" d="M 103.203125 5.332031 L 107.996094 5.675781 C 107.503906 5.992188 106.953125 5.875 106.433594 5.910156 C 105.851562 5.957031 105.265625 5.992188 104.691406 5.917969 C 104.179688 5.851562 103.554688 6.109375 103.167969 5.542969 Z M 103.203125 5.332031 " fill-opacity="1" fill-rule="nonzero"/><path fill="#1e3653" d="M 150.46875 64.183594 C 153.074219 74.035156 144.746094 82.113281 136.996094 77.402344 C 133.851562 75.496094 132.015625 71.621094 131.730469 69.617188 C 129.566406 54.359375 147.035156 51.226562 150.46875 64.183594 Z M 149.523438 67.785156 C 150.210938 60.792969 141.929688 53.335938 135.316406 59.457031 C 128.316406 65.929688 134.136719 79.171875 142.660156 77.359375 C 147.136719 76.40625 149.867188 71.789062 149.523438 67.785156 Z M 149.523438 67.785156 " fill-opacity="1" fill-rule="nonzero"/><path fill="#1e3653" d="M 131.253906 6.59375 C 131.246094 11.097656 126.917969 13.320312 124.722656 9.953125 C 123.210938 7.636719 123.3125 5.25 124.789062 2.953125 C 126.84375 -0.25 131.261719 2.066406 131.253906 6.59375 Z M 127.695312 3.226562 C 126.59375 3.070312 126.035156 4.0625 125.515625 5.046875 C 125.148438 5.726562 125.289062 6.476562 125.273438 7.210938 C 125.257812 7.964844 125.480469 8.648438 125.902344 9.277344 C 127.773438 12.050781 131.0625 8.648438 129.902344 4.988281 C 129.558594 3.894531 128.742188 3.253906 127.695312 3.226562 Z M 127.695312 3.226562 " fill-opacity="1" fill-rule="nonzero"/><path fill="#1e3653" d="M 141.457031 76.054688 C 136.367188 76.066406 133.109375 71.050781 133.578125 66.183594 C 134.046875 61.394531 137.34375 58.8125 140.1875 58.695312 C 145.113281 58.496094 148.347656 63.074219 148.378906 67.695312 C 148.414062 73.042969 144.460938 76.207031 141.457031 76.054688 Z M 144.53125 61.769531 C 140.828125 57.988281 134.824219 60.441406 134.320312 66.558594 C 134.019531 70.265625 136.484375 74.445312 140.351562 74.777344 C 146.082031 75.253906 149.667969 67.007812 144.53125 61.769531 Z M 144.53125 61.769531 " fill-opacity="1" fill-rule="nonzero"/><path fill="#1e3653" d="M 142.550781 67.484375 C 142.773438 70.769531 138.847656 72.089844 137.410156 69.515625 C 135.976562 66.949219 137.152344 63.675781 139.792969 63.824219 C 141.4375 63.925781 142.648438 65.8125 142.550781 67.484375 Z M 137.394531 67.335938 C 137.035156 69.308594 139.484375 71.101562 140.769531 69.457031 C 141.597656 68.394531 141.570312 66.417969 140.636719 65.40625 C 139.316406 63.96875 137.113281 65.289062 137.394531 67.335938 Z M 137.394531 67.335938 " fill-opacity="1" fill-rule="nonzero"/><path fill="#1e3653" d="M 138.617188 68.949219 C 137.226562 67.644531 138.128906 65.347656 139.5 65.523438 C 141.914062 65.839844 140.671875 70.875 138.617188 68.949219 Z M 138.617188 68.949219 " fill-opacity="1" fill-rule="nonzero"/></g></g></g></svg>